<?xml version="1.0" encoding="UTF-8" standalone="no"?>
<svg
   xmlns:dc="http://purl.org/dc/elements/1.1/"
   xmlns:cc="http://creativecommons.org/ns#"
   xmlns:rdf="http://www.w3.org/1999/02/22-rdf-syntax-ns#"
   xmlns:svg="http://www.w3.org/2000/svg"
   xmlns="http://www.w3.org/2000/svg"
   xmlns:sodipodi="http://sodipodi.sourceforge.net/DTD/sodipodi-0.dtd"
   xmlns:inkscape="http://www.inkscape.org/namespaces/inkscape"
   id="svg8"
   version="1.1"
   viewBox="0 0 36.348686 36.348686"
   height="36.348686mm"
   width="36.348686mm"
   sodipodi:docname="templateicon-symbolic.svg"
   inkscape:version="0.92.4 (5da689c313, 2019-01-14)">
  <sodipodi:namedview
     pagecolor="#ffffff"
     bordercolor="#666666"
     borderopacity="1"
     objecttolerance="10"
     gridtolerance="10"
     guidetolerance="10"
     inkscape:pageopacity="0"
     inkscape:pageshadow="2"
     inkscape:window-width="3840"
     inkscape:window-height="1896"
     id="namedview7"
     showgrid="false"
     inkscape:zoom="4.8588194"
     inkscape:cx="82.591231"
     inkscape:cy="102.71731"
     inkscape:window-x="0"
     inkscape:window-y="68"
     inkscape:window-maximized="1"
     inkscape:current-layer="svg8" />
  <defs
     id="defs2" />
  <metadata
     id="metadata5">
    <rdf:RDF>
      <cc:Work
         rdf:about="">
        <dc:format>image/svg+xml</dc:format>
        <dc:type
           rdf:resource="http://purl.org/dc/dcmitype/StillImage" />
        <dc:title></dc:title>
      </cc:Work>
    </rdf:RDF>
  </metadata>
  <circle
     style="fill:#60616b;fill-opacity:1;stroke-width:0.30841005"
     id="path814"
     cx="6.9618168"
     cy="17.912504"
     r="5.1731534" />
  <path
     style="fill:#60616b;fill-opacity:1;stroke-width:0.30841005"
     d="m 18.257546,12.660963 a 5.1731536,5.1731536 0 0 0 -5.173328,5.173328 5.1731536,5.1731536 0 0 0 5.173328,5.173328 5.1731536,5.1731536 0 0 0 5.173328,-5.173328 5.1731536,5.1731536 0 0 0 -5.173328,-5.173328 z m 0,1.252637 a 3.9207057,3.9207057 0 0 1 3.920691,3.920691 3.9207057,3.9207057 0 0 1 -3.920691,3.92069 3.9207057,3.9207057 0 0 1 -3.920691,-3.92069 3.9207057,3.9207057 0 0 1 3.920691,-3.920691 z"
     id="path814-5"
     inkscape:connector-curvature="0" />
  <path
     style="fill:#60616b;fill-opacity:1;stroke-width:0.30841005"
     d="m 29.553277,13.151004 a 5.1731535,5.1731535 0 0 0 -5.173328,5.173328 5.1731535,5.1731535 0 0 0 5.173328,5.173328 5.1731535,5.1731535 0 0 0 5.173328,-5.173328 5.1731535,5.1731535 0 0 0 -5.173328,-5.173328 z m 0,1.252637 a 3.9207057,3.9207057 0 0 1 3.920691,3.920691 3.9207057,3.9207057 0 0 1 -3.920691,3.92069 3.9207057,3.9207057 0 0 1 -3.920691,-3.92069 3.9207057,3.9207057 0 0 1 3.920691,-3.920691 z"
     id="path814-5-5"
     inkscape:connector-curvature="0" />
</svg>
