<?xml version="1.0" encoding="UTF-8" standalone="no"?>
<svg
   xmlns:dc="http://purl.org/dc/elements/1.1/"
   xmlns:cc="http://creativecommons.org/ns#"
   xmlns:rdf="http://www.w3.org/1999/02/22-rdf-syntax-ns#"
   xmlns:svg="http://www.w3.org/2000/svg"
   xmlns="http://www.w3.org/2000/svg"
   width="135mm"
   height="135mm"
   viewBox="0 0 135.00001 135"
   version="1.1"
   id="svg8">
  <defs
     id="defs2" />
  <metadata
     id="metadata5">
    <rdf:RDF>
      <cc:Work
         rdf:about="">
        <dc:format>image/svg+xml</dc:format>
        <dc:type
           rdf:resource="http://purl.org/dc/dcmitype/StillImage" />
        <dc:title></dc:title>
      </cc:Work>
    </rdf:RDF>
  </metadata>
  <g
     id="layer1"
     transform="translate(-34.101305,-30.582483)">
    <path
       style="opacity:1;fill:#cccccc;fill-opacity:1;stroke:none;stroke-width:3.77952766;stroke-miterlimit:4;stroke-dasharray:none;stroke-dashoffset:0;stroke-opacity:1"
       d="m 315.74023,132.24219 a 248.57141,248.57141 0 0 0 -51.36914,21.23828 181.42857,89.999999 45 0 1 -3.11328,94.0957 181.42857,89.999999 45 0 1 -93.27539,3.32031 248.57141,248.57141 0 0 0 -19.30859,45.32813 181.42857,89.999999 0 0 1 65.36133,69.14062 181.42857,89.999999 0 0 1 -67.63477,70.0586 248.57141,248.57141 0 0 0 18.42188,48.21484 89.999999,181.42857 45 0 1 98.04687,1.34375 89.999999,181.42857 45 0 1 0.14844,100.82617 248.57141,248.57141 0 0 0 44.63281,19.96094 89.999999,181.42857 0 0 1 72.0918,-73.17969 A 89.999999,181.42857 0 0 1 384,533.0332 V 483.70117 A 113.57143,113.57143 0 0 1 270.83008,370.15039 113.57143,113.57143 0 0 1 384,256.5918 v -59.96289 a 89.999999,181.42857 0 0 1 -68.25977,-64.38672 z"
       transform="scale(0.26458333)"
       id="path980" />
    <path
       style="opacity:1;fill:#cccccc;fill-opacity:1;stroke:none;stroke-width:1;stroke-miterlimit:4;stroke-dasharray:none;stroke-dashoffset:0;stroke-opacity:1"
       d="m 119.39313,34.989079 a 65.767852,65.767852 0 0 1 13.59142,5.619295 23.8125,48.002976 45 0 0 0.82372,24.896154 23.8125,48.002976 45 0 0 24.67911,0.878499 65.767852,65.767852 0 0 1 5.10874,11.993067 48.002976,23.8125 0 0 0 -17.29352,18.293456 48.002976,23.8125 0 0 0 17.89503,18.53634 65.767852,65.767852 0 0 1 -4.87412,12.75684 48.002976,23.8125 45 0 0 -25.94157,0.35553 48.002976,23.8125 45 0 0 -0.0393,26.67693 65.767852,65.767852 0 0 1 -11.8091,5.28133 23.8125,48.002976 0 0 0 -19.07429,-19.36212 23.8125,48.002976 0 0 0 -1.12654,0.1173 V 127.97927 A 30.049108,30.049108 0 0 0 131.27561,97.935624 30.049108,30.049108 0 0 0 101.33273,67.889913 V 52.024732 a 23.8125,48.002976 0 0 0 18.0604,-17.035653 z"
       id="path980-8" />
  </g>
  <path
     id="path4523"
     d="M 67.365139,34.847314 A 32.203068,32.203068 0 0 0 35.161936,67.050517 32.203068,32.203068 0 0 0 67.365139,99.253201 32.203068,32.203068 0 0 0 99.568342,67.050517 32.203068,32.203068 0 0 0 67.365139,34.847314 Z m 0,11.556402 A 21.021734,20.646349 0 0 1 88.386595,67.050517 21.021734,20.646349 0 0 1 67.365139,87.696804 21.021734,20.646349 0 0 1 46.343167,67.050517 21.021734,20.646349 0 0 1 67.365139,46.403716 Z"
     style="opacity:1;fill:#cccccc;fill-opacity:1;stroke:none;stroke-width:2.2058146;stroke-miterlimit:4;stroke-dasharray:none;stroke-dashoffset:0;stroke-opacity:1" />
</svg>
