<?xml version="1.0" encoding="UTF-8" standalone="no"?>
<!-- Created with Inkscape (http://www.inkscape.org/) -->

<svg
   width="839.96582"
   height="723.84576"
   viewBox="0 0 222.24096 191.51753"
   version="1.1"
   id="svg5"
   xmlns="http://www.w3.org/2000/svg"
   xmlns:svg="http://www.w3.org/2000/svg">
  <defs
     id="defs2" />
  <g
     id="layer1"
     transform="translate(-318.47093,-156.35273)">
    <path
       id="path31"
       style="fill:#808080;stroke-width:0.999999"
       d="m 1620.7402,590.93945 a 361.92215,361.92215 0 0 0 -349.1328,267.53516 h 107.668 a 259.83531,259.83531 0 0 1 241.5918,-165.44727 259.83531,259.83531 0 0 1 241.9726,165.44727 H 1970.127 A 361.92215,361.92215 0 0 0 1620.7402,590.93945 Z M 1271.6074,1047.25 a 361.92215,361.92215 0 0 0 349.1328,267.5352 361.92215,361.92215 0 0 0 349.1309,-267.5352 H 1862.459 A 259.83531,259.83531 0 0 1 1620.8672,1212.6973 259.83531,259.83531 0 0 1 1379.2754,1047.25 Z"
       transform="scale(0.26458333)" />
    <path
       style="fill:#808080"
       id="path2164"
       d="M 994.47663,611.92722 790.35813,610.52634 586.23963,609.12546 689.51208,433.05409 792.78453,256.98272 893.63058,434.45497 Z"
       transform="matrix(0.19538897,0,0,0.13761195,343.75627,215.30169)" />
    <path
       style="fill:#808080"
       id="path2164-3"
       transform="matrix(-0.19538897,0,0,-0.13761195,515.42654,292.64885)"
       d="M 994.47663,611.92722 790.35813,610.52634 586.23963,609.12546 689.51208,433.05409 792.78453,256.98272 893.63058,434.45497 Z" />
  </g>
</svg>
