<?xml version="1.0" encoding="UTF-8" standalone="no"?>
<!-- Created with Inkscape (http://www.inkscape.org/) -->

<svg
   width="166.43065mm"
   height="166.68336mm"
   viewBox="0 0 166.43065 166.68337"
   version="1.1"
   id="svg16"
   xmlns="http://www.w3.org/2000/svg"
   xmlns:svg="http://www.w3.org/2000/svg">
  <defs
     id="defs13" />
  <g
     id="layer1"
     transform="translate(-16.580314,5.4628998)">
    <path
       id="rect2163"
       style="fill:#999999;stroke-width:0.264583"
       d="m 33.195838,85.655576 c -9.205032,0 -16.615524,7.410492 -16.615524,16.615524 v 42.33385 c 0,9.20503 7.410492,16.61552 16.615524,16.61552 h 42.333848 c 9.205034,0 16.615522,-7.41049 16.615522,-16.61552 V 102.2711 c 0,-9.205032 -7.410488,-16.615524 -16.615522,-16.615524 z m 3.699515,6.602698 h 34.935334 c 7.596299,0 13.711821,6.115526 13.711821,13.711826 v 34.93533 c 0,7.5963 -6.115522,13.71183 -13.711821,13.71183 H 36.895353 c -7.596299,0 -13.711825,-6.11553 -13.711825,-13.71183 V 105.9701 c 0,-7.5963 6.115526,-13.711826 13.711825,-13.711826 z" />
    <rect
       style="fill:#999999;stroke-width:0.230602"
       id="rect2393"
       width="74.560242"
       height="74.560242"
       x="107.8968"
       y="86.157906"
       ry="11.950693" />
    <path
       id="rect2163-2"
       style="fill:#999999;stroke-width:0.264583"
       d="m 166.43598,70.101815 c 9.20501,-0.0225 16.5974,-7.45102 16.57493,-16.65602 l -0.1033,-42.333723 c -0.0225,-9.2049998 -7.45102,-16.5973837 -16.65602,-16.5749207 l -42.33373,0.103305 c -9.205,0.02246 -16.59739,7.4510149 -16.57492,16.6560137 l 0.1033,42.333725 c 0.0225,9.205 7.45101,16.59739 16.65602,16.57492 z m -3.71561,-6.59365 -34.93523,0.0853 c -7.59628,0.0185 -13.72671,-6.08205 -13.74524,-13.67833 L 113.9546,14.979907 C 113.9361,7.3836305 120.03664,1.2532072 127.63292,1.2346702 l 34.93523,-0.08525 c 7.59627,-0.01854 13.7267,6.0820396 13.74524,13.6783158 l 0.0853,34.93523 c 0.0185,7.59628 -6.08205,13.72671 -13.67832,13.74525 z" />
    <rect
       style="fill:#999999;stroke-width:0.230602"
       id="rect2393-9"
       width="74.560242"
       height="74.560242"
       x="-91.563683"
       y="-69.783821"
       ry="11.950693"
       transform="rotate(179.86018)" />
  </g>
</svg>
