<?xml version="1.0" encoding="UTF-8" standalone="no"?>
<!-- Created with Inkscape (http://www.inkscape.org/) -->

<svg
   width="134.2915mm"
   height="134.29231mm"
   viewBox="0 0 134.2915 134.29231"
   version="1.1"
   id="svg5"
   xmlns="http://www.w3.org/2000/svg"
   xmlns:svg="http://www.w3.org/2000/svg">
  <defs
     id="defs2" />
  <g
     id="layer1"
     transform="translate(-40.922128,-30.50094)">
    <path
       id="path31"
       style="fill:#808080;stroke-width:0.423392"
       d="M 108.06788,30.50094 A 67.146044,67.146044 0 0 0 40.922128,97.646692 67.146044,67.146044 0 0 0 108.06788,164.79325 67.146044,67.146044 0 0 0 175.21363,97.646692 67.146044,67.146044 0 0 0 108.06788,30.50094 Z m 0,6.189177 A 60.956571,60.956571 0 0 1 169.02406,97.646692 60.956571,60.956571 0 0 1 108.06788,158.60367 60.956571,60.956571 0 0 1 47.111306,97.646692 60.956571,60.956571 0 0 1 108.06788,36.690117 Z" />
    <path
       id="rect643"
       style="fill:#808080;stroke-width:0.264583"
       d="M 65.514922,64.902583 V 105.82618 H 82.693717 V 64.902583 Z m 24.01507,0 V 105.82618 H 150.62084 V 64.902583 Z m -24.01507,48.601687 v 16.88734 h 17.178795 v -16.88734 z m 24.01507,0 v 16.88734 h 61.090848 v -16.88734 z" />
  </g>
</svg>
