<?xml version="1.0" encoding="UTF-8" standalone="no"?>
<!-- Created with Inkscape (http://www.inkscape.org/) -->

<svg
   width="14.333661mm"
   height="14.333661mm"
   viewBox="0 0 14.333661 14.333661"
   version="1.1"
   id="svg5"
   xmlns="http://www.w3.org/2000/svg"
   xmlns:svg="http://www.w3.org/2000/svg">
  <defs
     id="defs2" />
  <path
     id="path1398"
     style="fill:#ff0000;stroke-width:4.53543;fill-opacity:1"
     d="M 27.087891 0 A 27.087234 27.087234 0 0 0 0 27.087891 A 27.087234 27.087234 0 0 0 27.087891 54.173828 A 27.087234 27.087234 0 0 0 54.173828 27.087891 A 27.087234 27.087234 0 0 0 27.087891 0 z M 27.087891 13.582031 A 13.50578 13.50578 0 0 1 40.59375 27.087891 A 13.50578 13.50578 0 0 1 27.087891 40.59375 A 13.50578 13.50578 0 0 1 13.582031 27.087891 A 13.50578 13.50578 0 0 1 27.087891 13.582031 z "
     transform="scale(0.26458333)" />
</svg>
