<?xml version="1.0" encoding="UTF-8" standalone="no"?>
<svg
   xmlns:dc="http://purl.org/dc/elements/1.1/"
   xmlns:cc="http://creativecommons.org/ns#"
   xmlns:rdf="http://www.w3.org/1999/02/22-rdf-syntax-ns#"
   xmlns:svg="http://www.w3.org/2000/svg"
   xmlns="http://www.w3.org/2000/svg"
   xmlns:sodipodi="http://sodipodi.sourceforge.net/DTD/sodipodi-0.dtd"
   xmlns:inkscape="http://www.inkscape.org/namespaces/inkscape"
   width="102.92426mm"
   height="102.92426mm"
   viewBox="0 0 102.92426 102.92426"
   version="1.1"
   id="svg8"
   sodipodi:docname="budgie-wsw-symbolic.svg"
   inkscape:version="0.92.2 (5c3e80d, 2017-08-06)">
  <sodipodi:namedview
     pagecolor="#ffffff"
     bordercolor="#666666"
     borderopacity="1"
     objecttolerance="10"
     gridtolerance="10"
     guidetolerance="10"
     inkscape:pageopacity="0"
     inkscape:pageshadow="2"
     inkscape:window-width="1630"
     inkscape:window-height="988"
     id="namedview15"
     showgrid="false"
     inkscape:zoom="0.85796924"
     inkscape:cx="61.30902"
     inkscape:cy="124.89238"
     inkscape:window-x="50"
     inkscape:window-y="34"
     inkscape:window-maximized="1"
     inkscape:current-layer="svg8" />
  <defs
     id="defs2" />
  <metadata
     id="metadata5">
    <rdf:RDF>
      <cc:Work
         rdf:about="">
        <dc:format>image/svg+xml</dc:format>
        <dc:type
           rdf:resource="http://purl.org/dc/dcmitype/StillImage" />
        <dc:title />
      </cc:Work>
    </rdf:RDF>
  </metadata>
  <path
     d=""
     cx="66.683746"
     cy="81.714394"
     rx="8.9535294"
     ry="14.03165"
     id="path4485-3"
     style="fill:#ececec;fill-opacity:1;stroke:#000000;stroke-width:0.26458332;stroke-miterlimit:4.0999999;stroke-dasharray:none;stroke-opacity:1" />
  <path
     style="fill:#d3dae3;fill-opacity:1;stroke:none;stroke-width:17.07361412;stroke-miterlimit:4;stroke-dasharray:none;stroke-opacity:1"
     id="path827"
     sodipodi:type="arc"
     sodipodi:cx="51.680191"
     sodipodi:cy="22.024042"
     sodipodi:rx="8.2862749"
     sodipodi:ry="19.407328"
     sodipodi:start="0"
     sodipodi:end="6.2820508"
     sodipodi:open="true"
     d="M 59.966466,22.024042 A 8.2862749,19.407328 0 0 1 51.682541,41.431369 8.2862749,19.407328 0 0 1 43.393917,22.035051 8.2862749,19.407328 0 0 1 51.67314,2.6167215 8.2862749,19.407328 0 0 1 59.966461,22.002024" />
  <path
     style="fill:#d3dae3;fill-opacity:1;stroke:none;stroke-width:17.07361412;stroke-miterlimit:4;stroke-dasharray:none;stroke-opacity:1"
     id="path827-3"
     sodipodi:type="arc"
     sodipodi:cx="51.680191"
     sodipodi:cy="81.118271"
     sodipodi:rx="8.2862749"
     sodipodi:ry="19.407328"
     sodipodi:start="0"
     sodipodi:end="6.2820508"
     sodipodi:open="true"
     d="M 59.966466,81.118271 A 8.2862749,19.407328 0 0 1 51.682541,100.5256 8.2862749,19.407328 0 0 1 43.393917,81.12928 8.2862749,19.407328 0 0 1 51.67314,61.71095 8.2862749,19.407328 0 0 1 59.966461,81.096253" />
  <path
     style="fill:#d3dae3;fill-opacity:1;stroke:none;stroke-width:18.00727654;stroke-miterlimit:4;stroke-dasharray:none;stroke-opacity:1"
     id="path844"
     sodipodi:type="arc"
     sodipodi:cx="51.680191"
     sodipodi:cy="51.571156"
     sodipodi:rx="7.1959758"
     sodipodi:ry="7.1959758"
     sodipodi:start="0"
     sodipodi:end="6.2820508"
     sodipodi:open="true"
     d="m 58.876167,51.571156 a 7.1959758,7.1959758 0 0 1 -7.193935,7.195975 7.1959758,7.1959758 0 0 1 -7.198016,-7.191894 7.1959758,7.1959758 0 0 1 7.189852,-7.200055 7.1959758,7.1959758 0 0 1 7.202094,7.18781" />
  <path
     style="fill:#d3dae3;fill-opacity:1;stroke:none;stroke-width:17.07361412;stroke-miterlimit:4;stroke-dasharray:none;stroke-opacity:1"
     id="path827-0"
     sodipodi:type="arc"
     sodipodi:cx="0.85935163"
     sodipodi:cy="42.857147"
     sodipodi:rx="8.2862749"
     sodipodi:ry="19.407328"
     sodipodi:start="0"
     sodipodi:end="6.2820508"
     sodipodi:open="true"
     d="M 9.1456265,42.857147 A 8.2862749,19.407328 0 0 1 0.86170184,62.264474 8.2862749,19.407328 0 0 1 -7.4269219,42.868156 8.2862749,19.407328 0 0 1 0.85230101,23.449827 8.2862749,19.407328 0 0 1 9.1456212,42.835129"
     transform="rotate(-45)" />
  <path
     style="fill:#d3dae3;fill-opacity:1;stroke:none;stroke-width:17.07361412;stroke-miterlimit:4;stroke-dasharray:none;stroke-opacity:1"
     id="path827-3-4"
     sodipodi:type="arc"
     sodipodi:cx="0.85935163"
     sodipodi:cy="101.95139"
     sodipodi:rx="8.2862749"
     sodipodi:ry="19.407328"
     sodipodi:start="0"
     sodipodi:end="6.2820508"
     sodipodi:open="true"
     d="M 9.1456265,101.95139 A 8.2862749,19.407328 0 0 1 0.86170184,121.35872 8.2862749,19.407328 0 0 1 -7.4269219,101.9624 8.2862749,19.407328 0 0 1 0.85230101,82.544073 8.2862749,19.407328 0 0 1 9.1456212,101.92938"
     transform="rotate(-45)" />
  <path
     style="fill:#d3dae3;fill-opacity:1;stroke:none;stroke-width:17.07361412;stroke-miterlimit:4;stroke-dasharray:none;stroke-opacity:1"
     id="path827-6"
     sodipodi:type="arc"
     sodipodi:cx="-50.58989"
     sodipodi:cy="22.351145"
     sodipodi:rx="8.2862749"
     sodipodi:ry="19.407328"
     sodipodi:start="0"
     sodipodi:end="6.2820508"
     sodipodi:open="true"
     d="m -42.303615,22.351145 a 8.2862749,19.407328 0 0 1 -8.283924,19.407327 8.2862749,19.407328 0 0 1 -8.288624,-19.396318 8.2862749,19.407328 0 0 1 8.279223,-19.4183298 8.2862749,19.407328 0 0 1 8.29332,19.3853028"
     transform="rotate(-90)" />
  <path
     style="fill:#d3dae3;fill-opacity:1;stroke:none;stroke-width:17.07361412;stroke-miterlimit:4;stroke-dasharray:none;stroke-opacity:1"
     id="path827-3-2"
     sodipodi:type="arc"
     sodipodi:cx="-50.58989"
     sodipodi:cy="81.445366"
     sodipodi:rx="8.2862749"
     sodipodi:ry="19.407328"
     sodipodi:start="0"
     sodipodi:end="6.2820508"
     sodipodi:open="true"
     d="m -42.303615,81.445366 a 8.2862749,19.407328 0 0 1 -8.283924,19.407324 8.2862749,19.407328 0 0 1 -8.288624,-19.396315 8.2862749,19.407328 0 0 1 8.279223,-19.41833 8.2862749,19.407328 0 0 1 8.29332,19.385303"
     transform="rotate(-90)" />
  <path
     style="fill:#d3dae3;fill-opacity:1;stroke:none;stroke-width:17.07361412;stroke-miterlimit:4;stroke-dasharray:none;stroke-opacity:1"
     id="path827-67"
     sodipodi:type="arc"
     sodipodi:cx="72.654556"
     sodipodi:cy="-29.818729"
     sodipodi:rx="8.2862749"
     sodipodi:ry="19.407328"
     sodipodi:start="0"
     sodipodi:end="6.2820508"
     sodipodi:open="true"
     d="m 80.940831,-29.818729 a 8.2862749,19.407328 0 0 1 -8.283925,19.407326 8.2862749,19.407328 0 0 1 -8.288623,-19.396318 8.2862749,19.407328 0 0 1 8.279223,-19.418329 8.2862749,19.407328 0 0 1 8.29332,19.385303"
     transform="rotate(45)" />
  <path
     style="fill:#d3dae3;fill-opacity:1;stroke:none;stroke-width:17.07361412;stroke-miterlimit:4;stroke-dasharray:none;stroke-opacity:1"
     id="path827-3-5"
     sodipodi:type="arc"
     sodipodi:cx="72.654556"
     sodipodi:cy="29.275501"
     sodipodi:rx="8.2862749"
     sodipodi:ry="19.407328"
     sodipodi:start="0"
     sodipodi:end="6.2820508"
     sodipodi:open="true"
     d="M 80.940831,29.275501 A 8.2862749,19.407328 0 0 1 72.656906,48.682828 8.2862749,19.407328 0 0 1 64.368283,29.28651 8.2862749,19.407328 0 0 1 72.647506,9.8681806 8.2862749,19.407328 0 0 1 80.940826,29.253484"
     transform="rotate(45)" />
</svg>
