<?xml version="1.0" encoding="iso-8859-1"?>
<!-- Generator: Adobe Illustrator 16.0.0, SVG Export Plug-In . SVG Version: 6.00 Build 0)  -->
<!DOCTYPE svg PUBLIC "-//W3C//DTD SVG 1.1//EN" "http://www.w3.org/Graphics/SVG/1.1/DTD/svg11.dtd">
<svg xmlns="http://www.w3.org/2000/svg" xmlns:xlink="http://www.w3.org/1999/xlink" version="1.1" id="Capa_1" x="0px" y="0px" width="512px" height="512px" viewBox="0 0 612 612" style="enable-background:new 0 0 612 612;" xml:space="preserve">
<g>
	<g id="screen-rotation">
		<path d="M419.475,63.75c84.15,38.25,142.8,119.85,153,216.75h38.25C595.425,122.4,465.375,0,304.725,0c-5.1,0-10.2,0-17.85,0    l96.9,96.9L419.475,63.75z M258.825,43.35c-15.3-15.3-38.25-15.3-53.55,0l-163.2,163.2c-15.3,15.3-15.3,38.25,0,53.55l306,306    c15.301,15.301,38.25,15.301,53.551,0L564.825,402.9c15.301-15.301,15.301-38.25,0-53.551L258.825,43.35z M376.125,540.6l-306-306    l163.2-163.2l306,306L376.125,540.6z M189.975,548.25c-84.15-38.25-142.8-119.85-153-216.75h-35.7    c12.75,158.1,142.8,280.5,303.45,280.5c5.1,0,10.2,0,17.85,0l-96.899-96.9L189.975,548.25z" fill="#FFFFFF"/>
	</g>
</g>
<g>
</g>
<g>
</g>
<g>
</g>
<g>
</g>
<g>
</g>
<g>
</g>
<g>
</g>
<g>
</g>
<g>
</g>
<g>
</g>
<g>
</g>
<g>
</g>
<g>
</g>
<g>
</g>
<g>
</g>
</svg>
