<?xml version="1.0" encoding="iso-8859-1"?>
<!-- Generator: Adobe Illustrator 16.0.0, SVG Export Plug-In . SVG Version: 6.00 Build 0)  -->
<!DOCTYPE svg PUBLIC "-//W3C//DTD SVG 1.1//EN" "http://www.w3.org/Graphics/SVG/1.1/DTD/svg11.dtd">
<svg xmlns="http://www.w3.org/2000/svg" xmlns:xlink="http://www.w3.org/1999/xlink" version="1.1" id="Capa_1" x="0px" y="0px" width="512px" height="512px" viewBox="0 0 586.5 586.5" style="enable-background:new 0 0 586.5 586.5;" xml:space="preserve">
<g>
	<g id="screen-lock-rotation">
		<path d="M572.942,326.4l-66.301-66.3l-35.699,35.7l56.1,56.101l-145.35,145.35L93.542,209.1l145.35-145.35l53.55,53.55    l35.699-35.7l-61.2-61.2c-15.3-15.3-38.25-15.3-53.55,0L47.642,181.05c-15.3,15.3-15.3,38.25,0,53.55l306,306    c15.301,15.301,38.25,15.301,53.551,0L570.392,377.4C585.692,364.65,585.692,341.7,572.942,326.4z M195.542,522.75    c-84.15-38.25-142.8-119.85-153-216.75H4.292c12.75,158.1,145.35,280.5,303.45,280.5c5.1,0,10.2,0,17.85,0l-96.9-96.9    L195.542,522.75z M386.792,229.5h127.5c15.3,0,25.5-10.2,25.5-25.5V102c0-15.3-10.2-25.5-25.5-25.5V63.75    c0-35.7-28.05-63.75-63.75-63.75s-63.75,28.05-63.75,63.75V76.5c-15.3,0-25.5,10.2-25.5,25.5v102    C361.292,219.3,371.492,229.5,386.792,229.5z M407.192,63.75c0-22.95,20.399-43.35,43.35-43.35s43.35,20.4,43.35,43.35V76.5    h-86.699V63.75L407.192,63.75z" fill="#FFFFFF"/>
	</g>
</g>
<g>
</g>
<g>
</g>
<g>
</g>
<g>
</g>
<g>
</g>
<g>
</g>
<g>
</g>
<g>
</g>
<g>
</g>
<g>
</g>
<g>
</g>
<g>
</g>
<g>
</g>
<g>
</g>
<g>
</g>
</svg>
