<?xml version="1.0" encoding="UTF-8" standalone="no"?>
<svg
   xmlns:dc="http://purl.org/dc/elements/1.1/"
   xmlns:cc="http://creativecommons.org/ns#"
   xmlns:rdf="http://www.w3.org/1999/02/22-rdf-syntax-ns#"
   xmlns:svg="http://www.w3.org/2000/svg"
   xmlns="http://www.w3.org/2000/svg"
   xmlns:sodipodi="http://sodipodi.sourceforge.net/DTD/sodipodi-0.dtd"
   xmlns:inkscape="http://www.inkscape.org/namespaces/inkscape"
   id="svg8"
   version="1.1"
   viewBox="0 0 44 44"
   height="44mm"
   width="44mm"
   sodipodi:docname="wallstreet-control.svg"
   inkscape:version="0.92.4 (5da689c313, 2019-01-14)">
  <sodipodi:namedview
     pagecolor="#ffffff"
     bordercolor="#666666"
     borderopacity="1"
     objecttolerance="10"
     gridtolerance="10"
     guidetolerance="10"
     inkscape:pageopacity="0"
     inkscape:pageshadow="2"
     inkscape:window-width="1920"
     inkscape:window-height="958"
     id="namedview13"
     showgrid="false"
     inkscape:zoom="0.54080573"
     inkscape:cx="72.739129"
     inkscape:cy="223.73269"
     inkscape:window-x="0"
     inkscape:window-y="34"
     inkscape:window-maximized="1"
     inkscape:current-layer="svg8" />
  <defs
     id="defs2" />
  <metadata
     id="metadata5">
    <rdf:RDF>
      <cc:Work
         rdf:about="">
        <dc:format>image/svg+xml</dc:format>
        <dc:type
           rdf:resource="http://purl.org/dc/dcmitype/StillImage" />
        <dc:title />
      </cc:Work>
    </rdf:RDF>
  </metadata>
  <rect
     id="rect3713"
     width="40.82143"
     height="40.82143"
     x="1.5875002"
     y="1.7640417"
     style="fill:#b3b3b3;stroke:none;stroke-width:0.26458332;stroke-opacity:1"
     ry="9.0714283" />
  <rect
     style="fill:#f9f9f9;stroke:none;stroke-width:0.26458332;stroke-opacity:1"
     id="rect4646"
     width="13.157658"
     height="13.157658"
     x="0.477139"
     y="13.612215"
     transform="rotate(-16.710609)" />
  <rect
     style="display:inline;fill:#f2f2f2;stroke:none;stroke-width:0.26458332;stroke-opacity:1"
     id="rect4646-9"
     width="13.157658"
     height="13.157658"
     x="15.75147"
     y="13.612215"
     transform="rotate(-16.710609)" />
  <rect
     style="display:inline;fill:#ececec;stroke:none;stroke-width:0.26458332;stroke-opacity:1"
     id="rect4646-1"
     width="13.157658"
     height="13.157658"
     x="0.477139"
     y="28.35737"
     transform="rotate(-16.710609)" />
  <rect
     style="display:inline;fill:#f2f2f2;stroke:none;stroke-width:0.26458332;stroke-opacity:1"
     id="rect4646-9-2"
     width="13.157658"
     height="13.157658"
     x="15.75147"
     y="28.35737"
     transform="rotate(-16.710609)" />
  <path
     inkscape:connector-curvature="0"
     style="fill:#a9a9a9;stroke:none;stroke-width:0.26458332;stroke-opacity:1"
     d="m 20.2947,15.095732 a 7.2812885,7.2812885 0 0 0 -3.881167,2.420626 l 2.689079,1.597487 a 4.2190312,4.2190312 0 0 1 1.908446,-1.041264 4.2190312,4.2190312 0 0 1 5.088954,3.11521 4.2190312,4.2190312 0 0 1 -3.114709,5.088837 4.2190312,4.2190312 0 0 1 -5.088833,-3.114713 4.2190312,4.2190312 0 0 1 0.123395,-2.378466 l -2.663022,-1.581965 a 7.2812885,7.2812885 0 0 0 -0.437724,4.676909 7.2812885,7.2812885 0 0 0 8.782661,5.375575 7.2812885,7.2812885 0 0 0 5.375584,-8.782655 7.2812885,7.2812885 0 0 0 -8.782664,-5.375581 z"
     id="path4687" />
</svg>
