<?xml version="1.0" encoding="UTF-8"?>
<!DOCTYPE svg PUBLIC "-//W3C//DTD SVG 1.1//EN" "http://www.w3.org/Graphics/SVG/1.1/DTD/svg11.dtd">
<svg xmlns="http://www.w3.org/2000/svg" xmlns:xlink="http://www.w3.org/1999/xlink" version="1.1" preserveAspectRatio="xMidYMid meet" viewBox="0 0 16 16" width="16" height="16">
   <defs>
      <path d="M14.88 1.48L15.28 2.34L15.21 3.52L14.78 4.9L14.08 6.37L13.21 7.81L12.27 9.1L11.34 10.14L10.97 10.44L11.04 11.3L10.64 12.71L9.92 14.08L9.08 14.95L8.37 14.93L7.83 14.17L7.41 13.12L7.08 12.36L6.92 12.4L5.82 12.45L4.85 12.24L4.08 11.74L3.59 10.95L3.4 9.98L3.47 8.88L3.5 8.79L3.42 8.75L2.52 8.34L1.48 7.9L0.74 7.35L0.72 6.63L1.62 5.81L2.99 5.12L4.42 4.74L5.44 4.85L5.48 4.91L5.82 4.51L6.9 3.62L8.26 2.75L9.78 1.98L11.33 1.38L12.78 1.05L14.01 1.05L14.88 1.48ZM2.56 12.18L2.81 13.05L3.69 13.31L4.71 13.05L5.42 12.76L5.38 12.92L4.93 13.31L4.35 13.72L3.7 14.08L3.03 14.32L2.64 14.4L2.22 14.47L1.83 14.45L1.53 14.29L1.36 13.95L1.36 13.52L1.46 13.06L1.6 12.63L1.86 12.06L2.21 11.52L2.59 11.04L2.95 10.65L3.12 10.58L2.83 11.23L2.56 12.18ZM10.69 3.31L10.34 3.81L10.23 4.39L10.33 4.97L10.66 5.48L11.17 5.83L11.75 5.94L12.33 5.84L12.84 5.51L13.18 5L13.3 4.42L13.19 3.84L12.86 3.33L12.36 2.99L11.78 2.87L11.2 2.98L10.69 3.31Z" id="eWDyL0EUD" />
   </defs>
   <g>
      <g>
         <g>
            <use xlink:href="#eWDyL0EUD" opacity="1" fill="param(fill) #2a2a2a" fill-opacity="param(fill-opacity) 1" />
         </g>
      </g>
   </g>
</svg>
