<?xml version="1.0" encoding="UTF-8" standalone="no"?>
<svg
   viewBox="0 0 79.374 79.374"
   version="1.1"
   id="svg22"
   sodipodi:docname="500n-light-rain.svg"
   width="300"
   height="300"
   inkscape:version="1.1.2 (0a00cf5339, 2022-02-04)"
   xmlns:inkscape="http://www.inkscape.org/namespaces/inkscape"
   xmlns:sodipodi="http://sodipodi.sourceforge.net/DTD/sodipodi-0.dtd"
   xmlns="http://www.w3.org/2000/svg"
   xmlns:svg="http://www.w3.org/2000/svg">
  <sodipodi:namedview
     id="namedview24"
     pagecolor="#ffffff"
     bordercolor="#666666"
     borderopacity="1.0"
     inkscape:pageshadow="2"
     inkscape:pageopacity="0.0"
     inkscape:pagecheckerboard="0"
     showgrid="false"
     inkscape:zoom="2.2953349"
     inkscape:cx="93.232582"
     inkscape:cy="157.05769"
     inkscape:window-width="1557"
     inkscape:window-height="750"
     inkscape:window-x="557"
     inkscape:window-y="200"
     inkscape:window-maximized="0"
     inkscape:current-layer="svg22"
     width="300px" />
  <defs
     id="defs16">
    <linearGradient
       id="a"
       x1="40.759998"
       y1="23"
       x2="50.830002"
       y2="40.459999"
       gradientUnits="userSpaceOnUse">
      <stop
         offset="0"
         stop-color="#9ca3af"
         id="stop2" />
      <stop
         offset="0.45"
         stop-color="#9ca3af"
         id="stop4" />
      <stop
         offset="1"
         stop-color="#6b7280"
         id="stop6" />
    </linearGradient>
    <linearGradient
       id="b"
       x1="22.559999"
       y1="21.959999"
       x2="39.200001"
       y2="50.799999"
       gradientUnits="userSpaceOnUse">
      <stop
         offset="0"
         stop-color="#f3f7fe"
         id="stop9" />
      <stop
         offset="0.45"
         stop-color="#f3f7fe"
         id="stop11" />
      <stop
         offset="1"
         stop-color="#deeafb"
         id="stop13" />
    </linearGradient>
    <linearGradient
       id="b-3"
       x1="26.74"
       x2="35.759998"
       y1="37.880001"
       y2="53.52"
       gradientUnits="userSpaceOnUse"
       gradientTransform="translate(0.2131037,-1.7615625)">
      <stop
         offset="0"
         stop-color="#f7b23b"
         id="stop9-6" />
      <stop
         offset=".45"
         stop-color="#f7b23b"
         id="stop11-7" />
      <stop
         offset="1"
         stop-color="#f59e0b"
         id="stop13-5" />
    </linearGradient>
  </defs>
  <path
     d="m 46.5,31.5 h -0.32 a 10.49,10.49 0 0 0 -19.11,-8 7,7 0 0 0 -10.57,6 7.21,7.21 0 0 0 0.1,1.14 7.5,7.5 0 0 0 1.4,14.86 4.19,4.19 0 0 0 0.5,0 v 0 h 28 a 7,7 0 0 0 0,-14 z"
     stroke="#e6effc"
     stroke-miterlimit="10"
     stroke-width="0.5"
     fill="url(#b)"
     id="path20" />
  <rect
     style="fill:#5f8dd3;stroke-width:0.151555"
     id="rect400-3-0-2"
     width="8.1417284"
     height="1.5544933"
     x="36.258915"
     y="-55.404804"
     ry="0.77724665"
     transform="matrix(-0.42123037,0.90695368,-0.96162398,-0.27437077,0,0)" />
  <rect
     style="fill:#5f8dd3;stroke-width:0.147395"
     id="rect400-3-0-2-1"
     width="7.7354646"
     height="1.5475562"
     x="40.241055"
     y="-40.397316"
     ry="0.77377808"
     transform="matrix(-0.44335322,0.89634699,-0.96593462,-0.25878623,0,0)" />
  <rect
     style="fill:#5f8dd3;stroke-width:0.147395"
     id="rect400-3-0-2-1-1"
     width="7.7354646"
     height="1.5475562"
     x="41.172764"
     y="-45.034389"
     ry="0.77377808"
     transform="matrix(-0.44335322,0.89634699,-0.96593462,-0.25878623,0,0)" />
  <rect
     style="fill:#5f8dd3;stroke-width:0.147395"
     id="rect400-3-0-2-8"
     width="7.7354646"
     height="1.5475562"
     x="33.431931"
     y="-64.74929"
     ry="0.77377808"
     transform="matrix(-0.44335322,0.89634699,-0.96593462,-0.25878623,0,0)" />
  <rect
     style="fill:#5f8dd3;stroke-width:0.147395"
     id="rect400-3-0-2-7"
     width="7.7354646"
     height="1.5475562"
     x="34.807007"
     y="-60.303291"
     ry="0.77377808"
     transform="matrix(-0.44335322,0.89634699,-0.96593462,-0.25878623,0,0)" />
  <path
     fill="url(#b)"
     stroke="#f6a823"
     stroke-miterlimit="10"
     stroke-width="0.5"
     d="m 30.213104,34.238436 -4,12 h 4 l -2,10 10,-14 h -6 l 4,-8 z"
     id="path20-3"
     style="fill:url(#b-3)">
  </path>
  <rect
     style="fill:#5f8dd3;stroke-width:0.147395"
     id="rect400-3-0-2-1-5"
     width="7.7354646"
     height="1.5475562"
     x="41.556156"
     y="-35.66629"
     ry="0.77377808"
     transform="matrix(-0.44335322,0.89634699,-0.96593462,-0.25878623,0,0)" />
</svg>
