<?xml version="1.0" encoding="UTF-8" standalone="no"?>
<svg
   viewBox="0 0 79.374 79.374"
   version="1.1"
   id="svg22"
   sodipodi:docname="thunderstorms.svg"
   width="300"
   height="300"
   inkscape:version="1.1.2 (0a00cf5339, 2022-02-04)"
   xmlns:inkscape="http://www.inkscape.org/namespaces/inkscape"
   xmlns:sodipodi="http://sodipodi.sourceforge.net/DTD/sodipodi-0.dtd"
   xmlns:xlink="http://www.w3.org/1999/xlink"
   xmlns="http://www.w3.org/2000/svg"
   xmlns:svg="http://www.w3.org/2000/svg">
  <sodipodi:namedview
     id="namedview24"
     pagecolor="#ffffff"
     bordercolor="#666666"
     borderopacity="1.0"
     inkscape:pageshadow="2"
     inkscape:pageopacity="0.0"
     inkscape:pagecheckerboard="0"
     showgrid="false"
     inkscape:zoom="3.2460938"
     inkscape:cx="134.93141"
     inkscape:cy="138.01203"
     inkscape:window-width="1920"
     inkscape:window-height="1012"
     inkscape:window-x="0"
     inkscape:window-y="0"
     inkscape:window-maximized="1"
     inkscape:current-layer="svg22" />
  <defs
     id="defs16">
    <linearGradient
       id="a"
       x1="22.559999"
       x2="39.200001"
       y1="21.959999"
       y2="50.799999"
       gradientUnits="userSpaceOnUse"
       gradientTransform="translate(7.5,2.5)"
       xlink:href="#b">
      <stop
         offset="0"
         stop-color="#f3f7fe"
         id="stop2" />
      <stop
         offset=".45"
         stop-color="#f3f7fe"
         id="stop4" />
      <stop
         offset="1"
         stop-color="#deeafb"
         id="stop6" />
    </linearGradient>
    <linearGradient
       id="b"
       x1="26.74"
       x2="35.759998"
       y1="37.880001"
       y2="53.52"
       gradientUnits="userSpaceOnUse"
       gradientTransform="translate(8.0297523,-0.51443458)">
      <stop
         offset="0"
         stop-color="#f7b23b"
         id="stop9" />
      <stop
         offset=".45"
         stop-color="#f7b23b"
         id="stop11" />
      <stop
         offset="1"
         stop-color="#f59e0b"
         id="stop13" />
    </linearGradient>
    <linearGradient
       id="a-3"
       x1="40.759998"
       y1="23"
       x2="50.830002"
       y2="40.459999"
       gradientUnits="userSpaceOnUse"
       gradientTransform="translate(-16.540032,37.612942)"
       xlink:href="#a">
      <stop
         offset="0"
         stop-color="#9ca3af"
         id="stop2-6" />
      <stop
         offset="0.45"
         stop-color="#9ca3af"
         id="stop4-7" />
      <stop
         offset="1"
         stop-color="#6b7280"
         id="stop6-5" />
    </linearGradient>
  </defs>
  <path
     fill="url(#a)"
     stroke="#e6effc"
     stroke-miterlimit="10"
     stroke-width="0.5"
     d="M 54,34 H 53.68 A 10.49,10.49 0 0 0 34.57,26 7,7 0 0 0 24,32 7.21,7.21 0 0 0 24.1,33.14 7.5,7.5 0 0 0 25.5,48 4.19,4.19 0 0 0 26,48 v 0 h 28 a 7,7 0 0 0 0,-14 z"
     id="path18"
     style="fill:#9ca3af;fill-opacity:1;stroke:#848b98;stroke-opacity:1" />
  <path
     fill="url(#b)"
     stroke="#f6a823"
     stroke-miterlimit="10"
     stroke-width="0.5"
     d="m 38.029752,35.485565 -4,12 h 4 l -2,10 10,-14 h -6 l 4,-8 z"
     id="path20"
     style="fill:url(#b)">
    <animate
       attributeName="opacity"
       dur="2s"
       repeatCount="indefinite"
       values="1; 1; 1; 1; 1; 1; 0.1; 1; 0.1; 1; 1; 0.1; 1; 0.1; 1" />
  </path>
  <rect
     style="fill:#5f8dd3;stroke-width:0.147395"
     id="rect400-3-0-2-1-5"
     width="7.7354646"
     height="1.5475562"
     x="42.356251"
     y="-45.170319"
     ry="0.77377808"
     transform="matrix(-0.44335322,0.89634699,-0.96593462,-0.25878623,0,0)" />
  <rect
     style="fill:#5f8dd3;stroke-width:0.147395"
     id="rect400-3-0-2-1"
     width="7.7354646"
     height="1.5475562"
     x="40.618084"
     y="-49.033493"
     ry="0.77377808"
     transform="matrix(-0.44335322,0.89634699,-0.96593462,-0.25878623,0,0)" />
  <rect
     style="fill:#5f8dd3;stroke-width:0.147395"
     id="rect400-3-0-2-1-1"
     width="7.7354646"
     height="1.5475562"
     x="40.1954"
     y="-53.822742"
     ry="0.77377808"
     transform="matrix(-0.44335322,0.89634699,-0.96593462,-0.25878623,0,0)" />
  <rect
     style="fill:#5f8dd3;stroke-width:0.151555"
     id="rect400-3-0-2"
     width="8.1417284"
     height="1.5544933"
     x="36.095909"
     y="-64.316254"
     ry="0.77724665"
     transform="matrix(-0.42123037,0.90695368,-0.96162398,-0.27437077,0,0)"
     inkscape:transform-center-x="-2.3302481"
     inkscape:transform-center-y="-3.1046312" />
  <rect
     style="fill:#5f8dd3;stroke-width:0.151555"
     id="rect400-3-0-2-3"
     width="8.1417284"
     height="1.5544933"
     x="34.074219"
     y="-67.677124"
     ry="0.77724665"
     transform="matrix(-0.42123037,0.90695368,-0.96162398,-0.27437077,0,0)"
     inkscape:transform-center-x="-2.3302481"
     inkscape:transform-center-y="-3.1046312" />
  <rect
     style="fill:#5f8dd3;stroke-width:0.151555"
     id="rect400-3-0-2-3-6"
     width="8.1417284"
     height="1.5544933"
     x="32.640366"
     y="-72.016632"
     ry="0.77724665"
     transform="matrix(-0.42123037,0.90695368,-0.96162398,-0.27437077,0,0)"
     inkscape:transform-center-x="-2.3302481"
     inkscape:transform-center-y="-3.1046312" />
</svg>
