<?xml version="1.0" encoding="UTF-8" standalone="no"?>
<svg
   viewBox="0 0 79.374 79.374"
   version="1.1"
   id="svg33"
   sodipodi:docname="202n-thunderstorm-with-heavy-rain.svg"
   inkscape:version="1.1.2 (0a00cf5339, 2022-02-04)"
   width="300"
   height="300"
   xmlns:inkscape="http://www.inkscape.org/namespaces/inkscape"
   xmlns:sodipodi="http://sodipodi.sourceforge.net/DTD/sodipodi-0.dtd"
   xmlns:xlink="http://www.w3.org/1999/xlink"
   xmlns="http://www.w3.org/2000/svg"
   xmlns:svg="http://www.w3.org/2000/svg">
  <sodipodi:namedview
     id="namedview35"
     pagecolor="#ffffff"
     bordercolor="#666666"
     borderopacity="1.0"
     inkscape:pageshadow="2"
     inkscape:pageopacity="0.0"
     inkscape:pagecheckerboard="0"
     showgrid="false"
     inkscape:zoom="1.6230469"
     inkscape:cx="47.749698"
     inkscape:cy="172.8231"
     inkscape:window-width="1557"
     inkscape:window-height="750"
     inkscape:window-x="67"
     inkscape:window-y="270"
     inkscape:window-maximized="0"
     inkscape:current-layer="svg33" />
  <defs
     id="defs23">
    <linearGradient
       id="a"
       x1="16.5"
       y1="19.67"
       x2="21.5"
       y2="28.33"
       gradientUnits="userSpaceOnUse"
       gradientTransform="translate(8.29,-0.75)">
      <stop
         offset="0"
         stop-color="#fbbf24"
         id="stop2" />
      <stop
         offset="0.45"
         stop-color="#fbbf24"
         id="stop4" />
      <stop
         offset="1"
         stop-color="#f59e0b"
         id="stop6" />
    </linearGradient>
    <linearGradient
       id="b"
       x1="40.759998"
       y1="23"
       x2="50.830002"
       y2="40.459999"
       gradientUnits="userSpaceOnUse">
      <stop
         offset="0"
         stop-color="#9ca3af"
         id="stop9" />
      <stop
         offset="0.45"
         stop-color="#9ca3af"
         id="stop11" />
      <stop
         offset="1"
         stop-color="#6b7280"
         id="stop13" />
    </linearGradient>
    <linearGradient
       id="c"
       x1="22.559999"
       y1="21.959999"
       x2="39.200001"
       y2="50.799999"
       gradientUnits="userSpaceOnUse"
       gradientTransform="translate(8.29,-0.75)"
       xlink:href="#b">
      <stop
         offset="0"
         stop-color="#f3f7fe"
         id="stop16" />
      <stop
         offset="0.45"
         stop-color="#f3f7fe"
         id="stop18" />
      <stop
         offset="1"
         stop-color="#deeafb"
         id="stop20" />
    </linearGradient>
    <linearGradient
       id="b-3"
       x1="22.559999"
       y1="21.959999"
       x2="39.200001"
       y2="50.799999"
       gradientUnits="userSpaceOnUse"
       gradientTransform="translate(3.0329841)"
       xlink:href="#b">
      <stop
         offset="0"
         stop-color="#f3f7fe"
         id="stop9-6" />
      <stop
         offset="0.45"
         stop-color="#f3f7fe"
         id="stop11-7" />
      <stop
         offset="1"
         stop-color="#deeafb"
         id="stop13-5" />
    </linearGradient>
    <linearGradient
       id="b-6-5"
       x1="23.309999"
       y1="44.299999"
       x2="24.690001"
       y2="46.700001"
       gradientUnits="userSpaceOnUse">
      <stop
         offset="0"
         stop-color="#4286ee"
         id="stop9-7-6" />
      <stop
         offset="0.45"
         stop-color="#4286ee"
         id="stop11-5-2" />
      <stop
         offset="1"
         stop-color="#0950bc"
         id="stop13-3-9" />
    </linearGradient>
    <linearGradient
       inkscape:collect="always"
       xlink:href="#b"
       id="linearGradient1402"
       gradientUnits="userSpaceOnUse"
       x1="40.759998"
       y1="23"
       x2="50.830002"
       y2="40.459999"
       gradientTransform="translate(8.29,-0.75)" />
    <linearGradient
       id="b-3-6"
       x1="26.74"
       x2="35.759998"
       y1="37.880001"
       y2="53.52"
       gradientUnits="userSpaceOnUse"
       gradientTransform="translate(7.4544127,-2.6824393)">
      <stop
         offset="0"
         stop-color="#f7b23b"
         id="stop9-6-7" />
      <stop
         offset=".45"
         stop-color="#f7b23b"
         id="stop11-7-5" />
      <stop
         offset="1"
         stop-color="#f59e0b"
         id="stop13-5-3" />
    </linearGradient>
    <linearGradient
       inkscape:collect="always"
       xlink:href="#b"
       id="linearGradient860"
       x1="18.579262"
       y1="31.272078"
       x2="62.039997"
       y2="31.272078"
       gradientUnits="userSpaceOnUse" />
  </defs>
  <path
     d="m 42.52,32.7 a 4.05,4.05 0 0 0 4.05,4 h 16.51 a 4.34,4.34 0 0 0 0.81,-8.61 3.52,3.52 0 0 0 0.06,-0.66 4.06,4.06 0 0 0 -6.13,-3.48 6.08,6.08 0 0 0 -11.25,3.19 6.34,6.34 0 0 0 0.18,1.46 h -0.18 a 4.05,4.05 0 0 0 -4.05,4.1 z"
     stroke="#848b98"
     stroke-miterlimit="10"
     stroke-width="0.5"
     fill="url(#b)"
     id="path29"
     style="fill:url(#linearGradient1402)" />
  <path
     d="m 54.79,30.75 h -0.32 a 10.49,10.49 0 0 0 -19.11,-8 7,7 0 0 0 -10.57,6 7.21,7.21 0 0 0 0.1,1.14 7.5,7.5 0 0 0 1.4,14.86 4.19,4.19 0 0 0 0.5,0 v 0 h 28 a 7,7 0 0 0 0,-14 z"
     stroke="#e6effc"
     stroke-miterlimit="10"
     stroke-width="0.5"
     fill="url(#c)"
     id="path31"
     style="fill:url(#c);fill-opacity:1;stroke:url(#linearGradient860)" />
  <rect
     style="fill:#5f8dd3;stroke-width:0.151555"
     id="rect400-3-0-2"
     width="8.1417284"
     height="1.5544933"
     x="37.774982"
     y="-50.246735"
     ry="0.77724665"
     transform="matrix(-0.42123037,0.90695368,-0.96162398,-0.27437077,0,0)" />
  <rect
     style="fill:#5f8dd3;stroke-width:0.147395"
     id="rect400-3-0-2-1-1"
     width="7.7354646"
     height="1.5475562"
     x="39.156693"
     y="-41.859825"
     ry="0.77377808"
     transform="matrix(-0.44335322,0.89634699,-0.96593462,-0.25878623,0,0)" />
  <rect
     style="fill:#5f8dd3;stroke-width:0.147395"
     id="rect400-3-0-2-1-1-9"
     width="7.7354646"
     height="1.5475562"
     x="33.05365"
     y="-61.999454"
     ry="0.77377808"
     transform="matrix(-0.44335322,0.89634699,-0.96593462,-0.25878623,0,0)" />
  <rect
     style="fill:#5f8dd3;stroke-width:0.147395"
     id="rect400-3-0-2-1-1-2"
     width="7.7354646"
     height="1.5475562"
     x="30.615396"
     y="-71.327248"
     ry="0.77377808"
     transform="matrix(-0.44335322,0.89634699,-0.96593462,-0.25878623,0,0)" />
  <rect
     style="fill:#5f8dd3;stroke-width:0.147395"
     id="rect400-3-0-2-1-1-0"
     width="7.7354646"
     height="1.5475562"
     x="37.012726"
     y="-46.270782"
     ry="0.77377808"
     transform="matrix(-0.44335322,0.89634699,-0.96593462,-0.25878623,0,0)" />
  <rect
     style="fill:#5f8dd3;stroke-width:0.147395"
     id="rect400-3-0-2-1-1-2-3"
     width="7.7354646"
     height="1.5475562"
     x="33.221527"
     y="-67.371422"
     ry="0.77377808"
     transform="matrix(-0.44335322,0.89634699,-0.96593462,-0.25878623,0,0)" />
  <path
     fill="url(#b)"
     stroke="#f6a823"
     stroke-miterlimit="10"
     stroke-width="0.5"
     d="m 37.454413,33.317559 -4,12 h 4 l -2,10 10,-14 h -6 l 4,-8 z"
     id="path20-3"
     style="fill:url(#b-3-6)" />
</svg>
