<?xml version="1.0" encoding="UTF-8" standalone="no"?>
<svg
   xmlns:dc="http://purl.org/dc/elements/1.1/"
   xmlns:cc="http://creativecommons.org/ns#"
   xmlns:rdf="http://www.w3.org/1999/02/22-rdf-syntax-ns#"
   xmlns:svg="http://www.w3.org/2000/svg"
   xmlns="http://www.w3.org/2000/svg"
   id="svg8"
   version="1.1"
   viewBox="0 0 79.374998 79.375002"
   height="300"
   width="300">
  <defs
     id="defs2" />
  <metadata
     id="metadata5">
    <rdf:RDF>
      <cc:Work
         rdf:about="">
        <dc:format>image/svg+xml</dc:format>
        <dc:type
           rdf:resource="http://purl.org/dc/dcmitype/StillImage" />
        <dc:title></dc:title>
      </cc:Work>
    </rdf:RDF>
  </metadata>
  <path
     style="fill:#cccccc;stroke-width:0.18294837"
     d="m 21.286038,28.164648 c -6.515576,0 -11.761038,5.245463 -11.761038,11.761039 0,6.515576 5.245462,11.761038 11.761038,11.761038 h 11.916587 l 4.075719,-14.54123 9.546187,4.484997 -2.818431,10.056233 h 17.267163 c 6.515576,0 11.761039,-5.245462 11.761039,-11.761038 0,-6.515576 -5.245463,-11.761039 -11.761039,-11.761039 z"
     id="rect12-6-7" />
  <path
     style="fill:#cccccc;stroke-width:0.18294837"
     d="M 36.255152,11.104708 A 17.249422,16.073324 0 0 0 19.005558,27.178144 17.249422,16.073324 0 0 0 35.575607,43.220059 l 1.702221,-6.074564 7.958688,3.73879 A 17.249422,16.073324 0 0 0 53.504226,27.178144 17.249422,16.073324 0 0 0 36.255152,11.104708 Z"
     id="path14-7-5" />
  <g
     id="g882"
     transform="matrix(0.99526413,0.09720757,-0.1150386,1.1778279,0.9203037,-17.76082)">
    <g
       id="g886"
       transform="matrix(0.99888434,-0.03990404,0.0558861,0.99888434,-2.9217908,2.2923149)">
      <path
         id="path689-5-3"
         d="m 48.929313,57.902925 -3.878371,0.34475 -2.71382,13.919821 11.048061,-14.152461 z"
         style="fill:#ffff00;stroke:none;stroke-width:0.0329131px;stroke-linecap:butt;stroke-linejoin:miter;stroke-opacity:1" />
      <path
         id="rect645-4-6"
         d="m 49.961404,47.015339 -6.670632,-2.074844 -4.02325,14.35445 6.53516,1.55965 z"
         style="fill:#ffff00;stroke-width:0.04409631" />
    </g>
  </g>
</svg>
