<?xml version="1.0" encoding="UTF-8" standalone="no"?>
<svg
   width="300"
   height="300"
   viewBox="0 0 79.374998 79.375002"
   version="1.1"
   id="svg8"
   xmlns:xlink="http://www.w3.org/1999/xlink"
   xmlns="http://www.w3.org/2000/svg"
   xmlns:svg="http://www.w3.org/2000/svg"
   xmlns:rdf="http://www.w3.org/1999/02/22-rdf-syntax-ns#"
   xmlns:cc="http://creativecommons.org/ns#"
   xmlns:dc="http://purl.org/dc/elements/1.1/">
  <defs
     id="defs2">
    <linearGradient
       id="linearGradient840">
      <stop
         style="stop-color:#b2b2b2;stop-opacity:1;"
         offset="0"
         id="stop836" />
      <stop
         style="stop-color:#ffffff;stop-opacity:0.09411765"
         offset="1"
         id="stop838" />
    </linearGradient>
    <linearGradient
       xlink:href="#b"
       id="linearGradient1068"
       gradientUnits="userSpaceOnUse"
       gradientTransform="matrix(1.0000126,0,0,1.0000126,-97.167356,-13.874988)"
       x1="26.74"
       y1="37.880001"
       x2="35.759998"
       y2="53.52" />
    <linearGradient
       id="b"
       x1="26.74"
       x2="35.759998"
       y1="37.880001"
       y2="53.52"
       gradientUnits="userSpaceOnUse"
       gradientTransform="translate(8.0297523,-0.51443458)">
      <stop
         offset="0"
         stop-color="#f7b23b"
         id="stop9" />
      <stop
         offset=".45"
         stop-color="#f7b23b"
         id="stop11" />
      <stop
         offset="1"
         stop-color="#f59e0b"
         id="stop13" />
    </linearGradient>
    <linearGradient
       xlink:href="#linearGradient840"
       id="linearGradient842"
       x1="71.112221"
       y1="49.319839"
       x2="20.009262"
       y2="19.662493"
       gradientUnits="userSpaceOnUse"
       gradientTransform="translate(27.363351,0.69671289)" />
    <linearGradient
       xlink:href="#linearGradient840-6"
       id="linearGradient842-5"
       x1="71.640686"
       y1="50.062809"
       x2="43.170097"
       y2="29.449696"
       gradientUnits="userSpaceOnUse"
       gradientTransform="translate(0.03936366,0.11101406)" />
    <linearGradient
       id="linearGradient840-6">
      <stop
         style="stop-color:#dfefff;stop-opacity:1"
         offset="0"
         id="stop836-2" />
      <stop
         style="stop-color:#ffffff;stop-opacity:1"
         offset="1"
         id="stop838-9" />
    </linearGradient>
    <linearGradient
       xlink:href="#linearGradient840-6"
       id="linearGradient842-2"
       x1="71.640686"
       y1="50.062809"
       x2="43.170097"
       y2="29.449696"
       gradientUnits="userSpaceOnUse"
       gradientTransform="translate(0.03936366,0.11101365)" />
    <linearGradient
       xlink:href="#linearGradient840-6"
       id="linearGradient8265"
       gradientUnits="userSpaceOnUse"
       gradientTransform="translate(0.03938206,0.11100866)"
       x1="71.640686"
       y1="50.062809"
       x2="43.170097"
       y2="29.449696" />
  </defs>
  <metadata
     id="metadata5">
    <rdf:RDF>
      <cc:Work
         rdf:about="">
        <dc:format>image/svg+xml</dc:format>
        <dc:type
           rdf:resource="http://purl.org/dc/dcmitype/StillImage" />
      </cc:Work>
    </rdf:RDF>
  </metadata>
  <path
     id="path14-7-5-36-7"
     style="fill:url(#linearGradient8265);fill-opacity:1;stroke:#9f9696;stroke-width:0.79375;stroke-miterlimit:4;stroke-dasharray:none;stroke-opacity:1"
     d="m 45.057734,8.8635417 a 17.249422,16.073324 0 0 0 -14.56604,7.4837813 12.103772,12.103772 0 0 0 -2.62774,-0.289388 12.103772,12.103772 0 0 0 -12.103653,12.103654 12.103772,12.103772 0 0 0 0.016,0.431498 c -4.90563,1.305439 -8.5002593,5.760839 -8.5002593,11.088729 0,6.35891 5.1194593,11.47837 11.4783693,11.47837 h 42.371053 c 6.35891,0 11.47785,-5.11946 11.47785,-11.47837 0,-6.08815 -4.69341,-11.036199 -10.67376,-11.446848 A 17.249422,16.073324 0 0 0 62.306784,24.93698 17.249422,16.073324 0 0 0 45.057714,8.8635417 Z" />
  <path
     id="path689-5-3"
     style="fill:#f7b23b;fill-opacity:1;stroke:#f89918;stroke-width:0.661458;stroke-linecap:butt;stroke-linejoin:miter;stroke-miterlimit:4;stroke-dasharray:none;stroke-opacity:0.866764"
     d="M 36.121825,37.742914 31.252354,55.514439 36.19934,57.28384 33.555058,70.218966 45.428234,53.073245 40.984576,52.696008 39.143346,52.802976 42.66096,40.696738 Z" />
</svg>
