<?xml version="1.0" encoding="UTF-8" standalone="no"?>
<svg
   width="300"
   height="300"
   viewBox="0 0 79.374998 79.375002"
   version="1.1"
   id="svg8"
   xmlns:xlink="http://www.w3.org/1999/xlink"
   xmlns="http://www.w3.org/2000/svg"
   xmlns:svg="http://www.w3.org/2000/svg"
   xmlns:rdf="http://www.w3.org/1999/02/22-rdf-syntax-ns#"
   xmlns:cc="http://creativecommons.org/ns#"
   xmlns:dc="http://purl.org/dc/elements/1.1/">
  <defs
     id="defs2">
    <linearGradient
       xlink:href="#b"
       id="linearGradient1068"
       gradientUnits="userSpaceOnUse"
       gradientTransform="matrix(1.0000126,0,0,1.0000126,-97.167356,-13.874988)"
       x1="26.74"
       y1="37.880001"
       x2="35.759998"
       y2="53.52" />
    <linearGradient
       id="b"
       x1="26.74"
       x2="35.759998"
       y1="37.880001"
       y2="53.52"
       gradientUnits="userSpaceOnUse"
       gradientTransform="translate(8.0297523,-0.51443458)">
      <stop
         offset="0"
         stop-color="#f7b23b"
         id="stop9" />
      <stop
         offset=".45"
         stop-color="#f7b23b"
         id="stop11" />
      <stop
         offset="1"
         stop-color="#f59e0b"
         id="stop13" />
    </linearGradient>
  </defs>
  <metadata
     id="metadata5">
    <rdf:RDF>
      <cc:Work
         rdf:about="">
        <dc:format>image/svg+xml</dc:format>
        <dc:type
           rdf:resource="http://purl.org/dc/dcmitype/StillImage" />
      </cc:Work>
    </rdf:RDF>
  </metadata>
  <path
     id="path14-7-5"
     style="fill:#b2b2b2;fill-opacity:1;stroke:#848484;stroke-width:0.79375;stroke-miterlimit:4;stroke-dasharray:none;stroke-opacity:1"
     d="m 45.057714,8.8635417 a 17.249422,16.073324 0 0 0 -14.566037,7.4837803 12.103772,12.103772 0 0 0 -2.627746,-0.289388 12.103772,12.103772 0 0 0 -12.103653,12.103654 12.103772,12.103772 0 0 0 0.01602,0.431498 c -4.905628,1.305441 -8.5002563,5.760839 -8.5002563,11.08873 0,6.358908 5.1194583,11.478368 11.4783693,11.478368 h 42.371055 c 6.358911,0 11.477852,-5.11946 11.477852,-11.478368 0,-6.088155 -4.693414,-11.0362 -10.673765,-11.446849 A 17.249422,16.073324 0 0 0 62.306791,24.936979 17.249422,16.073324 0 0 0 45.057714,8.8635417 Z" />
  <path
     id="path689-5-3-3"
     style="fill:#f7b23b;fill-opacity:1;stroke:#f89918;stroke-width:0.661458;stroke-linecap:butt;stroke-linejoin:miter;stroke-miterlimit:4;stroke-dasharray:none;stroke-opacity:0.866764"
     d="m 35.992092,37.884393 -4.869471,17.771526 4.946986,1.769401 -2.644283,12.935127 11.873177,-17.145722 -4.443659,-0.377238 -1.84123,0.106968 3.517615,-12.106237 z" />
</svg>
