<?xml version="1.0" encoding="UTF-8" standalone="no"?>
<svg
   xmlns:dc="http://purl.org/dc/elements/1.1/"
   xmlns:cc="http://creativecommons.org/ns#"
   xmlns:rdf="http://www.w3.org/1999/02/22-rdf-syntax-ns#"
   xmlns:svg="http://www.w3.org/2000/svg"
   xmlns="http://www.w3.org/2000/svg"
   width="300"
   height="300"
   viewBox="0 0 79.374998 79.375002"
   version="1.1"
   id="svg8">
  <defs
     id="defs2" />
  <metadata
     id="metadata5">
    <rdf:RDF>
      <cc:Work
         rdf:about="">
        <dc:format>image/svg+xml</dc:format>
        <dc:type
           rdf:resource="http://purl.org/dc/dcmitype/StillImage" />
        <dc:title></dc:title>
      </cc:Work>
    </rdf:RDF>
  </metadata>
  <g
     transform="translate(-0.23782457,0.02976314)"
     id="g40">
    <path
       style="fill:#cccccc;stroke-width:0.17747766"
       d="m 13.602787,22.257554 c -6.3207413,0 -11.4091224,5.08889 -11.4091224,11.40963 0,5.96608 4.5339507,10.83147 10.3580234,11.359 -3.91e-4,-0.0415 -0.0031,-0.0824 -0.0031,-0.12402 0,-6.26122 4.43625,-11.44633 10.34924,-12.60182 a 18.838146,17.553726 0 0 1 -0.0832,-1.38182 18.838146,17.553726 0 0 1 2.467549,-8.66097 z m 45.570343,2.22105 a 18.838146,17.553726 0 0 1 1.317749,6.43992 18.838146,17.553726 0 0 1 -0.06305,1.13894 h 3.259233 c -0.435615,-3.10657 -2.109253,-5.80515 -4.513937,-7.57886 z"
       id="rect12" />
    <path
       style="fill:#cccccc;stroke-width:0.17747766"
       d="M 28.124382,5.7076567 A 16.733612,15.592683 0 0 0 11.390519,21.300504 16.733612,15.592683 0 0 0 18.48621,34.004634 c 1.349226,-0.84267 2.867669,-1.4399 4.494816,-1.73426 a 18.838146,17.553726 0 0 1 -0.07855,-1.29036 18.838146,17.553726 0 0 1 18.838128,-17.55345 18.838146,17.553726 0 0 1 0.827339,0.0388 16.733612,15.592683 0 0 0 -14.443562,-7.7576673 z"
       id="path14" />
    <path
       style="fill:#999999;stroke-width:0.6914584"
       d="m 101.05859,123.94336 c -24.625799,0 -44.451168,19.82537 -44.451168,44.45117 0,24.6258 19.825369,44.45117 44.451168,44.45117 h 45.03907 l 15.40429,-54.95898 36.08008,16.95117 -10.65234,38.00781 h 65.26172 c 24.6258,0 44.45117,-19.82537 44.45117,-44.45117 0,-24.6258 -19.82537,-44.45117 -44.45117,-44.45117 z"
       id="rect12-6-7"
       transform="scale(0.26458333)" />
    <path
       style="fill:#999999;stroke-width:0.6914584"
       d="M 157.63477,59.464844 A 65.194666,60.749572 0 0 0 92.439453,120.21484 65.194666,60.749572 0 0 0 155.06641,180.8457 l 6.43359,-22.95898 30.08008,14.13086 a 65.194666,60.749572 0 0 0 31.24804,-51.80274 65.194666,60.749572 0 0 0 -65.19335,-60.749996 z"
       id="path14-7-5"
       transform="scale(0.26458333)" />
    <g
       id="g882"
       transform="matrix(0.99526413,0.09720757,-0.1150386,1.1778279,6.372681,-13.132121)">
      <g
         id="g886"
         transform="matrix(0.99888434,-0.03990404,0.0558861,0.99888434,-2.9217908,2.2923149)">
        <path
           id="path689-5-3"
           d="m 48.929313,57.902925 -3.878371,0.34475 -2.71382,13.919821 11.048061,-14.152461 z"
           style="fill:#ffff00;stroke:none;stroke-width:0.0329131px;stroke-linecap:butt;stroke-linejoin:miter;stroke-opacity:1" />
        <path
           id="rect645-4-6"
           d="m 49.961404,47.015339 -6.670632,-2.074844 -4.02325,14.35445 6.53516,1.55965 z"
           style="fill:#ffff00;stroke-width:0.04409631" />
      </g>
    </g>
  </g>
</svg>
