<?xml version="1.0" encoding="UTF-8" standalone="no"?>
<svg
   xmlns:dc="http://purl.org/dc/elements/1.1/"
   xmlns:cc="http://creativecommons.org/ns#"
   xmlns:rdf="http://www.w3.org/1999/02/22-rdf-syntax-ns#"
   xmlns:svg="http://www.w3.org/2000/svg"
   xmlns="http://www.w3.org/2000/svg"
   width="300"
   height="300"
   viewBox="0 0 79.374998 79.375002"
   version="1.1"
   id="svg8">
  <defs
     id="defs2" />
  <metadata
     id="metadata5">
    <rdf:RDF>
      <cc:Work
         rdf:about="">
        <dc:format>image/svg+xml</dc:format>
        <dc:type
           rdf:resource="http://purl.org/dc/dcmitype/StillImage" />
        <dc:title></dc:title>
      </cc:Work>
    </rdf:RDF>
  </metadata>
  <g
     transform="matrix(0.99526413,0.09720757,-0.1150386,1.1778279,0.92030081,-17.339259)"
     id="g882">
    <g
       transform="matrix(0.99888434,-0.03990404,0.0558861,0.99888434,-2.9217908,2.2923149)"
       id="g886">
      <path
         style="fill:#ffff00;stroke:none;stroke-width:0.0329131px;stroke-linecap:butt;stroke-linejoin:miter;stroke-opacity:1"
         d="m 48.929313,57.902925 -3.878371,0.34475 -2.71382,13.919821 11.048061,-14.152461 z"
         id="path689-5-3" />
      <path
         style="fill:#ffff00;stroke-width:0.04409631"
         d="m 49.961404,47.015339 -6.670632,-2.074844 -4.02325,14.35445 6.53516,1.55965 z"
         id="rect645-4-6" />
    </g>
  </g>
  <rect
     style="fill:#cccccc;stroke-width:0.22698261"
     id="rect400-3-0-2-1"
     width="4.4340301"
     height="2.364975"
     x="49.183125"
     y="-37.196098"
     ry="1.0146294"
     transform="matrix(-0.37076927,0.92872501,-0.98091033,-0.1944606,0,0)" />
  <rect
     style="fill:#cccccc;stroke-width:0.22698261"
     id="rect400-3-0-2-1-6"
     width="4.4340301"
     height="2.364975"
     x="54.812824"
     y="-42.561188"
     ry="1.0146294"
     transform="matrix(-0.37076927,0.92872501,-0.98091033,-0.1944606,0,0)" />
  <rect
     style="fill:#cccccc;stroke-width:0.22698261"
     id="rect400-3-0-2-1-7"
     width="4.4340301"
     height="2.364975"
     x="49.521732"
     y="-47.075962"
     ry="1.0146294"
     transform="matrix(-0.37076927,0.92872501,-0.98091033,-0.1944606,0,0)" />
  <rect
     style="fill:#cccccc;stroke-width:0.22698261"
     id="rect400-3-0-2-1-5"
     width="4.4340301"
     height="2.364975"
     x="57.980885"
     y="-51.644913"
     ry="1.0146294"
     transform="matrix(-0.37076927,0.92872501,-0.98091033,-0.1944606,0,0)" />
  <rect
     style="fill:#cccccc;stroke-width:0.22698261"
     id="rect400-3-0-2-1-3"
     width="4.4340301"
     height="2.364975"
     x="53.128185"
     y="-56.009491"
     ry="1.0146294"
     transform="matrix(-0.37076927,0.92872501,-0.98091033,-0.1944606,0,0)" />
  <rect
     style="fill:#cccccc;stroke-width:0.22698261"
     id="rect400-3-0-2-1-5-0"
     width="4.4340301"
     height="2.364975"
     x="52.70837"
     y="-71.089691"
     ry="1.0146294"
     transform="matrix(-0.37076927,0.92872501,-0.98091033,-0.1944606,0,0)" />
  <rect
     style="fill:#cccccc;stroke-width:0.22698261"
     id="rect400-3-0-2-1-3-9"
     width="4.4340301"
     height="2.364975"
     x="47.855671"
     y="-75.454269"
     ry="1.0146294"
     transform="matrix(-0.37076927,0.92872501,-0.98091033,-0.1944606,0,0)" />
  <rect
     style="fill:#cccccc;stroke-width:0.22698261"
     id="rect400-3-0-2-1-56-3"
     width="4.4340301"
     height="2.364975"
     x="40.170376"
     y="-73.893883"
     ry="1.0146294"
     transform="matrix(-0.37076927,0.92872501,-0.98091033,-0.1944606,0,0)" />
  <rect
     style="fill:#cccccc;stroke-width:0.22698261"
     id="rect400-3-0-2-1-2-6"
     width="4.4340301"
     height="2.364975"
     x="51.356495"
     y="-83.322472"
     ry="1.0146294"
     transform="matrix(-0.37076927,0.92872501,-0.98091033,-0.1944606,0,0)" />
  <rect
     style="fill:#cccccc;stroke-width:0.22698261"
     id="rect400-3-0-2-1-9-0"
     width="4.4340301"
     height="2.364975"
     x="43.504765"
     y="-82.183273"
     ry="1.0146294"
     transform="matrix(-0.37076927,0.92872501,-0.98091033,-0.1944606,0,0)" />
  <path
     id="rect12-6-7"
     d="m 21.286038,28.586209 c -6.515576,0 -11.761038,5.245462 -11.761038,11.761039 0,6.515576 5.245462,11.761038 11.761038,11.761038 h 11.916587 l 4.075719,-14.54123 9.546188,4.484997 -2.818432,10.056233 h 17.267163 c 6.515576,0 11.761039,-5.245462 11.761039,-11.761038 0,-6.515577 -5.245463,-11.761039 -11.761039,-11.761039 z"
     style="fill:#999999;stroke-width:0.18294837" />
  <path
     id="path14-7-5"
     d="M 36.255152,11.526269 A 17.249422,16.073324 0 0 0 19.005558,27.599705 17.249422,16.073324 0 0 0 35.575607,43.64162 l 1.702221,-6.074564 7.958688,3.73879 A 17.249422,16.073324 0 0 0 53.504226,27.599705 17.249422,16.073324 0 0 0 36.255152,11.526269 Z"
     style="fill:#999999;stroke-width:0.18294837" />
</svg>
