<?xml version="1.0" encoding="UTF-8" standalone="no"?>
<svg
   width="300"
   height="300"
   viewBox="0 0 79.374998 79.375002"
   version="1.1"
   id="svg8"
   xmlns="http://www.w3.org/2000/svg"
   xmlns:svg="http://www.w3.org/2000/svg"
   xmlns:rdf="http://www.w3.org/1999/02/22-rdf-syntax-ns#"
   xmlns:cc="http://creativecommons.org/ns#"
   xmlns:dc="http://purl.org/dc/elements/1.1/">
  <defs
     id="defs2" />
  <metadata
     id="metadata5">
    <rdf:RDF>
      <cc:Work
         rdf:about="">
        <dc:format>image/svg+xml</dc:format>
        <dc:type
           rdf:resource="http://purl.org/dc/dcmitype/StillImage" />
      </cc:Work>
    </rdf:RDF>
  </metadata>
  <rect
     style="fill:#5491bd;fill-opacity:1;stroke-width:0.226983"
     id="rect400-3-0-2-1"
     width="4.4340301"
     height="2.364975"
     x="53.191898"
     y="-38.129837"
     ry="1.0146294"
     transform="matrix(-0.37076927,0.92872501,-0.98091033,-0.1944606,0,0)" />
  <rect
     style="fill:#5491bd;fill-opacity:1;stroke-width:0.226983"
     id="rect400-3-0-2-1-6"
     width="4.4340301"
     height="2.364975"
     x="58.821598"
     y="-43.494926"
     ry="1.0146294"
     transform="matrix(-0.37076927,0.92872501,-0.98091033,-0.1944606,0,0)" />
  <rect
     style="fill:#5491bd;fill-opacity:1;stroke-width:0.226983"
     id="rect400-3-0-2-1-7"
     width="4.4340301"
     height="2.364975"
     x="53.530506"
     y="-48.009701"
     ry="1.0146294"
     transform="matrix(-0.37076927,0.92872501,-0.98091033,-0.1944606,0,0)" />
  <rect
     style="fill:#5491bd;fill-opacity:1;stroke-width:0.226983"
     id="rect400-3-0-2-1-5"
     width="4.4340301"
     height="2.364975"
     x="61.989658"
     y="-52.578651"
     ry="1.0146294"
     transform="matrix(-0.37076927,0.92872501,-0.98091033,-0.1944606,0,0)" />
  <rect
     style="fill:#5491bd;fill-opacity:1;stroke-width:0.226983"
     id="rect400-3-0-2-1-5-0"
     width="4.4340301"
     height="2.364975"
     x="56.717144"
     y="-72.02343"
     ry="1.0146294"
     transform="matrix(-0.37076927,0.92872501,-0.98091033,-0.1944606,0,0)" />
  <rect
     style="fill:#5491bd;fill-opacity:1;stroke-width:0.226983"
     id="rect400-3-0-2-1-3-9"
     width="4.4340301"
     height="2.364975"
     x="51.864445"
     y="-76.388008"
     ry="1.0146294"
     transform="matrix(-0.37076927,0.92872501,-0.98091033,-0.1944606,0,0)" />
  <rect
     style="fill:#5491bd;fill-opacity:1;stroke-width:0.226983"
     id="rect400-3-0-2-1-56-3"
     width="4.4340301"
     height="2.364975"
     x="44.17915"
     y="-74.827621"
     ry="1.0146294"
     transform="matrix(-0.37076927,0.92872501,-0.98091033,-0.1944606,0,0)" />
  <rect
     style="fill:#5491bd;fill-opacity:1;stroke-width:0.226983"
     id="rect400-3-0-2-1-2-6"
     width="4.4340301"
     height="2.364975"
     x="55.365269"
     y="-84.25621"
     ry="1.0146294"
     transform="matrix(-0.37076927,0.92872501,-0.98091033,-0.1944606,0,0)" />
  <rect
     style="fill:#5491bd;fill-opacity:1;stroke-width:0.226983"
     id="rect400-3-0-2-1-9-0"
     width="4.4340301"
     height="2.364975"
     x="47.513538"
     y="-83.117012"
     ry="1.0146294"
     transform="matrix(-0.37076927,0.92872501,-0.98091033,-0.1944606,0,0)" />
  <path
     id="path14-7-5"
     style="fill:#b2b2b2;fill-opacity:1;stroke:#848484;stroke-width:0.79375;stroke-miterlimit:4;stroke-dasharray:none;stroke-opacity:1"
     d="m 45.057717,8.8635417 a 17.249422,16.073324 0 0 0 -14.56604,7.4837813 12.103772,12.103772 0 0 0 -2.627746,-0.289388 12.103772,12.103772 0 0 0 -12.103653,12.103654 12.103772,12.103772 0 0 0 0.01602,0.431498 c -4.905628,1.305441 -8.5002563,5.760839 -8.5002563,11.08873 0,6.358908 5.1194583,11.478367 11.4783693,11.478367 h 42.371056 c 6.35891,0 11.47785,-5.11946 11.47785,-11.478368 0,-6.088155 -4.69341,-11.0362 -10.67376,-11.446849 a 17.249422,16.073324 0 0 0 0.37723,-3.297988 17.249422,16.073324 0 0 0 -17.24907,-16.0734373 z" />
  <path
     id="path689-5-3-3"
     style="fill:#f7b23b;fill-opacity:1;stroke:#f89918;stroke-width:0.661458;stroke-linecap:butt;stroke-linejoin:miter;stroke-miterlimit:4;stroke-dasharray:none;stroke-opacity:0.866764"
     d="M 36.201761,37.305307 31.33229,55.076833 36.279276,56.846234 33.634993,69.78136 45.508167,52.635638 41.064511,52.258401 39.223281,52.36537 42.740897,40.259132 Z" />
</svg>
