<?xml version="1.0" encoding="UTF-8" standalone="no"?>
<svg
   xmlns:dc="http://purl.org/dc/elements/1.1/"
   xmlns:cc="http://creativecommons.org/ns#"
   xmlns:rdf="http://www.w3.org/1999/02/22-rdf-syntax-ns#"
   xmlns:svg="http://www.w3.org/2000/svg"
   xmlns="http://www.w3.org/2000/svg"
   id="svg8"
   version="1.1"
   viewBox="0 0 79.374998 79.375002"
   height="300"
   width="300">
  <defs
     id="defs2" />
  <metadata
     id="metadata5">
    <rdf:RDF>
      <cc:Work
         rdf:about="">
        <dc:format>image/svg+xml</dc:format>
        <dc:type
           rdf:resource="http://purl.org/dc/dcmitype/StillImage" />
        <dc:title></dc:title>
      </cc:Work>
    </rdf:RDF>
  </metadata>
  <g
     id="g111"
     transform="matrix(0.91566447,0,0,0.91566447,103.35113,-195.12415)"
     style="fill:#cccccc">
    <rect
       ry="12.844191"
       y="244.71248"
       x="-104.22694"
       height="25.688381"
       width="69.358627"
       id="rect12-6-7"
       style="fill:#cccccc;stroke-width:0.19979848" />
    <ellipse
       ry="17.553726"
       rx="18.838146"
       cy="243.63496"
       cx="-75.03495"
       id="path14-7-5"
       style="fill:#cccccc;stroke-width:0.19979848" />
  </g>
  <g
     id="g3862">
    <rect
       transform="matrix(-0.37076927,0.92872501,-0.98091033,-0.1944606,0,0)"
       ry="1.0146294"
       y="-36.902122"
       x="51.219124"
       height="2.364975"
       width="4.4340301"
       id="rect400-3-0-2-1-36"
       style="fill:#cccccc;stroke-width:0.22698261" />
    <rect
       transform="matrix(-0.37076927,0.92872501,-0.98091033,-0.1944606,0,0)"
       ry="1.0146294"
       y="-42.267212"
       x="56.848824"
       height="2.364975"
       width="4.4340301"
       id="rect400-3-0-2-1-6"
       style="fill:#cccccc;stroke-width:0.22698261" />
    <rect
       transform="matrix(-0.37076927,0.92872501,-0.98091033,-0.1944606,0,0)"
       ry="1.0146294"
       y="-46.781986"
       x="51.557732"
       height="2.364975"
       width="4.4340301"
       id="rect400-3-0-2-1-7"
       style="fill:#cccccc;stroke-width:0.22698261" />
    <rect
       transform="matrix(-0.37076927,0.92872501,-0.98091033,-0.1944606,0,0)"
       ry="1.0146294"
       y="-51.350937"
       x="60.016884"
       height="2.364975"
       width="4.4340301"
       id="rect400-3-0-2-1-5"
       style="fill:#cccccc;stroke-width:0.22698261" />
    <rect
       transform="matrix(-0.37076927,0.92872501,-0.98091033,-0.1944606,0,0)"
       ry="1.0146294"
       y="-55.715515"
       x="55.164185"
       height="2.364975"
       width="4.4340301"
       id="rect400-3-0-2-1-3"
       style="fill:#cccccc;stroke-width:0.22698261" />
    <rect
       transform="matrix(-0.37076927,0.92872501,-0.98091033,-0.1944606,0,0)"
       ry="1.0146294"
       y="-66.093765"
       x="55.004601"
       height="2.364975"
       width="4.4340301"
       id="rect400-3-0-2-1-5-0"
       style="fill:#cccccc;stroke-width:0.22698261" />
    <rect
       transform="matrix(-0.37076927,0.92872501,-0.98091033,-0.1944606,0,0)"
       ry="1.0146294"
       y="-75.160309"
       x="49.89167"
       height="2.364975"
       width="4.4340301"
       id="rect400-3-0-2-1-3-9"
       style="fill:#cccccc;stroke-width:0.22698261" />
    <rect
       transform="matrix(-0.37076927,0.92872501,-0.98091033,-0.1944606,0,0)"
       ry="1.0146294"
       y="-73.599922"
       x="42.206375"
       height="2.364975"
       width="4.4340301"
       id="rect400-3-0-2-1-56-3"
       style="fill:#cccccc;stroke-width:0.22698261" />
    <rect
       transform="matrix(-0.37076927,0.92872501,-0.98091033,-0.1944606,0,0)"
       ry="1.0146294"
       y="-82.629372"
       x="52.336517"
       height="2.364975"
       width="4.4340301"
       id="rect400-3-0-2-1-2-6"
       style="fill:#cccccc;stroke-width:0.22698261" />
    <rect
       transform="matrix(-0.37076927,0.92872501,-0.98091033,-0.1944606,0,0)"
       ry="1.0146294"
       y="-81.490173"
       x="44.484787"
       height="2.364975"
       width="4.4340301"
       id="rect400-3-0-2-1-9-0"
       style="fill:#cccccc;stroke-width:0.22698261" />
    <rect
       transform="matrix(-0.37076927,0.92872501,-0.98091033,-0.1944606,0,0)"
       ry="1.0146294"
       y="-59.693161"
       x="47.352631"
       height="2.364975"
       width="4.4340301"
       id="rect400-3-0-2-1-2-6-7"
       style="fill:#cccccc;stroke-width:0.22698261" />
    <rect
       transform="matrix(-0.37076927,0.92872501,-0.98091033,-0.1944606,0,0)"
       ry="1.0146294"
       y="-67.381592"
       x="46.829235"
       height="2.364975"
       width="4.4340301"
       id="rect400-3-0-2-1-3-5"
       style="fill:#cccccc;stroke-width:0.22698261" />
  </g>
</svg>
