<?xml version="1.0" encoding="UTF-8" standalone="no"?>
<svg
   id="svg8"
   version="1.1"
   viewBox="0 0 79.374998 79.375002"
   height="300"
   width="300"
   xmlns:xlink="http://www.w3.org/1999/xlink"
   xmlns="http://www.w3.org/2000/svg"
   xmlns:svg="http://www.w3.org/2000/svg"
   xmlns:rdf="http://www.w3.org/1999/02/22-rdf-syntax-ns#"
   xmlns:cc="http://creativecommons.org/ns#"
   xmlns:dc="http://purl.org/dc/elements/1.1/">
  <defs
     id="defs2">
    <linearGradient
       xlink:href="#linearGradient840-7"
       id="linearGradient842-2"
       x1="71.640686"
       y1="50.062809"
       x2="43.170097"
       y2="29.449696"
       gradientUnits="userSpaceOnUse"
       gradientTransform="translate(0.03936366,0.11101416)" />
    <linearGradient
       id="linearGradient840-7">
      <stop
         style="stop-color:#dfefff;stop-opacity:1"
         offset="0"
         id="stop836-0" />
      <stop
         style="stop-color:#ffffff;stop-opacity:1"
         offset="1"
         id="stop838-9" />
    </linearGradient>
    <linearGradient
       xlink:href="#linearGradient840-7"
       id="linearGradient8265"
       gradientUnits="userSpaceOnUse"
       gradientTransform="translate(0.03938206,0.11100862)"
       x1="71.640686"
       y1="50.062809"
       x2="43.170097"
       y2="29.449696" />
  </defs>
  <metadata
     id="metadata5">
    <rdf:RDF>
      <cc:Work
         rdf:about="">
        <dc:format>image/svg+xml</dc:format>
        <dc:type
           rdf:resource="http://purl.org/dc/dcmitype/StillImage" />
      </cc:Work>
    </rdf:RDF>
  </metadata>
  <rect
     style="fill:#5491bd;fill-opacity:1;stroke-width:0.226983"
     id="rect400-3-0-2-1-36"
     width="4.4340301"
     height="2.364975"
     x="53.191898"
     y="-38.129833"
     ry="1.0146294"
     transform="matrix(-0.37076927,0.92872501,-0.98091033,-0.1944606,0,0)" />
  <rect
     style="fill:#5491bd;fill-opacity:1;stroke-width:0.226983"
     id="rect400-3-0-2-1-6"
     width="4.4340301"
     height="2.364975"
     x="58.821598"
     y="-43.494923"
     ry="1.0146294"
     transform="matrix(-0.37076927,0.92872501,-0.98091033,-0.1944606,0,0)" />
  <rect
     style="fill:#5491bd;fill-opacity:1;stroke-width:0.226983"
     id="rect400-3-0-2-1-7"
     width="4.4340301"
     height="2.364975"
     x="53.530506"
     y="-48.009697"
     ry="1.0146294"
     transform="matrix(-0.37076927,0.92872501,-0.98091033,-0.1944606,0,0)" />
  <rect
     style="fill:#5491bd;fill-opacity:1;stroke-width:0.226983"
     id="rect400-3-0-2-1-5"
     width="4.4340301"
     height="2.364975"
     x="61.989658"
     y="-52.578648"
     ry="1.0146294"
     transform="matrix(-0.37076927,0.92872501,-0.98091033,-0.1944606,0,0)" />
  <rect
     style="fill:#5491bd;fill-opacity:1;stroke-width:0.226983"
     id="rect400-3-0-2-1-3"
     width="4.4340301"
     height="2.364975"
     x="57.136959"
     y="-56.943226"
     ry="1.0146294"
     transform="matrix(-0.37076927,0.92872501,-0.98091033,-0.1944606,0,0)" />
  <rect
     style="fill:#5491bd;fill-opacity:1;stroke-width:0.226983"
     id="rect400-3-0-2-1-5-0"
     width="4.4340301"
     height="2.364975"
     x="56.977375"
     y="-67.321487"
     ry="1.0146294"
     transform="matrix(-0.37076927,0.92872501,-0.98091033,-0.1944606,0,0)" />
  <rect
     style="fill:#5491bd;fill-opacity:1;stroke-width:0.226983"
     id="rect400-3-0-2-1-3-9"
     width="4.4340301"
     height="2.364975"
     x="51.864445"
     y="-76.388031"
     ry="1.0146294"
     transform="matrix(-0.37076927,0.92872501,-0.98091033,-0.1944606,0,0)" />
  <rect
     style="fill:#5491bd;fill-opacity:1;stroke-width:0.226983"
     id="rect400-3-0-2-1-56-3"
     width="4.4340301"
     height="2.364975"
     x="44.17915"
     y="-74.827644"
     ry="1.0146294"
     transform="matrix(-0.37076927,0.92872501,-0.98091033,-0.1944606,0,0)" />
  <rect
     style="fill:#5491bd;fill-opacity:1;stroke-width:0.226983"
     id="rect400-3-0-2-1-2-6"
     width="4.4340301"
     height="2.364975"
     x="54.309292"
     y="-83.857094"
     ry="1.0146294"
     transform="matrix(-0.37076927,0.92872501,-0.98091033,-0.1944606,0,0)" />
  <rect
     style="fill:#5491bd;fill-opacity:1;stroke-width:0.226983"
     id="rect400-3-0-2-1-9-0"
     width="4.4340301"
     height="2.364975"
     x="46.457561"
     y="-82.717896"
     ry="1.0146294"
     transform="matrix(-0.37076927,0.92872501,-0.98091033,-0.1944606,0,0)" />
  <rect
     style="fill:#5491bd;fill-opacity:1;stroke-width:0.226983"
     id="rect400-3-0-2-1-2-6-7"
     width="4.4340301"
     height="2.364975"
     x="49.325405"
     y="-60.920872"
     ry="1.0146294"
     transform="matrix(-0.37076927,0.92872501,-0.98091033,-0.1944606,0,0)" />
  <rect
     style="fill:#5491bd;fill-opacity:1;stroke-width:0.226983"
     id="rect400-3-0-2-1-3-5"
     width="4.4340301"
     height="2.364975"
     x="48.80201"
     y="-68.609314"
     ry="1.0146294"
     transform="matrix(-0.37076927,0.92872501,-0.98091033,-0.1944606,0,0)" />
  <path
     id="path14-7-5-36-7"
     style="fill:url(#linearGradient8265);fill-opacity:1;stroke:#9f9696;stroke-width:0.79375;stroke-miterlimit:4;stroke-dasharray:none;stroke-opacity:1"
     d="m 45.057734,8.8635417 a 17.249422,16.073324 0 0 0 -14.56604,7.4837813 12.103772,12.103772 0 0 0 -2.62774,-0.289388 12.103772,12.103772 0 0 0 -12.103653,12.103654 12.103772,12.103772 0 0 0 0.016,0.431498 c -4.90563,1.305439 -8.5002593,5.760839 -8.5002593,11.088729 0,6.35891 5.1194593,11.47837 11.4783693,11.47837 h 42.371053 c 6.35891,0 11.47785,-5.11946 11.47785,-11.47837 0,-6.08815 -4.69341,-11.036199 -10.67376,-11.446848 a 17.249422,16.073324 0 0 0 0.37723,-3.297989 17.249422,16.073324 0 0 0 -17.24907,-16.0734373 z" />
</svg>
