<?xml version="1.0" encoding="UTF-8" standalone="no"?>
<svg
   viewBox="0 0 79.374 79.374"
   version="1.1"
   id="svg22"
   sodipodi:docname="311n-drizzle-rain.svg"
   width="300"
   height="300"
   inkscape:version="1.1.2 (0a00cf5339, 2022-02-04)"
   xmlns:inkscape="http://www.inkscape.org/namespaces/inkscape"
   xmlns:sodipodi="http://sodipodi.sourceforge.net/DTD/sodipodi-0.dtd"
   xmlns:xlink="http://www.w3.org/1999/xlink"
   xmlns="http://www.w3.org/2000/svg"
   xmlns:svg="http://www.w3.org/2000/svg">
  <sodipodi:namedview
     id="namedview24"
     pagecolor="#ffffff"
     bordercolor="#666666"
     borderopacity="1.0"
     inkscape:pageshadow="2"
     inkscape:pageopacity="0.0"
     inkscape:pagecheckerboard="0"
     showgrid="false"
     inkscape:zoom="1.1476675"
     inkscape:cx="-3.9209963"
     inkscape:cy="64.914272"
     inkscape:window-width="1557"
     inkscape:window-height="750"
     inkscape:window-x="107"
     inkscape:window-y="270"
     inkscape:window-maximized="0"
     inkscape:current-layer="svg22"
     width="300px" />
  <defs
     id="defs16">
    <linearGradient
       id="a"
       x1="40.759998"
       y1="23"
       x2="50.830002"
       y2="40.459999"
       gradientUnits="userSpaceOnUse">
      <stop
         offset="0"
         stop-color="#9ca3af"
         id="stop2" />
      <stop
         offset="0.45"
         stop-color="#9ca3af"
         id="stop4" />
      <stop
         offset="1"
         stop-color="#6b7280"
         id="stop6" />
    </linearGradient>
    <linearGradient
       id="b"
       x1="22.559999"
       y1="21.959999"
       x2="39.200001"
       y2="50.799999"
       gradientUnits="userSpaceOnUse">
      <stop
         offset="0"
         stop-color="#f3f7fe"
         id="stop9" />
      <stop
         offset="0.45"
         stop-color="#f3f7fe"
         id="stop11" />
      <stop
         offset="1"
         stop-color="#deeafb"
         id="stop13" />
    </linearGradient>
    <linearGradient
       inkscape:collect="always"
       xlink:href="#a"
       id="linearGradient849"
       x1="10.289262"
       y1="32.022079"
       x2="53.749996"
       y2="32.022079"
       gradientUnits="userSpaceOnUse" />
  </defs>
  <path
     d="m 34.23,33.45 a 4.05,4.05 0 0 0 4.05,4 h 16.51 a 4.34,4.34 0 0 0 0.81,-8.61 3.52,3.52 0 0 0 0.06,-0.66 4.06,4.06 0 0 0 -6.13,-3.48 6.08,6.08 0 0 0 -11.25,3.19 6.34,6.34 0 0 0 0.18,1.46 h -0.18 a 4.05,4.05 0 0 0 -4.05,4.1 z"
     stroke="#848b98"
     stroke-miterlimit="10"
     stroke-width="0.5"
     fill="url(#a)"
     id="path18" />
  <path
     d="m 46.5,31.5 h -0.32 a 10.49,10.49 0 0 0 -19.11,-8 7,7 0 0 0 -10.57,6 7.21,7.21 0 0 0 0.1,1.14 7.5,7.5 0 0 0 1.4,14.86 4.19,4.19 0 0 0 0.5,0 v 0 h 28 a 7,7 0 0 0 0,-14 z"
     stroke="#e6effc"
     stroke-miterlimit="10"
     stroke-width="0.5"
     fill="url(#b)"
     id="path20"
     style="stroke:url(#linearGradient849)" />
  <g
     id="g3862"
     transform="matrix(0.63244639,0,0,0.57942332,7.617371,13.779766)"
     style="fill:#5f8dd3">
    <rect
       transform="matrix(-0.37076927,0.92872501,-0.98091033,-0.1944606,0,0)"
       ry="1.0146294"
       y="-36.902122"
       x="51.219124"
       height="2.364975"
       width="4.4340301"
       id="rect400-3-0-2-1-36"
       style="fill:#5f8dd3;stroke-width:0.226983" />
    <rect
       transform="matrix(-0.37076927,0.92872501,-0.98091033,-0.1944606,0,0)"
       ry="1.0146294"
       y="-42.267212"
       x="56.848824"
       height="2.364975"
       width="4.4340301"
       id="rect400-3-0-2-1-6"
       style="fill:#5f8dd3;stroke-width:0.226983" />
    <rect
       transform="matrix(-0.37076927,0.92872501,-0.98091033,-0.1944606,0,0)"
       ry="1.0146294"
       y="-46.781986"
       x="51.557732"
       height="2.364975"
       width="4.4340301"
       id="rect400-3-0-2-1-7"
       style="fill:#5f8dd3;stroke-width:0.226983" />
    <rect
       transform="matrix(-0.37076927,0.92872501,-0.98091033,-0.1944606,0,0)"
       ry="1.0146294"
       y="-51.350937"
       x="60.016884"
       height="2.364975"
       width="4.4340301"
       id="rect400-3-0-2-1-5"
       style="fill:#5f8dd3;stroke-width:0.226983" />
    <rect
       transform="matrix(-0.37076927,0.92872501,-0.98091033,-0.1944606,0,0)"
       ry="1.0146294"
       y="-55.715515"
       x="55.164185"
       height="2.364975"
       width="4.4340301"
       id="rect400-3-0-2-1-3"
       style="fill:#5f8dd3;stroke-width:0.226983" />
    <rect
       transform="matrix(-0.37076927,0.92872501,-0.98091033,-0.1944606,0,0)"
       ry="1.0146294"
       y="-66.093765"
       x="55.004601"
       height="2.364975"
       width="4.4340301"
       id="rect400-3-0-2-1-5-0"
       style="fill:#5f8dd3;stroke-width:0.226983" />
    <rect
       transform="matrix(-0.37076927,0.92872501,-0.98091033,-0.1944606,0,0)"
       ry="1.0146294"
       y="-75.160309"
       x="49.89167"
       height="2.364975"
       width="4.4340301"
       id="rect400-3-0-2-1-3-9"
       style="fill:#5f8dd3;stroke-width:0.226983" />
    <rect
       transform="matrix(-0.37076927,0.92872501,-0.98091033,-0.1944606,0,0)"
       ry="1.0146294"
       y="-73.599922"
       x="42.206375"
       height="2.364975"
       width="4.4340301"
       id="rect400-3-0-2-1-56-3"
       style="fill:#5f8dd3;stroke-width:0.226983" />
    <rect
       transform="matrix(-0.37076927,0.92872501,-0.98091033,-0.1944606,0,0)"
       ry="1.0146294"
       y="-82.629372"
       x="52.336517"
       height="2.364975"
       width="4.4340301"
       id="rect400-3-0-2-1-2-6"
       style="fill:#5f8dd3;stroke-width:0.226983" />
    <rect
       transform="matrix(-0.37076927,0.92872501,-0.98091033,-0.1944606,0,0)"
       ry="1.0146294"
       y="-81.490173"
       x="44.484787"
       height="2.364975"
       width="4.4340301"
       id="rect400-3-0-2-1-9-0"
       style="fill:#5f8dd3;stroke-width:0.226983" />
    <rect
       transform="matrix(-0.37076927,0.92872501,-0.98091033,-0.1944606,0,0)"
       ry="1.0146294"
       y="-59.693161"
       x="47.352631"
       height="2.364975"
       width="4.4340301"
       id="rect400-3-0-2-1-2-6-7"
       style="fill:#5f8dd3;stroke-width:0.226983" />
    <rect
       transform="matrix(-0.37076927,0.92872501,-0.98091033,-0.1944606,0,0)"
       ry="1.0146294"
       y="-67.381592"
       x="46.829235"
       height="2.364975"
       width="4.4340301"
       id="rect400-3-0-2-1-3-5"
       style="fill:#5f8dd3;stroke-width:0.226983" />
  </g>
</svg>
