<?xml version="1.0" encoding="UTF-8" standalone="no"?>
<svg
   id="svg8"
   version="1.1"
   viewBox="0 0 79.374998 79.375002"
   height="300"
   width="300"
   xmlns:xlink="http://www.w3.org/1999/xlink"
   xmlns="http://www.w3.org/2000/svg"
   xmlns:svg="http://www.w3.org/2000/svg"
   xmlns:rdf="http://www.w3.org/1999/02/22-rdf-syntax-ns#"
   xmlns:cc="http://creativecommons.org/ns#"
   xmlns:dc="http://purl.org/dc/elements/1.1/">
  <defs
     id="defs2">
    <linearGradient
       xlink:href="#linearGradient840-7"
       id="linearGradient842-2"
       x1="71.640686"
       y1="50.062809"
       x2="43.170097"
       y2="29.449696"
       gradientUnits="userSpaceOnUse"
       gradientTransform="translate(0.03938166,0.11101366)" />
    <linearGradient
       id="linearGradient840-7">
      <stop
         style="stop-color:#dfefff;stop-opacity:1"
         offset="0"
         id="stop836-0" />
      <stop
         style="stop-color:#ffffff;stop-opacity:1"
         offset="1"
         id="stop838-9" />
    </linearGradient>
    <linearGradient
       xlink:href="#linearGradient840-7"
       id="linearGradient8265"
       gradientUnits="userSpaceOnUse"
       gradientTransform="translate(1.5660115,17.226276)"
       x1="71.640686"
       y1="50.062809"
       x2="43.170097"
       y2="29.449696" />
  </defs>
  <metadata
     id="metadata5">
    <rdf:RDF>
      <cc:Work
         rdf:about="">
        <dc:format>image/svg+xml</dc:format>
        <dc:type
           rdf:resource="http://purl.org/dc/dcmitype/StillImage" />
      </cc:Work>
    </rdf:RDF>
  </metadata>
  <g
     id="g3862"
     transform="translate(0.47283459,2.0709023)"
     style="fill:#5491bd;fill-opacity:1">
    <rect
       transform="matrix(-0.37076927,0.92872501,-0.98091033,-0.1944606,0,0)"
       ry="1.0146294"
       y="-36.902122"
       x="51.219124"
       height="2.364975"
       width="4.4340301"
       id="rect400-3-0-2-1-36"
       style="fill:#5491bd;fill-opacity:1;stroke-width:0.226983" />
    <rect
       transform="matrix(-0.37076927,0.92872501,-0.98091033,-0.1944606,0,0)"
       ry="1.0146294"
       y="-42.267212"
       x="56.848824"
       height="2.364975"
       width="4.4340301"
       id="rect400-3-0-2-1-6"
       style="fill:#5491bd;fill-opacity:1;stroke-width:0.226983" />
    <rect
       transform="matrix(-0.37076927,0.92872501,-0.98091033,-0.1944606,0,0)"
       ry="1.0146294"
       y="-46.781986"
       x="51.557732"
       height="2.364975"
       width="4.4340301"
       id="rect400-3-0-2-1-7"
       style="fill:#5491bd;fill-opacity:1;stroke-width:0.226983" />
    <rect
       transform="matrix(-0.37076927,0.92872501,-0.98091033,-0.1944606,0,0)"
       ry="1.0146294"
       y="-51.350937"
       x="60.016884"
       height="2.364975"
       width="4.4340301"
       id="rect400-3-0-2-1-5"
       style="fill:#5491bd;fill-opacity:1;stroke-width:0.226983" />
    <rect
       transform="matrix(-0.37076927,0.92872501,-0.98091033,-0.1944606,0,0)"
       ry="1.0146294"
       y="-55.715515"
       x="55.164185"
       height="2.364975"
       width="4.4340301"
       id="rect400-3-0-2-1-3"
       style="fill:#5491bd;fill-opacity:1;stroke-width:0.226983" />
    <rect
       transform="matrix(-0.37076927,0.92872501,-0.98091033,-0.1944606,0,0)"
       ry="1.0146294"
       y="-66.093765"
       x="55.004601"
       height="2.364975"
       width="4.4340301"
       id="rect400-3-0-2-1-5-0"
       style="fill:#5491bd;fill-opacity:1;stroke-width:0.226983" />
    <rect
       transform="matrix(-0.37076927,0.92872501,-0.98091033,-0.1944606,0,0)"
       ry="1.0146294"
       y="-75.160309"
       x="49.89167"
       height="2.364975"
       width="4.4340301"
       id="rect400-3-0-2-1-3-9"
       style="fill:#5491bd;fill-opacity:1;stroke-width:0.226983" />
    <rect
       transform="matrix(-0.37076927,0.92872501,-0.98091033,-0.1944606,0,0)"
       ry="1.0146294"
       y="-73.599922"
       x="42.206375"
       height="2.364975"
       width="4.4340301"
       id="rect400-3-0-2-1-56-3"
       style="fill:#5491bd;fill-opacity:1;stroke-width:0.226983" />
    <rect
       transform="matrix(-0.37076927,0.92872501,-0.98091033,-0.1944606,0,0)"
       ry="1.0146294"
       y="-82.629372"
       x="52.336517"
       height="2.364975"
       width="4.4340301"
       id="rect400-3-0-2-1-2-6"
       style="fill:#5491bd;fill-opacity:1;stroke-width:0.226983" />
    <rect
       transform="matrix(-0.37076927,0.92872501,-0.98091033,-0.1944606,0,0)"
       ry="1.0146294"
       y="-81.490173"
       x="44.484787"
       height="2.364975"
       width="4.4340301"
       id="rect400-3-0-2-1-9-0"
       style="fill:#5491bd;fill-opacity:1;stroke-width:0.226983" />
    <rect
       transform="matrix(-0.37076927,0.92872501,-0.98091033,-0.1944606,0,0)"
       ry="1.0146294"
       y="-59.693161"
       x="47.352631"
       height="2.364975"
       width="4.4340301"
       id="rect400-3-0-2-1-2-6-7"
       style="fill:#5491bd;fill-opacity:1;stroke-width:0.226983" />
    <rect
       transform="matrix(-0.37076927,0.92872501,-0.98091033,-0.1944606,0,0)"
       ry="1.0146294"
       y="-67.381592"
       x="46.829235"
       height="2.364975"
       width="4.4340301"
       id="rect400-3-0-2-1-3-5"
       style="fill:#5491bd;fill-opacity:1;stroke-width:0.226983" />
  </g>
  <g
     id="g1130"
     transform="translate(-0.80168751,-16.985456)">
    <path
       id="path14-7-5-3"
       style="fill:#e6e6e6;fill-opacity:1;stroke:#b7b7b7;stroke-width:0.833438;stroke-miterlimit:4;stroke-dasharray:none;stroke-opacity:1"
       d="M 35.553753,17.402175 A 15.676184,14.045937 0 0 0 22.316421,23.942163 10.999844,10.577079 0 0 0 19.928427,23.68931 10.999844,10.577079 0 0 0 8.9287885,34.266261 a 10.999844,10.577079 0 0 0 0.01465,0.376566 c -4.458205,1.140782 -7.725032,5.034474 -7.725032,9.690339 0,3.936425 2.336133,7.326799 5.752129,8.970849 1.0854,-4.190852 4.3582115,-7.481893 8.5383945,-8.594282 a 12.70896,12.70896 0 0 1 -0.01682,-0.453074 12.70896,12.70896 0 0 1 12.708836,-12.708835 12.70896,12.70896 0 0 1 2.759134,0.303857 18.111893,16.87699 0 0 1 15.294339,-7.857971 18.111893,16.87699 0 0 1 2.714098,0.190996 15.676184,14.045937 0 0 0 -13.414221,-6.782531 z" />
    <path
       id="path14-7-5-36-7"
       style="fill:url(#linearGradient8265);fill-opacity:1;stroke:#9f9696;stroke-width:0.79375;stroke-miterlimit:4;stroke-dasharray:none;stroke-opacity:1"
       d="m 46.584363,25.978809 a 17.249422,16.073324 0 0 0 -14.56604,7.483781 12.103772,12.103772 0 0 0 -2.62774,-0.289388 12.103772,12.103772 0 0 0 -12.103653,12.103654 12.103772,12.103772 0 0 0 0.016,0.431498 c -4.90563,1.305439 -8.5002585,5.760839 -8.5002585,11.088729 0,6.35891 5.1194585,11.47837 11.4783685,11.47837 h 42.371053 c 6.35891,0 11.47785,-5.11946 11.47785,-11.47837 0,-6.08815 -4.69341,-11.036199 -10.67376,-11.446848 a 17.249422,16.073324 0 0 0 0.37723,-3.297988 17.249422,16.073324 0 0 0 -17.24907,-16.073438 z" />
  </g>
</svg>
