<?xml version="1.0" encoding="UTF-8" standalone="no"?>
<svg
   viewBox="0 0 79.374 79.374"
   version="1.1"
   id="svg22"
   sodipodi:docname="313n-shower-rain-and-drizzle.svg"
   width="300"
   height="300"
   inkscape:version="1.1.2 (0a00cf5339, 2022-02-04)"
   xmlns:inkscape="http://www.inkscape.org/namespaces/inkscape"
   xmlns:sodipodi="http://sodipodi.sourceforge.net/DTD/sodipodi-0.dtd"
   xmlns:xlink="http://www.w3.org/1999/xlink"
   xmlns="http://www.w3.org/2000/svg"
   xmlns:svg="http://www.w3.org/2000/svg">
  <sodipodi:namedview
     id="namedview24"
     pagecolor="#ffffff"
     bordercolor="#666666"
     borderopacity="1.0"
     inkscape:pageshadow="2"
     inkscape:pageopacity="0.0"
     inkscape:pagecheckerboard="0"
     showgrid="false"
     inkscape:zoom="2.295335"
     inkscape:cx="174.04867"
     inkscape:cy="157.92902"
     inkscape:window-width="1557"
     inkscape:window-height="750"
     inkscape:window-x="249"
     inkscape:window-y="270"
     inkscape:window-maximized="0"
     inkscape:current-layer="svg22"
     width="300px" />
  <defs
     id="defs16">
    <linearGradient
       id="a"
       x1="40.759998"
       y1="23"
       x2="50.830002"
       y2="40.459999"
       gradientUnits="userSpaceOnUse">
      <stop
         offset="0"
         stop-color="#9ca3af"
         id="stop2" />
      <stop
         offset="0.45"
         stop-color="#9ca3af"
         id="stop4" />
      <stop
         offset="1"
         stop-color="#6b7280"
         id="stop6" />
    </linearGradient>
    <linearGradient
       id="b"
       x1="22.559999"
       y1="21.959999"
       x2="39.200001"
       y2="50.799999"
       gradientUnits="userSpaceOnUse">
      <stop
         offset="0"
         stop-color="#f3f7fe"
         id="stop9" />
      <stop
         offset="0.45"
         stop-color="#f3f7fe"
         id="stop11" />
      <stop
         offset="1"
         stop-color="#deeafb"
         id="stop13" />
    </linearGradient>
    <linearGradient
       inkscape:collect="always"
       xlink:href="#a"
       id="linearGradient857"
       x1="10.289262"
       y1="32.022079"
       x2="53.749996"
       y2="32.022079"
       gradientUnits="userSpaceOnUse" />
  </defs>
  <path
     d="m 34.23,33.45 a 4.05,4.05 0 0 0 4.05,4 h 16.51 a 4.34,4.34 0 0 0 0.81,-8.61 3.52,3.52 0 0 0 0.06,-0.66 4.06,4.06 0 0 0 -6.13,-3.48 6.08,6.08 0 0 0 -11.25,3.19 6.34,6.34 0 0 0 0.18,1.46 h -0.18 a 4.05,4.05 0 0 0 -4.05,4.1 z"
     stroke="#848b98"
     stroke-miterlimit="10"
     stroke-width="0.5"
     fill="url(#a)"
     id="path18" />
  <path
     d="m 46.5,31.5 h -0.32 a 10.49,10.49 0 0 0 -19.11,-8 7,7 0 0 0 -10.57,6 7.21,7.21 0 0 0 0.1,1.14 7.5,7.5 0 0 0 1.4,14.86 4.19,4.19 0 0 0 0.5,0 v 0 h 28 a 7,7 0 0 0 0,-14 z"
     stroke="#e6effc"
     stroke-miterlimit="10"
     stroke-width="0.5"
     fill="url(#b)"
     id="path20"
     style="stroke:url(#linearGradient857)" />
  <rect
     style="fill:#5f8dd3;stroke-width:0.151555"
     id="rect400-3-0-2"
     width="8.1417284"
     height="1.5544933"
     x="37.146572"
     y="-48.737743"
     ry="0.77724665"
     transform="matrix(-0.42123037,0.90695368,-0.96162398,-0.27437077,0,0)" />
  <rect
     style="fill:#5f8dd3;stroke-width:0.147395"
     id="rect400-3-0-2-1-1"
     width="7.7354646"
     height="1.5475562"
     x="41.272762"
     y="-45.442558"
     ry="0.77377808"
     transform="matrix(-0.44335322,0.89634699,-0.96593462,-0.25878623,0,0)" />
  <path
     fill="url(#a)"
     stroke="#72b9d5"
     stroke-linecap="round"
     stroke-linejoin="round"
     stroke-width="0.241043"
     d="m 71.693433,18.221193 a 8.2911382,7.7800752 0 0 1 -8.350859,-7.728706 8.1070012,7.6072884 0 0 1 0.273717,-1.9380141 8.2413714,7.7333761 0 1 0 8.99285,9.6200211 c -0.303578,0.02803 -0.607155,0.0467 -0.915708,0.0467 z"
     id="path28509"
     style="fill:#ffeeaa;stroke:#f2b21d;stroke-opacity:0.486188" />
  <g
     id="g3862"
     transform="matrix(0.63244639,0,0,0.57942332,-0.22091038,23.185474)"
     style="fill:#5f8dd3">
    <rect
       transform="matrix(-0.37076927,0.92872501,-0.98091033,-0.1944606,0,0)"
       ry="1.0146294"
       y="-46.060829"
       x="33.374149"
       height="2.364975"
       width="4.4340301"
       id="rect400-3-0-2-1-36"
       style="fill:#5f8dd3;stroke-width:0.226983" />
    <rect
       transform="matrix(-0.37076927,0.92872501,-0.98091033,-0.1944606,0,0)"
       ry="1.0146294"
       y="-75.623764"
       x="29.973473"
       height="2.364975"
       width="4.4340301"
       id="rect400-3-0-2-1-6"
       style="fill:#5f8dd3;stroke-width:0.226983" />
    <rect
       transform="matrix(-0.37076927,0.92872501,-0.98091033,-0.1944606,0,0)"
       ry="1.0146294"
       y="-59.678436"
       x="44.804379"
       height="2.364975"
       width="4.4340301"
       id="rect400-3-0-2-1-7"
       style="fill:#5f8dd3;stroke-width:0.226983" />
    <rect
       transform="matrix(-0.37076927,0.92872501,-0.98091033,-0.1944606,0,0)"
       ry="1.0146294"
       y="-73.599922"
       x="42.206375"
       height="2.364975"
       width="4.4340301"
       id="rect400-3-0-2-1-5"
       style="fill:#5f8dd3;stroke-width:0.226983" />
    <rect
       transform="matrix(-0.37076927,0.92872501,-0.98091033,-0.1944606,0,0)"
       ry="1.0146294"
       y="-47.21254"
       x="44.267612"
       height="2.364975"
       width="4.4340301"
       id="rect400-3-0-2-1-3"
       style="fill:#5f8dd3;stroke-width:0.226983" />
    <rect
       transform="matrix(-0.37076927,0.92872501,-0.98091033,-0.1944606,0,0)"
       ry="1.0146294"
       y="-52.712605"
       x="31.299812"
       height="2.364975"
       width="4.4340301"
       id="rect400-3-0-2-1-5-0"
       style="fill:#5f8dd3;stroke-width:0.226983" />
    <rect
       transform="matrix(-0.37076927,0.92872501,-0.98091033,-0.1944606,0,0)"
       ry="1.0146294"
       y="-66.376434"
       x="37.550228"
       height="2.364975"
       width="4.4340301"
       id="rect400-3-0-2-1-3-9"
       style="fill:#5f8dd3;stroke-width:0.226983" />
    <rect
       transform="matrix(-0.37076927,0.92872501,-0.98091033,-0.1944606,0,0)"
       ry="1.0146294"
       y="-81.234474"
       x="30.131165"
       height="2.364975"
       width="4.4340301"
       id="rect400-3-0-2-1-56-3"
       style="fill:#5f8dd3;stroke-width:0.226983" />
    <rect
       transform="matrix(-0.37076927,0.92872501,-0.98091033,-0.1944606,0,0)"
       ry="1.0146294"
       y="-77.988739"
       x="34.407501"
       height="2.364975"
       width="4.4340301"
       id="rect400-3-0-2-1-2-6"
       style="fill:#5f8dd3;stroke-width:0.226983" />
    <rect
       transform="matrix(-0.37076927,0.92872501,-0.98091033,-0.1944606,0,0)"
       ry="1.0146294"
       y="-80.353714"
       x="38.84153"
       height="2.364975"
       width="4.4340301"
       id="rect400-3-0-2-1-9-0"
       style="fill:#5f8dd3;stroke-width:0.226983" />
    <rect
       transform="matrix(-0.37076927,0.92872501,-0.98091033,-0.1944606,0,0)"
       ry="1.0146294"
       y="-49.577515"
       x="39.833584"
       height="2.364975"
       width="4.4340301"
       id="rect400-3-0-2-1-2-6-7"
       style="fill:#5f8dd3;stroke-width:0.226983" />
    <rect
       transform="matrix(-0.37076927,0.92872501,-0.98091033,-0.1944606,0,0)"
       ry="1.0146294"
       y="-68.741409"
       x="41.984257"
       height="2.364975"
       width="4.4340301"
       id="rect400-3-0-2-1-3-5"
       style="fill:#5f8dd3;stroke-width:0.226983" />
    <rect
       transform="matrix(-0.37076927,0.92872501,-0.98091033,-0.1944606,0,0)"
       ry="1.0146294"
       y="-68.350304"
       x="29.528128"
       height="2.364975"
       width="4.4340301"
       id="rect400-3-0-2-1-3-9-2"
       style="fill:#5f8dd3;stroke-width:0.226983" />
  </g>
  <rect
     style="fill:#5f8dd3;stroke-width:0.147395"
     id="rect400-3-0-2-1-1-9"
     width="7.7354646"
     height="1.5475562"
     x="36.39225"
     y="-55.530117"
     ry="0.77377808"
     transform="matrix(-0.44335322,0.89634699,-0.96593462,-0.25878623,0,0)" />
  <rect
     style="fill:#5f8dd3;stroke-width:0.147395"
     id="rect400-3-0-2-1-1-2"
     width="7.7354646"
     height="1.5475562"
     x="33.953995"
     y="-64.85791"
     ry="0.77377808"
     transform="matrix(-0.44335322,0.89634699,-0.96593462,-0.25878623,0,0)" />
  <rect
     style="fill:#5f8dd3;stroke-width:0.147395"
     id="rect400-3-0-2-1-1-0"
     width="7.7354646"
     height="1.5475562"
     x="42.976238"
     y="-38.382282"
     ry="0.77377808"
     transform="matrix(-0.44335322,0.89634699,-0.96593462,-0.25878623,0,0)" />
  <rect
     transform="matrix(-0.39947721,0.91674313,-0.98390342,-0.17870102,0,0)"
     ry="0.63974661"
     y="-46.262722"
     x="43.882942"
     height="1.4911698"
     width="2.6027598"
     id="rect400-3-0-2-1-7-3"
     style="fill:#5f8dd3;stroke-width:0.13809" />
</svg>
