<?xml version="1.0" encoding="UTF-8" standalone="no"?>
<svg
   xmlns:dc="http://purl.org/dc/elements/1.1/"
   xmlns:cc="http://creativecommons.org/ns#"
   xmlns:rdf="http://www.w3.org/1999/02/22-rdf-syntax-ns#"
   xmlns:svg="http://www.w3.org/2000/svg"
   xmlns="http://www.w3.org/2000/svg"
   id="svg8"
   version="1.1"
   viewBox="0 0 79.374998 79.375002"
   height="300"
   width="300">
  <defs
     id="defs2" />
  <metadata
     id="metadata5">
    <rdf:RDF>
      <cc:Work
         rdf:about="">
        <dc:format>image/svg+xml</dc:format>
        <dc:type
           rdf:resource="http://purl.org/dc/dcmitype/StillImage" />
        <dc:title></dc:title>
      </cc:Work>
    </rdf:RDF>
  </metadata>
  <path
     style="fill:#cccccc;stroke-width:0.17747766"
     d="M 28.124382,6.23678 A 16.733612,15.592683 0 0 0 11.390519,21.82963 16.733612,15.592683 0 0 0 18.48621,34.53376 c 1.349226,-0.84267 2.867669,-1.4399 4.494816,-1.73426 a 18.838146,17.553726 0 0 1 -0.07855,-1.29036 18.838146,17.553726 0 0 1 18.838128,-17.55345 18.838146,17.553726 0 0 1 0.827339,0.0388 16.733612,15.592683 0 0 0 -14.443562,-7.75767 z"
     id="path14" />
  <g
     id="g111"
     transform="matrix(0.91566447,0,0,0.91566447,110.41416,-190.75179)"
     style="fill:#999999">
    <rect
       ry="12.844191"
       y="244.71248"
       x="-104.22694"
       height="25.688381"
       width="69.358627"
       id="rect12-6-7"
       style="fill:#999999;stroke-width:0.19979848" />
    <ellipse
       ry="17.553726"
       rx="18.838146"
       cy="243.63496"
       cx="-75.03495"
       id="path14-7-5"
       style="fill:#999999;stroke-width:0.19979848" />
  </g>
  <g
     id="g3862"
     transform="translate(5.7176885,5.1475714)">
    <rect
       transform="matrix(-0.37076927,0.92872501,-0.98091033,-0.1944606,0,0)"
       ry="1.0146294"
       y="-36.902122"
       x="51.219124"
       height="2.364975"
       width="4.4340301"
       id="rect400-3-0-2-1-36"
       style="fill:#cccccc;stroke-width:0.22698261" />
    <rect
       transform="matrix(-0.37076927,0.92872501,-0.98091033,-0.1944606,0,0)"
       ry="1.0146294"
       y="-42.267212"
       x="56.848824"
       height="2.364975"
       width="4.4340301"
       id="rect400-3-0-2-1-6"
       style="fill:#cccccc;stroke-width:0.22698261" />
    <rect
       transform="matrix(-0.37076927,0.92872501,-0.98091033,-0.1944606,0,0)"
       ry="1.0146294"
       y="-46.781986"
       x="51.557732"
       height="2.364975"
       width="4.4340301"
       id="rect400-3-0-2-1-7"
       style="fill:#cccccc;stroke-width:0.22698261" />
    <rect
       transform="matrix(-0.37076927,0.92872501,-0.98091033,-0.1944606,0,0)"
       ry="1.0146294"
       y="-51.350937"
       x="60.016884"
       height="2.364975"
       width="4.4340301"
       id="rect400-3-0-2-1-5"
       style="fill:#cccccc;stroke-width:0.22698261" />
    <rect
       transform="matrix(-0.37076927,0.92872501,-0.98091033,-0.1944606,0,0)"
       ry="1.0146294"
       y="-55.715515"
       x="55.164185"
       height="2.364975"
       width="4.4340301"
       id="rect400-3-0-2-1-3"
       style="fill:#cccccc;stroke-width:0.22698261" />
    <rect
       transform="matrix(-0.37076927,0.92872501,-0.98091033,-0.1944606,0,0)"
       ry="1.0146294"
       y="-66.093765"
       x="55.004601"
       height="2.364975"
       width="4.4340301"
       id="rect400-3-0-2-1-5-0"
       style="fill:#cccccc;stroke-width:0.22698261" />
    <rect
       transform="matrix(-0.37076927,0.92872501,-0.98091033,-0.1944606,0,0)"
       ry="1.0146294"
       y="-75.160309"
       x="49.89167"
       height="2.364975"
       width="4.4340301"
       id="rect400-3-0-2-1-3-9"
       style="fill:#cccccc;stroke-width:0.22698261" />
    <rect
       transform="matrix(-0.37076927,0.92872501,-0.98091033,-0.1944606,0,0)"
       ry="1.0146294"
       y="-73.599922"
       x="42.206375"
       height="2.364975"
       width="4.4340301"
       id="rect400-3-0-2-1-56-3"
       style="fill:#cccccc;stroke-width:0.22698261" />
    <rect
       transform="matrix(-0.37076927,0.92872501,-0.98091033,-0.1944606,0,0)"
       ry="1.0146294"
       y="-82.629372"
       x="52.336517"
       height="2.364975"
       width="4.4340301"
       id="rect400-3-0-2-1-2-6"
       style="fill:#cccccc;stroke-width:0.22698261" />
    <rect
       transform="matrix(-0.37076927,0.92872501,-0.98091033,-0.1944606,0,0)"
       ry="1.0146294"
       y="-81.490173"
       x="44.484787"
       height="2.364975"
       width="4.4340301"
       id="rect400-3-0-2-1-9-0"
       style="fill:#cccccc;stroke-width:0.22698261" />
    <rect
       transform="matrix(-0.37076927,0.92872501,-0.98091033,-0.1944606,0,0)"
       ry="1.0146294"
       y="-59.693161"
       x="47.352631"
       height="2.364975"
       width="4.4340301"
       id="rect400-3-0-2-1-2-6-7"
       style="fill:#cccccc;stroke-width:0.22698261" />
    <rect
       transform="matrix(-0.37076927,0.92872501,-0.98091033,-0.1944606,0,0)"
       ry="1.0146294"
       y="-67.381592"
       x="46.829235"
       height="2.364975"
       width="4.4340301"
       id="rect400-3-0-2-1-3-5"
       style="fill:#cccccc;stroke-width:0.22698261" />
  </g>
  <g
     id="g862"
     transform="rotate(7.5602413,-75.020603,-422.04619)">
    <path
       id="path5430"
       transform="scale(0.26458333)"
       d="m 436.82617,-67.847656 a 47.265158,47.265158 0 0 0 -29.6914,43.853515 47.265158,47.265158 0 0 0 0.41992,5.9375 75.162632,70.037899 0 0 1 38.36133,40.539063 47.265158,47.265158 0 0 0 8.48437,0.789062 A 47.265158,47.265158 0 0 0 490.32227,6.6992188 47.265158,47.265158 0 0 1 472.75,10.111328 47.265158,47.265158 0 0 1 425.48438,-37.154297 47.265158,47.265158 0 0 1 436.82617,-67.847656 Z"
       style="fill:#ffff00;stroke:none;stroke-width:0.51898998" />
    <path
       style="fill:#ffff00;stroke:none;stroke-width:0.13731609"
       id="path5451"
       d="m 127.82813,-16.696212 -1.9783,-0.476334 -1.51392,1.359639 -0.15831,-2.028668 -1.76091,-1.019671 1.88045,-0.777458 0.42562,-1.989823 1.32049,1.548173 2.02396,-0.210108 -1.06434,1.734278 z" />
  </g>
  <path
     style="fill:#cccccc;stroke-width:0.17747766"
     d="m 13.602787,22.78668 c -6.3207413,0 -11.4091224,5.08889 -11.4091224,11.40963 0,5.96608 4.5339507,10.83147 10.3580234,11.359 -3.91e-4,-0.0415 -0.0031,-0.0824 -0.0031,-0.12402 0,-6.26122 4.43625,-11.44633 10.34924,-12.60182 a 18.838146,17.553726 0 0 1 -0.0832,-1.38182 18.838146,17.553726 0 0 1 2.467549,-8.66097 z m 45.570343,2.22105 a 18.838146,17.553726 0 0 1 1.317749,6.43992 18.838146,17.553726 0 0 1 -0.06305,1.13894 h 3.259233 c -0.435615,-3.10657 -2.109253,-5.80515 -4.513937,-7.57886 z"
     id="rect12" />
</svg>
