<?xml version="1.0" encoding="UTF-8" standalone="no"?>
<svg
   viewBox="0 0 79.374 79.374"
   version="1.1"
   id="svg22"
   sodipodi:docname="501d-moderate-rain.svg"
   width="300"
   height="300"
   inkscape:version="1.1.2 (0a00cf5339, 2022-02-04)"
   xmlns:inkscape="http://www.inkscape.org/namespaces/inkscape"
   xmlns:sodipodi="http://sodipodi.sourceforge.net/DTD/sodipodi-0.dtd"
   xmlns:xlink="http://www.w3.org/1999/xlink"
   xmlns="http://www.w3.org/2000/svg"
   xmlns:svg="http://www.w3.org/2000/svg">
  <sodipodi:namedview
     id="namedview24"
     pagecolor="#ffffff"
     bordercolor="#666666"
     borderopacity="1.0"
     inkscape:pageshadow="2"
     inkscape:pageopacity="0.0"
     inkscape:pagecheckerboard="0"
     showgrid="false"
     inkscape:zoom="2.2953349"
     inkscape:cx="92.143417"
     inkscape:cy="155.75069"
     inkscape:window-width="1557"
     inkscape:window-height="750"
     inkscape:window-x="1"
     inkscape:window-y="136"
     inkscape:window-maximized="0"
     inkscape:current-layer="svg22"
     width="300px" />
  <defs
     id="defs16">
    <linearGradient
       id="a"
       x1="40.759998"
       y1="23"
       x2="50.830002"
       y2="40.459999"
       gradientUnits="userSpaceOnUse">
      <stop
         offset="0"
         stop-color="#9ca3af"
         id="stop2" />
      <stop
         offset="0.45"
         stop-color="#9ca3af"
         id="stop4" />
      <stop
         offset="1"
         stop-color="#6b7280"
         id="stop6" />
    </linearGradient>
    <linearGradient
       id="b"
       x1="22.559999"
       y1="21.959999"
       x2="39.200001"
       y2="50.799999"
       gradientUnits="userSpaceOnUse">
      <stop
         offset="0"
         stop-color="#f3f7fe"
         id="stop9" />
      <stop
         offset="0.45"
         stop-color="#f3f7fe"
         id="stop11" />
      <stop
         offset="1"
         stop-color="#deeafb"
         id="stop13" />
    </linearGradient>
    <linearGradient
       inkscape:collect="always"
       xlink:href="#a"
       id="linearGradient841"
       x1="10.289262"
       y1="32.022079"
       x2="53.749996"
       y2="32.022079"
       gradientUnits="userSpaceOnUse" />
  </defs>
  <path
     d="m 34.23,33.45 a 4.05,4.05 0 0 0 4.05,4 h 16.51 a 4.34,4.34 0 0 0 0.81,-8.61 3.52,3.52 0 0 0 0.06,-0.66 4.06,4.06 0 0 0 -6.13,-3.48 6.08,6.08 0 0 0 -11.25,3.19 6.34,6.34 0 0 0 0.18,1.46 h -0.18 a 4.05,4.05 0 0 0 -4.05,4.1 z"
     stroke="#848b98"
     stroke-miterlimit="10"
     stroke-width="0.5"
     fill="url(#a)"
     id="path18" />
  <path
     d="m 46.5,31.5 h -0.32 a 10.49,10.49 0 0 0 -19.11,-8 7,7 0 0 0 -10.57,6 7.21,7.21 0 0 0 0.1,1.14 7.5,7.5 0 0 0 1.4,14.86 4.19,4.19 0 0 0 0.5,0 v 0 h 28 a 7,7 0 0 0 0,-14 z"
     stroke="#e6effc"
     stroke-miterlimit="10"
     stroke-width="0.5"
     fill="url(#b)"
     id="path20"
     style="stroke:url(#linearGradient841)" />
  <rect
     style="fill:#5f8dd3;stroke-width:0.151555"
     id="rect400-3-0-2"
     width="8.1417284"
     height="1.5544933"
     x="37.146572"
     y="-48.737743"
     ry="0.77724665"
     transform="matrix(-0.42123037,0.90695368,-0.96162398,-0.27437077,0,0)" />
  <rect
     style="fill:#5f8dd3;stroke-width:0.147395"
     id="rect400-3-0-2-1"
     width="7.7354646"
     height="1.5475562"
     x="40.241055"
     y="-40.397316"
     ry="0.77377808"
     transform="matrix(-0.44335322,0.89634699,-0.96593462,-0.25878623,0,0)" />
  <rect
     style="fill:#5f8dd3;stroke-width:0.147395"
     id="rect400-3-0-2-1-1"
     width="7.7354646"
     height="1.5475562"
     x="41.272762"
     y="-45.442558"
     ry="0.77377808"
     transform="matrix(-0.44335322,0.89634699,-0.96593462,-0.25878623,0,0)" />
  <rect
     style="fill:#5f8dd3;stroke-width:0.147395"
     id="rect400-3-0-2-8"
     width="7.7354646"
     height="1.5475562"
     x="35.155064"
     y="-60.297401"
     ry="0.77377808"
     transform="matrix(-0.44335322,0.89634699,-0.96593462,-0.25878623,0,0)" />
  <rect
     style="fill:#5f8dd3;stroke-width:0.147395"
     id="rect400-3-0-2-7"
     width="7.7354646"
     height="1.5475562"
     x="37.947777"
     y="-55.568489"
     ry="0.77377808"
     transform="matrix(-0.44335322,0.89634699,-0.96593462,-0.25878623,0,0)" />
</svg>
