<?xml version="1.0" encoding="UTF-8" standalone="no"?>
<svg
   width="300"
   height="300"
   viewBox="0 0 79.374998 79.375002"
   version="1.1"
   id="svg8"
   xmlns:xlink="http://www.w3.org/1999/xlink"
   xmlns="http://www.w3.org/2000/svg"
   xmlns:svg="http://www.w3.org/2000/svg"
   xmlns:rdf="http://www.w3.org/1999/02/22-rdf-syntax-ns#"
   xmlns:cc="http://creativecommons.org/ns#"
   xmlns:dc="http://purl.org/dc/elements/1.1/">
  <defs
     id="defs2">
    <linearGradient
       xlink:href="#b"
       id="linearGradient1068"
       gradientUnits="userSpaceOnUse"
       gradientTransform="matrix(1.0000126,0,0,1.0000126,-97.167356,-13.874988)"
       x1="26.74"
       y1="37.880001"
       x2="35.759998"
       y2="53.52" />
    <linearGradient
       id="b"
       x1="26.74"
       x2="35.759998"
       y1="37.880001"
       y2="53.52"
       gradientUnits="userSpaceOnUse"
       gradientTransform="translate(8.0297523,-0.51443458)">
      <stop
         offset="0"
         stop-color="#f7b23b"
         id="stop9" />
      <stop
         offset=".45"
         stop-color="#f7b23b"
         id="stop11" />
      <stop
         offset="1"
         stop-color="#f59e0b"
         id="stop13" />
    </linearGradient>
  </defs>
  <metadata
     id="metadata5">
    <rdf:RDF>
      <cc:Work
         rdf:about="">
        <dc:format>image/svg+xml</dc:format>
        <dc:type
           rdf:resource="http://purl.org/dc/dcmitype/StillImage" />
      </cc:Work>
    </rdf:RDF>
  </metadata>
  <g
     id="g1046"
     transform="translate(-112.8696,4.5871548)">
    <g
       id="g961"
       transform="translate(113.18156,-4.3556198)">
      <path
         id="path14-7-5-36"
         style="fill:#b2b2b2;fill-opacity:1;stroke:#848484;stroke-width:0.79375;stroke-miterlimit:4;stroke-dasharray:none;stroke-opacity:1"
         d="m 45.057712,8.863542 a 17.249422,16.073324 0 0 0 -14.566037,7.48378 12.103772,12.103772 0 0 0 -2.627746,-0.289388 12.103772,12.103772 0 0 0 -12.103653,12.103654 12.103772,12.103772 0 0 0 0.01602,0.431498 c -4.905628,1.305441 -8.500256,5.760839 -8.500256,11.08873 0,6.358908 5.119458,11.478368 11.478369,11.478368 h 42.371054 c 6.35891,0 11.47785,-5.11946 11.47785,-11.478368 0,-6.088155 -4.69341,-11.0362 -10.67376,-11.446849 A 17.249422,16.073324 0 0 0 62.306793,24.936979 17.249422,16.073324 0 0 0 45.057712,8.863542 Z" />
      <path
         id="path14-7-5-3-6"
         style="fill:#e6e6e6;fill-opacity:1;stroke:#b7b7b7;stroke-width:0.833438;stroke-miterlimit:4;stroke-dasharray:none;stroke-opacity:1"
         d="M 34.440105,0.185184 A 15.676184,14.045937 0 0 0 21.202773,6.725172 10.999844,10.577079 0 0 0 18.814779,6.472319 10.999844,10.577079 0 0 0 7.81514,17.04927 10.999844,10.577079 0 0 0 7.82979,17.425836 c -4.458207,1.140782 -7.725027,5.034474 -7.725027,9.690339 0,3.936425 2.33613,7.326799 5.75212,8.970849 1.085404,-4.190852 4.358216,-7.481893 8.538399,-8.594282 A 12.70896,12.70896 0 0 1 14.378462,27.039668 12.70896,12.70896 0 0 1 27.087298,14.330833 12.70896,12.70896 0 0 1 29.846432,14.63469 18.111893,16.87699 0 0 1 45.140771,6.776719 18.111893,16.87699 0 0 1 47.854869,6.967715 15.676184,14.045937 0 0 0 34.440648,0.185184 Z" />
    </g>
  </g>
  <g
     id="g1120"
     transform="translate(0.28083449,-2.1957777)">
    <g
       id="g1093"
       transform="translate(13.209484,-22.067978)">
      <rect
         transform="matrix(-0.43598643,0.89995324,-0.96456559,-0.26384318,0,0)"
         ry="1.1824861"
         y="-58.297047"
         x="69.861389"
         height="2.3649721"
         width="12.004025"
         id="rect400-3-0-2-3"
         style="fill:#5491bd;fill-opacity:1;stroke-width:0.226983" />
      <rect
         transform="matrix(-0.43598643,0.89995324,-0.96456559,-0.26384318,0,0)"
         ry="1.1824861"
         y="-63.921402"
         x="73.37339"
         height="2.3649721"
         width="12.004025"
         id="rect400-3-0-2-6-6"
         style="fill:#5491bd;fill-opacity:1;stroke-width:0.226983" />
    </g>
    <g
       id="g1099"
       transform="translate(-0.42066322,-4.0962687)">
      <rect
         transform="matrix(-0.43598643,0.89995324,-0.96456559,-0.26384318,0,0)"
         ry="1.1824861"
         y="-52.32568"
         x="51.642441"
         height="2.3649721"
         width="12.004025"
         id="rect400-3-0-2"
         style="fill:#5491bd;fill-opacity:1;stroke-width:0.226983" />
      <rect
         transform="matrix(-0.43598643,0.89995324,-0.96456559,-0.26384318,0,0)"
         ry="1.1824861"
         y="-41.711411"
         x="54.754269"
         height="2.3649721"
         width="12.004025"
         id="rect400-3-0-2-1"
         style="fill:#5491bd;fill-opacity:1;stroke-width:0.226983" />
      <rect
         transform="matrix(-0.43598643,0.89995324,-0.96456559,-0.26384318,0,0)"
         ry="1.1824861"
         y="-57.950035"
         x="55.154438"
         height="2.3649721"
         width="12.004025"
         id="rect400-3-0-2-6"
         style="fill:#5491bd;fill-opacity:1;stroke-width:0.226983" />
      <rect
         transform="matrix(-0.43598643,0.89995324,-0.96456559,-0.26384318,0,0)"
         ry="1.1824861"
         y="-47.33577"
         x="58.266266"
         height="2.3649721"
         width="12.004025"
         id="rect400-3-0-2-1-7"
         style="fill:#5491bd;fill-opacity:1;stroke-width:0.226983" />
    </g>
    <g
       id="g1105"
       transform="translate(-0.42066322,-4.096284)">
      <rect
         transform="matrix(-0.43598643,0.89995324,-0.96456559,-0.26384318,0,0)"
         ry="1.1824861"
         y="-73.554268"
         x="45.418777"
         height="2.3649721"
         width="12.004025"
         id="rect400-3"
         style="fill:#5491bd;fill-opacity:1;stroke-width:0.226983" />
      <rect
         transform="matrix(-0.43598643,0.89995324,-0.96456559,-0.26384318,0,0)"
         ry="1.1824861"
         y="-84.168541"
         x="42.30695"
         height="2.3649721"
         width="12.004025"
         id="rect400-3-0-2-7"
         style="fill:#5491bd;fill-opacity:1;stroke-width:0.226983" />
      <rect
         transform="matrix(-0.43598643,0.89995324,-0.96456559,-0.26384318,0,0)"
         ry="1.1824861"
         y="-79.178635"
         x="48.930775"
         height="2.3649721"
         width="12.004025"
         id="rect400-3-3"
         style="fill:#5491bd;fill-opacity:1;stroke-width:0.226983" />
      <rect
         transform="matrix(-0.43598643,0.89995324,-0.96456559,-0.26384318,0,0)"
         ry="1.1824861"
         y="-89.7929"
         x="45.818943"
         height="2.3649721"
         width="12.004025"
         id="rect400-3-0-2-7-5"
         style="fill:#5491bd;fill-opacity:1;stroke-width:0.226983" />
    </g>
  </g>
</svg>
