<?xml version="1.0" encoding="UTF-8" standalone="no"?>
<svg
   viewBox="0 0 79.374 79.374"
   version="1.1"
   id="svg33"
   sodipodi:docname="314d-shower-drizzle.svg"
   inkscape:version="1.1.2 (0a00cf5339, 2022-02-04)"
   width="300"
   height="300"
   xmlns:inkscape="http://www.inkscape.org/namespaces/inkscape"
   xmlns:sodipodi="http://sodipodi.sourceforge.net/DTD/sodipodi-0.dtd"
   xmlns:xlink="http://www.w3.org/1999/xlink"
   xmlns="http://www.w3.org/2000/svg"
   xmlns:svg="http://www.w3.org/2000/svg">
  <sodipodi:namedview
     id="namedview35"
     pagecolor="#ffffff"
     bordercolor="#666666"
     borderopacity="1.0"
     inkscape:pageshadow="2"
     inkscape:pageopacity="0.0"
     inkscape:pagecheckerboard="0"
     showgrid="false"
     inkscape:zoom="1.1476675"
     inkscape:cx="-59.686278"
     inkscape:cy="91.489916"
     inkscape:window-width="1557"
     inkscape:window-height="750"
     inkscape:window-x="34"
     inkscape:window-y="228"
     inkscape:window-maximized="0"
     inkscape:current-layer="svg33" />
  <defs
     id="defs23">
    <linearGradient
       id="a"
       x1="16.5"
       y1="19.67"
       x2="21.5"
       y2="28.33"
       gradientUnits="userSpaceOnUse"
       gradientTransform="translate(8.29,-0.75)">
      <stop
         offset="0"
         stop-color="#fbbf24"
         id="stop2" />
      <stop
         offset="0.45"
         stop-color="#fbbf24"
         id="stop4" />
      <stop
         offset="1"
         stop-color="#f59e0b"
         id="stop6" />
    </linearGradient>
    <linearGradient
       id="b"
       x1="40.759998"
       y1="23"
       x2="50.830002"
       y2="40.459999"
       gradientUnits="userSpaceOnUse">
      <stop
         offset="0"
         stop-color="#9ca3af"
         id="stop9" />
      <stop
         offset="0.45"
         stop-color="#9ca3af"
         id="stop11" />
      <stop
         offset="1"
         stop-color="#6b7280"
         id="stop13" />
    </linearGradient>
    <linearGradient
       id="c"
       x1="22.559999"
       y1="21.959999"
       x2="39.200001"
       y2="50.799999"
       gradientUnits="userSpaceOnUse"
       gradientTransform="translate(8.29,-0.75)">
      <stop
         offset="0"
         stop-color="#f3f7fe"
         id="stop16" />
      <stop
         offset="0.45"
         stop-color="#f3f7fe"
         id="stop18" />
      <stop
         offset="1"
         stop-color="#deeafb"
         id="stop20" />
    </linearGradient>
    <linearGradient
       id="b-3"
       x1="22.559999"
       y1="21.959999"
       x2="39.200001"
       y2="50.799999"
       gradientUnits="userSpaceOnUse"
       gradientTransform="translate(3.0329841)"
       xlink:href="#b">
      <stop
         offset="0"
         stop-color="#f3f7fe"
         id="stop9-6" />
      <stop
         offset="0.45"
         stop-color="#f3f7fe"
         id="stop11-7" />
      <stop
         offset="1"
         stop-color="#deeafb"
         id="stop13-5" />
    </linearGradient>
    <linearGradient
       id="b-6-5"
       x1="23.309999"
       y1="44.299999"
       x2="24.690001"
       y2="46.700001"
       gradientUnits="userSpaceOnUse">
      <stop
         offset="0"
         stop-color="#4286ee"
         id="stop9-7-6" />
      <stop
         offset="0.45"
         stop-color="#4286ee"
         id="stop11-5-2" />
      <stop
         offset="1"
         stop-color="#0950bc"
         id="stop13-3-9" />
    </linearGradient>
    <linearGradient
       inkscape:collect="always"
       xlink:href="#b"
       id="linearGradient1402"
       gradientUnits="userSpaceOnUse"
       x1="40.759998"
       y1="23"
       x2="50.830002"
       y2="40.459999"
       gradientTransform="translate(8.29,-0.75)" />
    <linearGradient
       inkscape:collect="always"
       xlink:href="#b-6-5"
       id="linearGradient1796"
       x1="-21.591967"
       y1="71.115211"
       x2="-14.375769"
       y2="71.115211"
       gradientUnits="userSpaceOnUse"
       gradientTransform="matrix(1.1032383,0,0,1.1032383,-0.37201416,-27.456539)" />
    <linearGradient
       inkscape:collect="always"
       xlink:href="#b-6-5"
       id="linearGradient1804"
       x1="-75.199387"
       y1="-20.787359"
       x2="-67.704475"
       y2="-20.787359"
       gradientUnits="userSpaceOnUse"
       gradientTransform="translate(22.179934,3.5612256)" />
    <linearGradient
       inkscape:collect="always"
       xlink:href="#b-6-5"
       id="linearGradient2172"
       gradientUnits="userSpaceOnUse"
       gradientTransform="matrix(0.93932464,0,0,0.93932464,0.92690677,-9.313371)"
       x1="-21.591967"
       y1="71.115211"
       x2="-14.375769"
       y2="71.115211" />
    <linearGradient
       inkscape:collect="always"
       xlink:href="#b-6-5"
       id="linearGradient2350"
       gradientUnits="userSpaceOnUse"
       gradientTransform="translate(14.402113,6.8456969)"
       x1="-75.199387"
       y1="-20.787359"
       x2="-67.704475"
       y2="-20.787359" />
  </defs>
  <path
     d="m 42.52,32.7 a 4.05,4.05 0 0 0 4.05,4 h 16.51 a 4.34,4.34 0 0 0 0.81,-8.61 3.52,3.52 0 0 0 0.06,-0.66 4.06,4.06 0 0 0 -6.13,-3.48 6.08,6.08 0 0 0 -11.25,3.19 6.34,6.34 0 0 0 0.18,1.46 h -0.18 a 4.05,4.05 0 0 0 -4.05,4.1 z"
     stroke="#848b98"
     stroke-miterlimit="10"
     stroke-width="0.5"
     fill="url(#b)"
     id="path29"
     style="fill:url(#linearGradient1402)" />
  <path
     d="m 54.79,30.75 h -0.32 a 10.49,10.49 0 0 0 -19.11,-8 7,7 0 0 0 -10.57,6 7.21,7.21 0 0 0 0.1,1.14 7.5,7.5 0 0 0 1.4,14.86 4.19,4.19 0 0 0 0.5,0 v 0 h 28 a 7,7 0 0 0 0,-14 z"
     stroke="#e6effc"
     stroke-miterlimit="10"
     stroke-width="0.5"
     fill="url(#c)"
     id="path31"
     style="fill:url(#c)" />
  <rect
     style="fill:#5f8dd3;stroke-width:0.151555"
     id="rect400-3-0-2"
     width="8.1417284"
     height="1.5544933"
     x="34.166813"
     y="-55.450974"
     ry="0.77724665"
     transform="matrix(-0.42123037,0.90695368,-0.96162398,-0.27437077,0,0)" />
  <rect
     style="fill:#5f8dd3;stroke-width:0.147395"
     id="rect400-3-0-2-8"
     width="7.7354646"
     height="1.5475562"
     x="32.272266"
     y="-66.956932"
     ry="0.77377808"
     transform="matrix(-0.44335322,0.89634699,-0.96593462,-0.25878623,0,0)" />
  <rect
     style="fill:#5f8dd3;stroke-width:0.147395"
     id="rect400-3-0-2-7"
     width="7.7354646"
     height="1.5475562"
     x="35.06498"
     y="-62.228024"
     ry="0.77377808"
     transform="matrix(-0.44335322,0.89634699,-0.96593462,-0.25878623,0,0)" />
  <rect
     transform="matrix(-0.67834078,-0.73474743,0.67834078,-0.73474743,0,0)"
     y="-17.777229"
     x="-53.019455"
     height="1.1021934"
     width="7.4949136"
     id="rect66-3-7"
     style="fill:url(#linearGradient1804);fill-opacity:1;stroke-width:0.173412" />
  <rect
     transform="matrix(0.7262127,-0.68747008,0.7262127,0.68747008,0,0)"
     y="50.415108"
     x="-24.193098"
     height="1.1707628"
     width="7.961185"
     id="rect66-6"
     style="fill:url(#linearGradient1796);fill-opacity:1;stroke-width:0.1842" />
  <rect
     transform="matrix(0.70193817,-0.71223788,0.70193817,0.71223788,0,0)"
     y="56.988495"
     x="-19.354958"
     height="0.99681669"
     width="6.7783523"
     id="rect66-6-6"
     style="fill:url(#linearGradient2172);fill-opacity:1;stroke-width:0.156832" />
  <rect
     transform="matrix(-0.67834078,-0.73474743,0.67834078,-0.73474743,0,0)"
     y="-14.492758"
     x="-60.797272"
     height="1.1021934"
     width="7.4949136"
     id="rect66-3-7-3"
     style="fill:url(#linearGradient2350);fill-opacity:1;stroke-width:0.173412" />
</svg>
