<?xml version="1.0" encoding="UTF-8" standalone="no"?>
<svg
   id="svg8"
   version="1.1"
   viewBox="0 0 79.374998 79.375002"
   height="300"
   width="300"
   xmlns:xlink="http://www.w3.org/1999/xlink"
   xmlns="http://www.w3.org/2000/svg"
   xmlns:svg="http://www.w3.org/2000/svg"
   xmlns:rdf="http://www.w3.org/1999/02/22-rdf-syntax-ns#"
   xmlns:cc="http://creativecommons.org/ns#"
   xmlns:dc="http://purl.org/dc/elements/1.1/">
  <defs
     id="defs2">
    <linearGradient
       xlink:href="#linearGradient840-7"
       id="linearGradient842-2"
       x1="71.640686"
       y1="50.062809"
       x2="43.170097"
       y2="29.449696"
       gradientUnits="userSpaceOnUse"
       gradientTransform="translate(0.03938174,0.11101371)" />
    <linearGradient
       id="linearGradient840-7">
      <stop
         style="stop-color:#dfefff;stop-opacity:1"
         offset="0"
         id="stop836-0" />
      <stop
         style="stop-color:#ffffff;stop-opacity:1"
         offset="1"
         id="stop838-9" />
    </linearGradient>
    <linearGradient
       xlink:href="#linearGradient840-7"
       id="linearGradient8265"
       gradientUnits="userSpaceOnUse"
       gradientTransform="translate(0.03938165,0.11100866)"
       x1="71.640686"
       y1="50.062809"
       x2="43.170097"
       y2="29.449696" />
  </defs>
  <metadata
     id="metadata5">
    <rdf:RDF>
      <cc:Work
         rdf:about="">
        <dc:format>image/svg+xml</dc:format>
        <dc:type
           rdf:resource="http://purl.org/dc/dcmitype/StillImage" />
      </cc:Work>
    </rdf:RDF>
  </metadata>
  <path
     id="path2142-2-6"
     style="fill:#fbd624;fill-opacity:1;stroke:none;stroke-width:0.720956;stroke-opacity:1"
     d="M 67.907767,0.42583527 A 12.164862,12.164848 0 0 0 60.740663,3.6395146 12.164862,12.164848 0 0 0 60.149553,20.833196 12.164862,12.164848 0 0 0 77.343256,21.424307 12.164862,12.164848 0 0 0 79.172594,19.265841 12.164862,12.164848 0 0 1 69.141689,15.461575 12.164862,12.164848 0 0 1 67.907767,0.42583527 Z" />
  <path
     id="path14-7-5-36-7"
     style="fill:url(#linearGradient8265);fill-opacity:1;stroke:#9f9696;stroke-width:0.79375;stroke-miterlimit:4;stroke-dasharray:none;stroke-opacity:1"
     d="m 45.057734,8.8635417 a 17.249422,16.073324 0 0 0 -14.56604,7.4837813 12.103772,12.103772 0 0 0 -2.62774,-0.289388 12.103772,12.103772 0 0 0 -12.103653,12.103654 12.103772,12.103772 0 0 0 0.016,0.431498 c -4.90563,1.305439 -8.5002593,5.760839 -8.5002593,11.088729 0,6.35891 5.1194593,11.47837 11.4783693,11.47837 h 42.371053 c 6.35891,0 11.47785,-5.11946 11.47785,-11.47837 0,-6.08815 -4.69341,-11.036199 -10.67376,-11.446848 A 17.249422,16.073324 0 0 0 62.306784,24.93698 17.249422,16.073324 0 0 0 45.057714,8.8635417 Z" />
  <rect
     transform="matrix(-0.43598643,0.89995324,-0.96456559,-0.26384318,0,0)"
     ry="1.1824861"
     y="-71.019775"
     x="40.222794"
     height="2.3649721"
     width="12.004025"
     id="rect400-3"
     style="fill:#5491bd;fill-opacity:1;stroke-width:0.226983" />
  <rect
     transform="matrix(-0.43598643,0.89995324,-0.96456559,-0.26384318,0,0)"
     ry="1.1824861"
     y="-49.791241"
     x="46.446453"
     height="2.3649721"
     width="12.004025"
     id="rect400-3-0-2"
     style="fill:#5491bd;fill-opacity:1;stroke-width:0.226983" />
  <rect
     transform="matrix(-0.43598643,0.89995324,-0.96456559,-0.26384318,0,0)"
     ry="1.1824861"
     y="-60.40551"
     x="43.334625"
     height="2.3649721"
     width="12.004025"
     id="rect400-3-0-2-3"
     style="fill:#5491bd;fill-opacity:1;stroke-width:0.226983" />
  <rect
     transform="matrix(-0.43598643,0.89995324,-0.96456559,-0.26384318,0,0)"
     ry="1.1824861"
     y="-39.176975"
     x="49.558285"
     height="2.3649721"
     width="12.004025"
     id="rect400-3-0-2-1"
     style="fill:#5491bd;fill-opacity:1;stroke-width:0.226983" />
  <rect
     transform="matrix(-0.43598643,0.89995324,-0.96456559,-0.26384318,0,0)"
     ry="1.1824861"
     y="-81.634041"
     x="37.110966"
     height="2.3649721"
     width="12.004025"
     id="rect400-3-0-2-7"
     style="fill:#5491bd;fill-opacity:1;stroke-width:0.226983" />
</svg>
