<?xml version="1.0" encoding="UTF-8" standalone="no"?>
<svg
   viewBox="0 0 79.374 79.374"
   version="1.1"
   id="svg33"
   sodipodi:docname="314d-shower-drizzle.svg"
   inkscape:version="1.1.2 (0a00cf5339, 2022-02-04)"
   width="300"
   height="300"
   xmlns:inkscape="http://www.inkscape.org/namespaces/inkscape"
   xmlns:sodipodi="http://sodipodi.sourceforge.net/DTD/sodipodi-0.dtd"
   xmlns:xlink="http://www.w3.org/1999/xlink"
   xmlns="http://www.w3.org/2000/svg"
   xmlns:svg="http://www.w3.org/2000/svg">
  <sodipodi:namedview
     id="namedview35"
     pagecolor="#ffffff"
     bordercolor="#666666"
     borderopacity="1.0"
     inkscape:pageshadow="2"
     inkscape:pageopacity="0.0"
     inkscape:pagecheckerboard="0"
     showgrid="false"
     inkscape:zoom="1.6230469"
     inkscape:cx="49.598074"
     inkscape:cy="173.13116"
     inkscape:window-width="1557"
     inkscape:window-height="750"
     inkscape:window-x="34"
     inkscape:window-y="228"
     inkscape:window-maximized="0"
     inkscape:current-layer="svg33" />
  <defs
     id="defs23">
    <linearGradient
       id="a"
       x1="16.5"
       y1="19.67"
       x2="21.5"
       y2="28.33"
       gradientUnits="userSpaceOnUse"
       gradientTransform="translate(8.29,-0.75)">
      <stop
         offset="0"
         stop-color="#fbbf24"
         id="stop2" />
      <stop
         offset="0.45"
         stop-color="#fbbf24"
         id="stop4" />
      <stop
         offset="1"
         stop-color="#f59e0b"
         id="stop6" />
    </linearGradient>
    <linearGradient
       id="b"
       x1="40.759998"
       y1="23"
       x2="50.830002"
       y2="40.459999"
       gradientUnits="userSpaceOnUse">
      <stop
         offset="0"
         stop-color="#9ca3af"
         id="stop9" />
      <stop
         offset="0.45"
         stop-color="#9ca3af"
         id="stop11" />
      <stop
         offset="1"
         stop-color="#6b7280"
         id="stop13" />
    </linearGradient>
    <linearGradient
       id="c"
       x1="22.559999"
       y1="21.959999"
       x2="39.200001"
       y2="50.799999"
       gradientUnits="userSpaceOnUse"
       gradientTransform="translate(8.29,-0.75)">
      <stop
         offset="0"
         stop-color="#f3f7fe"
         id="stop16" />
      <stop
         offset="0.45"
         stop-color="#f3f7fe"
         id="stop18" />
      <stop
         offset="1"
         stop-color="#deeafb"
         id="stop20" />
    </linearGradient>
    <linearGradient
       id="b-3"
       x1="22.559999"
       y1="21.959999"
       x2="39.200001"
       y2="50.799999"
       gradientUnits="userSpaceOnUse"
       gradientTransform="translate(3.0329841)"
       xlink:href="#b">
      <stop
         offset="0"
         stop-color="#f3f7fe"
         id="stop9-6" />
      <stop
         offset="0.45"
         stop-color="#f3f7fe"
         id="stop11-7" />
      <stop
         offset="1"
         stop-color="#deeafb"
         id="stop13-5" />
    </linearGradient>
    <linearGradient
       id="b-6-5"
       x1="23.309999"
       y1="44.299999"
       x2="24.690001"
       y2="46.700001"
       gradientUnits="userSpaceOnUse">
      <stop
         offset="0"
         stop-color="#4286ee"
         id="stop9-7-6" />
      <stop
         offset="0.45"
         stop-color="#4286ee"
         id="stop11-5-2" />
      <stop
         offset="1"
         stop-color="#0950bc"
         id="stop13-3-9" />
    </linearGradient>
    <linearGradient
       inkscape:collect="always"
       xlink:href="#b"
       id="linearGradient1402"
       gradientUnits="userSpaceOnUse"
       x1="40.759998"
       y1="23"
       x2="50.830002"
       y2="40.459999"
       gradientTransform="translate(8.29,-0.75)" />
  </defs>
  <circle
     cx="27.290001"
     cy="23.25"
     r="5"
     stroke="#f8af18"
     stroke-miterlimit="10"
     stroke-width="0.5"
     fill="url(#a)"
     id="circle25"
     style="fill:url(#a)" />
  <path
     d="m 27.03,14.42 v -3.17 m 0,23 v -3.17 m 5.89,-14.22 2.24,-2.24 M 18.9,30.88 21.14,28.64 m 0,-11.78 -2.24,-2.24 M 35.16,30.88 32.92,28.64 M 15.53,22.75 h 3.17 m 19.83,0 h -3.17"
     fill="none"
     stroke="#fbbf24"
     stroke-linecap="round"
     stroke-miterlimit="10"
     stroke-width="2"
     id="path27" />
  <path
     d="m 42.52,32.7 a 4.05,4.05 0 0 0 4.05,4 h 16.51 a 4.34,4.34 0 0 0 0.81,-8.61 3.52,3.52 0 0 0 0.06,-0.66 4.06,4.06 0 0 0 -6.13,-3.48 6.08,6.08 0 0 0 -11.25,3.19 6.34,6.34 0 0 0 0.18,1.46 h -0.18 a 4.05,4.05 0 0 0 -4.05,4.1 z"
     stroke="#848b98"
     stroke-miterlimit="10"
     stroke-width="0.5"
     fill="url(#b)"
     id="path29"
     style="fill:url(#linearGradient1402)" />
  <path
     d="m 54.79,30.75 h -0.32 a 10.49,10.49 0 0 0 -19.11,-8 7,7 0 0 0 -10.57,6 7.21,7.21 0 0 0 0.1,1.14 7.5,7.5 0 0 0 1.4,14.86 4.19,4.19 0 0 0 0.5,0 v 0 h 28 a 7,7 0 0 0 0,-14 z"
     stroke="#e6effc"
     stroke-miterlimit="10"
     stroke-width="0.5"
     fill="url(#c)"
     id="path31"
     style="fill:url(#c)" />
  <rect
     style="fill:#5f8dd3;stroke-width:0.151555"
     id="rect400-3-0-2"
     width="8.1417284"
     height="1.5544933"
     x="34.166813"
     y="-55.450974"
     ry="0.77724665"
     transform="matrix(-0.42123037,0.90695368,-0.96162398,-0.27437077,0,0)" />
  <rect
     style="fill:#5f8dd3;stroke-width:0.147395"
     id="rect400-3-0-2-1"
     width="7.7354646"
     height="1.5475562"
     x="37.358257"
     y="-47.05685"
     ry="0.77377808"
     transform="matrix(-0.44335322,0.89634699,-0.96593462,-0.25878623,0,0)" />
  <rect
     style="fill:#5f8dd3;stroke-width:0.147395"
     id="rect400-3-0-2-1-1"
     width="7.7354646"
     height="1.5475562"
     x="38.389965"
     y="-52.102093"
     ry="0.77377808"
     transform="matrix(-0.44335322,0.89634699,-0.96593462,-0.25878623,0,0)" />
  <rect
     style="fill:#5f8dd3;stroke-width:0.147395"
     id="rect400-3-0-2-8"
     width="7.7354646"
     height="1.5475562"
     x="32.272266"
     y="-66.956932"
     ry="0.77377808"
     transform="matrix(-0.44335322,0.89634699,-0.96593462,-0.25878623,0,0)" />
  <rect
     style="fill:#5f8dd3;stroke-width:0.147395"
     id="rect400-3-0-2-7"
     width="7.7354646"
     height="1.5475562"
     x="35.06498"
     y="-62.228024"
     ry="0.77377808"
     transform="matrix(-0.44335322,0.89634699,-0.96593462,-0.25878623,0,0)" />
</svg>
