<?xml version="1.0" encoding="UTF-8" standalone="no"?>
<svg
   id="svg8"
   version="1.1"
   viewBox="0 0 79.374998 79.375002"
   height="300"
   width="300"
   xmlns:xlink="http://www.w3.org/1999/xlink"
   xmlns="http://www.w3.org/2000/svg"
   xmlns:svg="http://www.w3.org/2000/svg"
   xmlns:rdf="http://www.w3.org/1999/02/22-rdf-syntax-ns#"
   xmlns:cc="http://creativecommons.org/ns#"
   xmlns:dc="http://purl.org/dc/elements/1.1/">
  <defs
     id="defs2">
    <linearGradient
       xlink:href="#linearGradient840-7"
       id="linearGradient842-2"
       x1="71.640686"
       y1="50.062809"
       x2="43.170097"
       y2="29.449696"
       gradientUnits="userSpaceOnUse"
       gradientTransform="translate(0.03938174,0.11101371)" />
    <linearGradient
       id="linearGradient840-7">
      <stop
         style="stop-color:#dfefff;stop-opacity:1"
         offset="0"
         id="stop836-0" />
      <stop
         style="stop-color:#ffffff;stop-opacity:1"
         offset="1"
         id="stop838-9" />
    </linearGradient>
    <linearGradient
       xlink:href="#linearGradient840-7"
       id="linearGradient8265"
       gradientUnits="userSpaceOnUse"
       gradientTransform="translate(1.565884,17.226243)"
       x1="71.640686"
       y1="50.062809"
       x2="43.170097"
       y2="29.449696" />
  </defs>
  <metadata
     id="metadata5">
    <rdf:RDF>
      <cc:Work
         rdf:about="">
        <dc:format>image/svg+xml</dc:format>
        <dc:type
           rdf:resource="http://purl.org/dc/dcmitype/StillImage" />
      </cc:Work>
    </rdf:RDF>
  </metadata>
  <path
     id="path2142-2-6"
     style="fill:#fbd624;fill-opacity:1;stroke:none;stroke-width:0.720956;stroke-opacity:1"
     d="M 67.907871,0.55543883 A 12.164848,12.164848 0 0 0 60.740775,3.7691178 12.164848,12.164848 0 0 0 60.149666,20.9628 12.164848,12.164848 0 0 0 77.343348,21.553911 12.164848,12.164848 0 0 0 79.172684,19.395445 12.164848,12.164848 0 0 1 69.141791,15.591179 12.164848,12.164848 0 0 1 67.907871,0.55543883 Z" />
  <g
     id="g928"
     transform="translate(-0.80155991,-16.985423)">
    <path
       id="path14-7-5-3"
       style="fill:#e6e6e6;fill-opacity:1;stroke:#b7b7b7;stroke-width:0.833438;stroke-miterlimit:4;stroke-dasharray:none;stroke-opacity:1"
       d="M 35.553626,17.402142 A 15.676184,14.045937 0 0 0 22.316294,23.94213 10.999844,10.577079 0 0 0 19.9283,23.689277 10.999844,10.577079 0 0 0 8.9286612,34.266228 a 10.999844,10.577079 0 0 0 0.01465,0.376566 c -4.4582055,1.140782 -7.7250323,5.034474 -7.7250323,9.690339 0,3.936425 2.336133,7.326799 5.7521294,8.970849 C 8.0558084,49.11313 11.32862,45.822089 15.508803,44.7097 a 12.70896,12.70896 0 0 1 -0.01682,-0.453074 12.70896,12.70896 0 0 1 12.708836,-12.708835 12.70896,12.70896 0 0 1 2.759134,0.303857 18.111893,16.87699 0 0 1 15.294339,-7.857971 18.111893,16.87699 0 0 1 2.714098,0.190996 15.676184,14.045937 0 0 0 -13.414221,-6.782531 z" />
    <path
       id="path14-7-5-36-7"
       style="fill:url(#linearGradient8265);fill-opacity:1;stroke:#9f9696;stroke-width:0.79375;stroke-miterlimit:4;stroke-dasharray:none;stroke-opacity:1"
       d="m 46.584236,25.978776 a 17.249422,16.073324 0 0 0 -14.56604,7.483781 12.103772,12.103772 0 0 0 -2.62774,-0.289388 12.103772,12.103772 0 0 0 -12.103653,12.103654 12.103772,12.103772 0 0 0 0.016,0.431498 c -4.90563,1.305439 -8.500259,5.760839 -8.500259,11.088729 0,6.35891 5.119459,11.47837 11.478369,11.47837 h 42.371053 c 6.35891,0 11.47785,-5.11946 11.47785,-11.47837 0,-6.08815 -4.69341,-11.036199 -10.67376,-11.446848 a 17.249422,16.073324 0 0 0 0.37723,-3.297988 17.249422,16.073324 0 0 0 -17.24907,-16.073438 z" />
  </g>
  <g
     id="g1120"
     transform="translate(0.28083449,-2.1957777)">
    <g
       id="g1093"
       transform="translate(13.209484,-22.067978)">
      <rect
         transform="matrix(-0.43598643,0.89995324,-0.96456559,-0.26384318,0,0)"
         ry="1.1824861"
         y="-58.297047"
         x="69.861389"
         height="2.3649721"
         width="12.004025"
         id="rect400-3-0-2-3"
         style="fill:#5491bd;fill-opacity:1;stroke-width:0.226983" />
      <rect
         transform="matrix(-0.43598643,0.89995324,-0.96456559,-0.26384318,0,0)"
         ry="1.1824861"
         y="-63.921402"
         x="73.37339"
         height="2.3649721"
         width="12.004025"
         id="rect400-3-0-2-6-6"
         style="fill:#5491bd;fill-opacity:1;stroke-width:0.226983" />
    </g>
    <g
       id="g1099"
       transform="translate(-0.42066322,-4.0962687)">
      <rect
         transform="matrix(-0.43598643,0.89995324,-0.96456559,-0.26384318,0,0)"
         ry="1.1824861"
         y="-52.32568"
         x="51.642441"
         height="2.3649721"
         width="12.004025"
         id="rect400-3-0-2"
         style="fill:#5491bd;fill-opacity:1;stroke-width:0.226983" />
      <rect
         transform="matrix(-0.43598643,0.89995324,-0.96456559,-0.26384318,0,0)"
         ry="1.1824861"
         y="-41.711411"
         x="54.754269"
         height="2.3649721"
         width="12.004025"
         id="rect400-3-0-2-1"
         style="fill:#5491bd;fill-opacity:1;stroke-width:0.226983" />
      <rect
         transform="matrix(-0.43598643,0.89995324,-0.96456559,-0.26384318,0,0)"
         ry="1.1824861"
         y="-57.950035"
         x="55.154438"
         height="2.3649721"
         width="12.004025"
         id="rect400-3-0-2-6"
         style="fill:#5491bd;fill-opacity:1;stroke-width:0.226983" />
      <rect
         transform="matrix(-0.43598643,0.89995324,-0.96456559,-0.26384318,0,0)"
         ry="1.1824861"
         y="-47.33577"
         x="58.266266"
         height="2.3649721"
         width="12.004025"
         id="rect400-3-0-2-1-7"
         style="fill:#5491bd;fill-opacity:1;stroke-width:0.226983" />
    </g>
    <g
       id="g1105"
       transform="translate(-0.42066322,-4.096284)">
      <rect
         transform="matrix(-0.43598643,0.89995324,-0.96456559,-0.26384318,0,0)"
         ry="1.1824861"
         y="-73.554268"
         x="45.418777"
         height="2.3649721"
         width="12.004025"
         id="rect400-3"
         style="fill:#5491bd;fill-opacity:1;stroke-width:0.226983" />
      <rect
         transform="matrix(-0.43598643,0.89995324,-0.96456559,-0.26384318,0,0)"
         ry="1.1824861"
         y="-84.168541"
         x="42.30695"
         height="2.3649721"
         width="12.004025"
         id="rect400-3-0-2-7"
         style="fill:#5491bd;fill-opacity:1;stroke-width:0.226983" />
      <rect
         transform="matrix(-0.43598643,0.89995324,-0.96456559,-0.26384318,0,0)"
         ry="1.1824861"
         y="-79.178635"
         x="48.930775"
         height="2.3649721"
         width="12.004025"
         id="rect400-3-3"
         style="fill:#5491bd;fill-opacity:1;stroke-width:0.226983" />
      <rect
         transform="matrix(-0.43598643,0.89995324,-0.96456559,-0.26384318,0,0)"
         ry="1.1824861"
         y="-89.7929"
         x="45.818943"
         height="2.3649721"
         width="12.004025"
         id="rect400-3-0-2-7-5"
         style="fill:#5491bd;fill-opacity:1;stroke-width:0.226983" />
    </g>
  </g>
</svg>
