<?xml version="1.0" encoding="UTF-8" standalone="no"?>
<svg
   id="svg8"
   version="1.1"
   viewBox="0 0 79.374998 79.375002"
   height="300"
   width="300"
   xmlns:xlink="http://www.w3.org/1999/xlink"
   xmlns="http://www.w3.org/2000/svg"
   xmlns:svg="http://www.w3.org/2000/svg"
   xmlns:rdf="http://www.w3.org/1999/02/22-rdf-syntax-ns#"
   xmlns:cc="http://creativecommons.org/ns#"
   xmlns:dc="http://purl.org/dc/elements/1.1/">
  <defs
     id="defs2">
    <linearGradient
       xlink:href="#linearGradient840-7"
       id="linearGradient842-2"
       x1="71.640686"
       y1="50.062809"
       x2="43.170097"
       y2="29.449696"
       gradientUnits="userSpaceOnUse"
       gradientTransform="translate(0.03936346,0.11101416)" />
    <linearGradient
       id="linearGradient840-7">
      <stop
         style="stop-color:#dfefff;stop-opacity:1"
         offset="0"
         id="stop836-0" />
      <stop
         style="stop-color:#ffffff;stop-opacity:1"
         offset="1"
         id="stop838-9" />
    </linearGradient>
    <linearGradient
       xlink:href="#a"
       id="linearGradient888"
       x1="-19.965029"
       y1="59.949669"
       x2="49.60841"
       y2="59.949669"
       gradientUnits="userSpaceOnUse" />
    <linearGradient
       id="a"
       x1="40.759998"
       y1="23"
       x2="50.830002"
       y2="40.459999"
       gradientUnits="userSpaceOnUse">
      <stop
         offset="0"
         stop-color="#9ca3af"
         id="stop2" />
      <stop
         offset="0.45"
         stop-color="#9ca3af"
         id="stop4" />
      <stop
         offset="1"
         stop-color="#6b7280"
         id="stop6" />
    </linearGradient>
    <linearGradient
       xlink:href="#b"
       id="linearGradient4613"
       x1="-15.909201"
       y1="60.876591"
       x2="47.52467"
       y2="60.876591"
       gradientUnits="userSpaceOnUse" />
    <linearGradient
       id="b"
       x1="22.559999"
       y1="21.959999"
       x2="39.200001"
       y2="50.799999"
       gradientUnits="userSpaceOnUse"
       gradientTransform="translate(3.0329841)"
       xlink:href="#a">
      <stop
         offset="0"
         stop-color="#f3f7fe"
         id="stop9" />
      <stop
         offset="0.45"
         stop-color="#f3f7fe"
         id="stop11" />
      <stop
         offset="1"
         stop-color="#deeafb"
         id="stop13" />
    </linearGradient>
    <linearGradient
       xlink:href="#linearGradient840-7"
       id="linearGradient8265"
       gradientUnits="userSpaceOnUse"
       gradientTransform="translate(0.03938196,0.11100866)"
       x1="71.640686"
       y1="50.062809"
       x2="43.170097"
       y2="29.449696" />
    <linearGradient
       xlink:href="#linearGradient840-7"
       id="linearGradient8265-3"
       gradientUnits="userSpaceOnUse"
       gradientTransform="translate(1.565884,17.226243)"
       x1="71.640686"
       y1="50.062809"
       x2="43.170097"
       y2="29.449696" />
  </defs>
  <metadata
     id="metadata5">
    <rdf:RDF>
      <cc:Work
         rdf:about="">
        <dc:format>image/svg+xml</dc:format>
        <dc:type
           rdf:resource="http://purl.org/dc/dcmitype/StillImage" />
      </cc:Work>
    </rdf:RDF>
  </metadata>
  <g
     id="g928"
     transform="translate(-0.80155991,-12.22292)">
    <path
       id="path14-7-5-3"
       style="fill:#e6e6e6;fill-opacity:1;stroke:#b7b7b7;stroke-width:0.833438;stroke-miterlimit:4;stroke-dasharray:none;stroke-opacity:1"
       d="M 35.553626,17.402142 A 15.676184,14.045937 0 0 0 22.316294,23.94213 10.999844,10.577079 0 0 0 19.9283,23.689277 10.999844,10.577079 0 0 0 8.9286612,34.266228 a 10.999844,10.577079 0 0 0 0.01465,0.376566 c -4.4582055,1.140782 -7.7250323,5.034474 -7.7250323,9.690339 0,3.936425 2.336133,7.326799 5.7521294,8.970849 C 8.0558084,49.11313 11.32862,45.822089 15.508803,44.7097 a 12.70896,12.70896 0 0 1 -0.01682,-0.453074 12.70896,12.70896 0 0 1 12.708836,-12.708835 12.70896,12.70896 0 0 1 2.759134,0.303857 18.111893,16.87699 0 0 1 15.294339,-7.857971 18.111893,16.87699 0 0 1 2.714098,0.190996 15.676184,14.045937 0 0 0 -13.414221,-6.782531 z" />
    <path
       id="path14-7-5-36-7"
       style="fill:url(#linearGradient8265-3);fill-opacity:1;stroke:#9f9696;stroke-width:0.79375;stroke-miterlimit:4;stroke-dasharray:none;stroke-opacity:1"
       d="m 46.584236,25.978776 a 17.249422,16.073324 0 0 0 -14.56604,7.483781 12.103772,12.103772 0 0 0 -2.62774,-0.289388 12.103772,12.103772 0 0 0 -12.103653,12.103654 12.103772,12.103772 0 0 0 0.016,0.431498 c -4.90563,1.305439 -8.500259,5.760839 -8.500259,11.088729 0,6.35891 5.119459,11.47837 11.478369,11.47837 h 42.371053 c 6.35891,0 11.47785,-5.11946 11.47785,-11.47837 0,-6.08815 -4.69341,-11.036199 -10.67376,-11.446848 a 17.249422,16.073324 0 0 0 0.37723,-3.297988 17.249422,16.073324 0 0 0 -17.24907,-16.073438 z" />
  </g>
  <path
     id="rect43"
     d="m 50.233345,50.278508 -0.08312,2.045677 c 1.256914,0.723185 1.940613,1.63071 1.897547,2.691375 -0.152448,3.75472 -9.348821,7.963599 -20.619579,9.436652 -3.408572,0.445468 -6.602726,0.586875 -9.399074,0.465318 l -0.600197,2.107277 c 2.917246,0.146764 6.190251,0.01398 9.66174,-0.439728 12.621385,-1.649576 22.941535,-6.894333 23.139072,-11.759613 0.07727,-1.903118 -1.406127,-3.457903 -3.996393,-4.546958 z"
     style="fill:#cccccc;stroke:none;stroke-width:0.140568" />
  <path
     id="rect43-6"
     d="m 41.211077,52.17802 -0.513313,1.800104 c 1.44841,0.815686 2.133733,1.714704 1.867619,2.648049 -0.942034,3.304017 -13.434301,5.749522 -28.0094,5.482957 C 10.1481,62.02857 6.0725473,61.708473 2.5535066,61.211011 l -1.1808041,1.782575 c 3.6671918,0.536683 7.8409478,0.875299 12.3302025,0.957403 16.321695,0.298512 30.444515,-2.907741 31.665176,-7.189002 0.47748,-1.67467 -1.092055,-3.258394 -4.157004,-4.583967 z"
     style="fill:#cccccc;stroke:none;stroke-width:0.15074" />
  <path
     id="rect43-6-7"
     d="m 56.261663,49.653915 0.34381,3.265309 c 1.388769,1.200333 2.251177,2.674661 2.429468,4.367699 0.631145,5.993302 -5.856586,9.116862 -16.653714,11.067467 -7.69726,1.472894 -4.187809,1.557931 2.758276,1.576968 12.090991,-2.18436 16.823317,-5.104166 16.005494,-12.870142 -0.319902,-3.037762 -2.104842,-5.57478 -4.883334,-7.407301 z"
     style="fill:#cccccc;stroke:none;stroke-width:0.175935" />
</svg>
