<?xml version="1.0" encoding="UTF-8" standalone="no"?>
<svg
   xmlns:dc="http://purl.org/dc/elements/1.1/"
   xmlns:cc="http://creativecommons.org/ns#"
   xmlns:rdf="http://www.w3.org/1999/02/22-rdf-syntax-ns#"
   xmlns:svg="http://www.w3.org/2000/svg"
   xmlns="http://www.w3.org/2000/svg"
   id="svg8"
   version="1.1"
   viewBox="0 0 79.374998 79.375002"
   height="300"
   width="300">
  <defs
     id="defs2" />
  <metadata
     id="metadata5">
    <rdf:RDF>
      <cc:Work
         rdf:about="">
        <dc:format>image/svg+xml</dc:format>
        <dc:type
           rdf:resource="http://purl.org/dc/dcmitype/StillImage" />
        <dc:title></dc:title>
      </cc:Work>
    </rdf:RDF>
  </metadata>
  <path
     style="fill:#cccccc;stroke-width:0.17747766"
     d="m 13.602787,20.140845 c -6.3207413,0 -11.4091224,5.08889 -11.4091224,11.40963 0,5.96608 4.5339507,10.83147 10.3580234,11.359 -3.91e-4,-0.0415 -0.0031,-0.0824 -0.0031,-0.12402 0,-6.26122 4.43625,-11.44633 10.34924,-12.60182 a 18.838146,17.553726 0 0 1 -0.0832,-1.38182 18.838146,17.553726 0 0 1 2.467549,-8.66097 z m 45.570343,2.22105 a 18.838146,17.553726 0 0 1 1.317749,6.43992 18.838146,17.553726 0 0 1 -0.06305,1.13894 h 3.259233 c -0.435615,-3.10657 -2.109253,-5.80515 -4.513937,-7.57886 z"
     id="rect12" />
  <path
     style="fill:#cccccc;stroke-width:0.17747766"
     d="M 28.124382,3.5909465 A 16.733612,15.592683 0 0 0 11.390519,19.183795 16.733612,15.592683 0 0 0 18.48621,31.887925 c 1.349226,-0.84267 2.867669,-1.4399 4.494816,-1.73426 a 18.838146,17.553726 0 0 1 -0.07855,-1.29036 18.838146,17.553726 0 0 1 18.838128,-17.55345 18.838146,17.553726 0 0 1 0.827339,0.0388 16.733612,15.592683 0 0 0 -14.443562,-7.7576685 z"
     id="path14" />
  <g
     id="g111"
     transform="matrix(0.91566447,0,0,0.91566447,110.41416,-193.39764)"
     style="fill:#999999">
    <rect
       ry="12.844191"
       y="244.71248"
       x="-104.22694"
       height="25.688381"
       width="69.358627"
       id="rect12-6-7"
       style="fill:#999999;stroke-width:0.19979848" />
    <ellipse
       ry="17.553726"
       rx="18.838146"
       cy="243.63496"
       cx="-75.03495"
       id="path14-7-5"
       style="fill:#999999;stroke-width:0.19979848" />
  </g>
  <path
     id="rect43"
     d="m 40.444665,44.359129 -0.494692,2.564753 c 1.395856,1.162174 2.056309,2.443079 1.799851,3.772893 -0.907849,4.707493 -12.946823,8.191803 -26.993049,7.812007 -4.247939,-0.11486 -8.1756051,-0.570849 -11.5669519,-1.279619 l -1.1379573,2.539782 c 3.5341234,0.764643 7.5564293,1.247103 11.8827842,1.364084 15.729448,0.425308 29.339806,-4.142895 30.516176,-10.242748 0.460153,-2.38604 -1.052428,-4.642501 -4.006161,-6.531152 z"
     style="fill:#cccccc;stroke-width:0.17663562" />
  <path
     id="rect43-6"
     d="m 48.99193,50.256012 -0.604819,2.564753 c 1.706607,1.162174 2.514098,2.443079 2.200546,3.772893 -1.109963,4.707493 -15.829135,8.191803 -33.00243,7.812007 -5.193641,-0.11486 -9.9957127,-0.570849 -14.1420635,-1.279619 l -1.3912977,2.539782 c 4.3209136,0.764643 9.2386922,1.247103 14.5282112,1.364084 19.231243,0.425308 35.871635,-4.142895 37.309895,-10.242748 0.562595,-2.38604 -1.286728,-4.642501 -4.898042,-6.531152 z"
     style="fill:#cccccc;stroke-width:0.19531034" />
  <path
     id="rect43-6-7"
     d="m 66.60448,56.152898 -0.831755,2.564753 c 2.346951,1.162174 3.45742,2.443079 3.026218,3.772893 -1.526434,4.707493 -21.768439,8.191803 -45.385386,7.812007 C 16.271189,70.187692 9.6673159,69.731703 3.9651977,69.022933 l -1.9133319,2.539781 c 5.9421794,0.764643 12.7051762,1.247103 19.9793932,1.364085 26.447066,0.425308 49.331158,-4.142896 51.309073,-10.242749 0.77369,-2.38604 -1.769523,-4.642501 -6.735852,-6.531152 z"
     style="fill:#cccccc;stroke-width:0.22903946" />
</svg>
