<?xml version="1.0" encoding="UTF-8" standalone="no"?>
<svg
   id="svg8"
   version="1.1"
   viewBox="0 0 79.374998 79.375002"
   height="300"
   width="300"
   sodipodi:docname="771n-squalls.svg"
   inkscape:version="1.1.2 (0a00cf5339, 2022-02-04)"
   xmlns:inkscape="http://www.inkscape.org/namespaces/inkscape"
   xmlns:sodipodi="http://sodipodi.sourceforge.net/DTD/sodipodi-0.dtd"
   xmlns:xlink="http://www.w3.org/1999/xlink"
   xmlns="http://www.w3.org/2000/svg"
   xmlns:svg="http://www.w3.org/2000/svg"
   xmlns:rdf="http://www.w3.org/1999/02/22-rdf-syntax-ns#"
   xmlns:cc="http://creativecommons.org/ns#"
   xmlns:dc="http://purl.org/dc/elements/1.1/">
  <sodipodi:namedview
     id="namedview13"
     pagecolor="#ffffff"
     bordercolor="#666666"
     borderopacity="1.0"
     inkscape:pageshadow="2"
     inkscape:pageopacity="0.0"
     inkscape:pagecheckerboard="0"
     showgrid="false"
     inkscape:zoom="1.3983333"
     inkscape:cx="104.41001"
     inkscape:cy="145.5304"
     inkscape:window-width="1592"
     inkscape:window-height="746"
     inkscape:window-x="205"
     inkscape:window-y="55"
     inkscape:window-maximized="0"
     inkscape:current-layer="svg8" />
  <defs
     id="defs2">
    <linearGradient
       inkscape:collect="always"
       id="linearGradient981">
      <stop
         style="stop-color:#6b6b6b;stop-opacity:1;"
         offset="0"
         id="stop977" />
      <stop
         style="stop-color:#6b6b6b;stop-opacity:0;"
         offset="1"
         id="stop979" />
    </linearGradient>
    <linearGradient
       id="a"
       x1="22.559999"
       y1="21.959999"
       x2="39.200001"
       y2="50.799999"
       gradientUnits="userSpaceOnUse"
       gradientTransform="matrix(1.573903,0,0,1.5083032,-7.2592602,-21.745618)">
      <stop
         offset="0"
         stop-color="#f3f7fe"
         id="stop2" />
      <stop
         offset="0.45"
         stop-color="#f3f7fe"
         id="stop4" />
      <stop
         offset="1"
         stop-color="#deeafb"
         id="stop6" />
    </linearGradient>
    <linearGradient
       inkscape:collect="always"
       xlink:href="#b"
       id="linearGradient837"
       x1="8.9466953"
       y1="26.552853"
       x2="77.329735"
       y2="26.552853"
       gradientUnits="userSpaceOnUse" />
    <linearGradient
       id="c"
       x1="22.559999"
       y1="21.959999"
       x2="39.200001"
       y2="50.799999"
       gradientUnits="userSpaceOnUse"
       gradientTransform="matrix(1.0000126,0,0,1.0000126,11.877465,37.797246)"
       spreadMethod="pad">
      <stop
         offset="0"
         stop-color="#f3f7fe"
         id="stop16" />
      <stop
         offset="0.45"
         stop-color="#f3f7fe"
         id="stop18" />
      <stop
         offset="1"
         stop-color="#deeafb"
         id="stop20" />
    </linearGradient>
    <linearGradient
       id="b"
       x1="40.759998"
       y1="23"
       x2="50.830002"
       y2="40.459999"
       gradientUnits="userSpaceOnUse">
      <stop
         offset="0"
         stop-color="#9ca3af"
         id="stop9" />
      <stop
         offset="0.45"
         stop-color="#9ca3af"
         id="stop11" />
      <stop
         offset="1"
         stop-color="#6b7280"
         id="stop13" />
    </linearGradient>
    <linearGradient
       inkscape:collect="always"
       xlink:href="#b"
       id="linearGradient951"
       x1="32.441257"
       y1="52.489532"
       x2="67.610741"
       y2="52.489532"
       gradientUnits="userSpaceOnUse" />
    <linearGradient
       inkscape:collect="always"
       xlink:href="#b"
       id="linearGradient959"
       x1="17.969763"
       y1="49.376404"
       x2="58.460228"
       y2="49.376404"
       gradientUnits="userSpaceOnUse" />
    <linearGradient
       inkscape:collect="always"
       xlink:href="#b"
       id="linearGradient967"
       x1="15.802137"
       y1="16.035147"
       x2="46.979561"
       y2="16.035147"
       gradientUnits="userSpaceOnUse" />
    <linearGradient
       inkscape:collect="always"
       xlink:href="#b"
       id="linearGradient975"
       x1="2.1936648"
       y1="31.52516"
       x2="63.687061"
       y2="31.52516"
       gradientUnits="userSpaceOnUse" />
    <linearGradient
       inkscape:collect="always"
       xlink:href="#linearGradient981"
       id="linearGradient983"
       x1="8.7637197"
       y1="42.596981"
       x2="60.701303"
       y2="42.596981"
       gradientUnits="userSpaceOnUse" />
  </defs>
  <metadata
     id="metadata5">
    <rdf:RDF>
      <cc:Work
         rdf:about="">
        <dc:format>image/svg+xml</dc:format>
        <dc:type
           rdf:resource="http://purl.org/dc/dcmitype/StillImage" />
      </cc:Work>
    </rdf:RDF>
  </metadata>
  <path
     style="fill:#cccccc;stroke-width:0.177478;stroke:url(#linearGradient975)"
     d="m 13.602787,20.140845 c -6.320741,0 -11.4091221,5.08889 -11.4091221,11.40963 0,5.96608 4.5339507,10.83147 10.3580231,11.359 -3.91e-4,-0.0415 -0.0031,-0.0824 -0.0031,-0.12402 0,-6.26122 4.43625,-11.44633 10.34924,-12.60182 a 18.838146,17.553726 0 0 1 -0.0832,-1.38182 18.838146,17.553726 0 0 1 2.467549,-8.66097 z m 45.570343,2.22105 a 18.838146,17.553726 0 0 1 1.317749,6.43992 18.838146,17.553726 0 0 1 -0.06305,1.13894 h 3.259233 c -0.435615,-3.10657 -2.109253,-5.80515 -4.513937,-7.57886 z"
     id="rect12" />
  <path
     style="fill:#cccccc;stroke-width:0.177478;stroke:url(#linearGradient967)"
     d="m 32.536,1.8866565 a 16.733612,15.592683 0 0 0 -16.733863,15.5928485 16.733612,15.592683 0 0 0 7.095691,12.70413 c 1.349226,-0.84267 2.867669,-1.4399 4.494816,-1.73426 a 18.838146,17.553726 0 0 1 -0.07855,-1.29036 18.838146,17.553726 0 0 1 18.838128,-17.55345 18.838146,17.553726 0 0 1 0.827339,0.0388 16.733612,15.592683 0 0 0 -14.443562,-7.7576685 z"
     id="path14" />
  <path
     id="rect43"
     d="m 54.564171,41.627396 -0.471521,2.365798 c 1.330472,1.072021 1.959988,2.253563 1.715543,3.48022 -0.865324,4.34232 -12.34037,7.556343 -25.728643,7.206009 -4.048958,-0.10595 -7.792645,-0.526567 -11.025134,-1.180356 l -1.084654,2.342765 c 3.368579,0.705327 7.202473,1.150362 11.326172,1.258268 14.992651,0.392316 27.965474,-3.821519 29.086741,-9.448191 0.438599,-2.200949 -1.00313,-4.282369 -3.818504,-6.024513 z"
     style="fill:#cccccc;stroke-width:0.165626;stroke:url(#linearGradient959)" />
  <path
     id="rect43-6"
     d="m 55.703783,34.19631 -0.604819,2.564753 c 1.706607,1.162174 2.514098,2.443079 2.200546,3.772893 -1.109963,4.707493 -15.829135,8.191803 -33.002429,7.812007 -5.193641,-0.11486 -9.995713,-0.570849 -14.142064,-1.279619 l -1.3912973,2.539782 c 4.3209133,0.764643 9.2386923,1.247103 14.5282113,1.364084 19.231242,0.425308 35.871634,-4.142895 37.309894,-10.242748 0.562595,-2.38604 -1.286728,-4.642501 -4.898042,-6.531152 z"
     style="fill:#cccccc;stroke-width:0.19531;stroke:url(#linearGradient983)" />
  <path
     id="rect43-6-7"
     d="m 63.188615,43.968766 -0.535182,3.191931 c 1.510115,1.446369 2.224633,3.040503 1.947181,4.695504 -0.982164,5.858651 -10.710754,7.43783 -25.906781,6.965159 -10.858437,-0.258383 -6.139407,0.581769 3.246456,2.102135 17.01703,0.52931 24.30976,-1.234974 25.582424,-8.826468 0.497821,-2.969514 -1.138576,-5.777764 -4.334098,-8.128261 z"
     style="fill:#cccccc;stroke-width:0.204959;stroke:url(#linearGradient951)"
     sodipodi:nodetypes="ccsccsc" />
  <path
     d="m 65.927227,25.765931 h -0.503668 a 16.510242,15.8221 0 0 0 -30.077284,-12.066426 11.017321,10.558122 0 0 0 -16.636157,9.049818 11.347841,10.874866 0 0 0 0.157413,1.719465 11.804273,11.312274 0 0 0 2.203465,22.413392 6.5946538,6.3197904 0 0 0 0.786952,0 v 0 h 44.069279 a 11.017325,10.558124 0 0 0 0,-21.116249 z"
     stroke="#e6effc"
     stroke-miterlimit="10"
     stroke-width="0.770377"
     fill="url(#a)"
     id="path11"
     style="fill:url(#a);stroke:url(#linearGradient837)" />
</svg>
