<?xml version="1.0" encoding="UTF-8" standalone="no"?>
<svg
   xmlns:dc="http://purl.org/dc/elements/1.1/"
   xmlns:cc="http://creativecommons.org/ns#"
   xmlns:rdf="http://www.w3.org/1999/02/22-rdf-syntax-ns#"
   xmlns:svg="http://www.w3.org/2000/svg"
   xmlns="http://www.w3.org/2000/svg"
   id="svg8"
   version="1.1"
   viewBox="0 0 79.374998 79.375002"
   height="300"
   width="300">
  <defs
     id="defs2" />
  <metadata
     id="metadata5">
    <rdf:RDF>
      <cc:Work
         rdf:about="">
        <dc:format>image/svg+xml</dc:format>
        <dc:type
           rdf:resource="http://purl.org/dc/dcmitype/StillImage" />
        <dc:title></dc:title>
      </cc:Work>
    </rdf:RDF>
  </metadata>
  <path
     style="fill:#666666;stroke-width:0.09189058"
     d="m 31.903586,46.442038 c -0.83665,0.622089 -1.39456,1.433505 -1.54413,2.378845 -0.41275,2.608734 2.43342,5.211609 6.38187,5.836325 3.94844,0.624718 7.45955,-0.972317 7.8723,-3.581054 0.0935,-0.590724 0.0185,-1.181063 -0.19725,-1.748303 -1.64615,0.697511 -3.75466,0.954104 -5.98732,0.600856 -2.87229,-0.454451 -5.24728,-1.800273 -6.52547,-3.486669 z"
     id="rect201-9-6-0-6-9-2-36" />
  <path
     style="fill:#666666;stroke-width:0.12927976"
     d="m 31.183626,39.974539 c -0.38365,0.720937 -0.5935,1.499013 -0.5935,2.311559 0,3.760168 4.47449,6.787489 10.03234,6.787489 5.04006,0 9.18869,-2.489192 9.91801,-5.757141 -2.10488,0.834914 -4.55764,1.31513 -7.18362,1.31513 -5.18349,0 -9.69917,-1.863269 -12.17323,-4.657037 z"
     id="rect201-9-6-8-9-7" />
  <path
     style="fill:#666666;stroke-width:0.18852566"
     d="m 54.463486,35.191397 c -4.46695,2.144532 -10.98777,2.470091 -17.88283,0.462613 -4.49472,-1.308622 -7.89727,-3.601667 -10.991281,-6.114737 -0.461555,5.011223 4.519751,10.854017 12.297851,13.118591 8.12348,2.365126 15.50688,0.110675 16.55458,-5.055089 0.15988,-0.788334 0.16058,-1.597594 0.0217,-2.411378 z"
     id="rect201-9-61-2-5" />
  <path
     style="fill:#666666;stroke-width:0.05611334"
     d="m 28.779196,62.952327 c -0.49613,0.42024 -0.856424,0.974801 -1.00708,1.62696 -0.415738,1.799632 0.92149,3.634541 2.99842,4.114331 2.07693,0.479801 4.08371,-0.582599 4.49945,-2.382231 0.0941,-0.40752 0.0977,-0.816798 0.0238,-1.211789 -0.93706,0.462639 -2.09,0.614709 -3.26441,0.3434 -1.51086,-0.34902 -2.68807,-1.308669 -3.25017,-2.490671 z"
     id="rect201-9-6-0-6-9-2-3-5" />
  <path
     style="fill:#666666;stroke-width:0.0781245"
     d="m 29.365136,56.100261 c -0.64843,0.95159 -1.037529,2.175187 -1.037529,3.513415 0,3.047032 2.016319,5.49987 4.520979,5.49987 2.49866,0 4.51111,-2.441239 4.52075,-5.478108 -0.81544,0.56627 -1.76004,0.890829 -2.7699,0.890829 -2.40752,0 -4.44909,-1.836949 -5.2343,-4.426006 z"
     id="rect201-9-6-0-7-7-6-6" />
  <path
     style="fill:#666666;stroke-width:0.09640894"
     d="m 30.160416,51.175236 c -0.42521,0.620053 0.25048,-0.772975 0,0 -1.15914,3.577045 0.27484,7.224022 3.21518,8.176842 2.66641,0.864039 5.62854,-0.792711 7.02179,-3.776475 -1.37095,0.433403 -3.55159,0.469741 -4.94085,0.01955 -2.74229,-0.888632 -4.24711,-1.404885 -5.29612,-4.419923 z"
     id="rect201-9-6-8-9-1-2" />
  <path
     style="fill:#666666;stroke-width:0.26472154"
     d="m 43.284076,7.654352 c -11.55222,0 -20.85239,6.106285 -20.85239,13.691447 0,7.585166 9.30017,13.691453 20.85239,13.691453 11.55223,0 20.85239,-6.106287 20.85239,-13.691453 0,-7.585162 -9.30016,-13.691447 -20.85239,-13.691447 z m 0.93485,3.103838 c 8.68885,0 15.68399,4.593263 15.68399,10.298345 0,5.705082 -6.99514,10.297705 -15.68399,10.297705 -8.68885,0 -15.68357,-4.592623 -15.68357,-10.297705 0,-5.705082 6.99472,-10.298345 15.68357,-10.298345 z"
     id="rect201-2-9-3-2" />
  <path
     id="rect201-2-9-3-3"
     d="m 20.640653,25.679423 c -1.290597,1.783148 -2.014349,3.780065 -2.014349,5.892662 0,7.585159 9.300255,13.691671 20.852472,13.691671 10.32432,0 18.84406,-4.8788 20.53983,-11.330059 l -1.09709,-0.229959 c -1.66302,5.554993 -9.70597,9.745657 -19.44274,9.745659 -10.949097,0 -19.763648,-5.297432 -19.763648,-11.877312 0,-2.028185 0.839893,-3.933857 2.319237,-5.600692 z"
     style="fill:#b3b3b3;stroke-width:0.26472154" />
  <path
     id="rect201-2-9-3-3-6"
     d="m 15.579934,37.680536 c -1.290597,1.783148 -2.014349,3.780065 -2.014349,5.892662 0,7.585159 9.300255,13.691671 20.852471,13.691671 10.32432,0 18.84406,-4.8788 20.53983,-11.330059 l -1.09709,-0.229959 c -1.66302,5.554993 -9.70597,9.745657 -19.44274,9.745659 -10.949096,0 -19.763647,-5.297432 -19.763647,-11.877312 0,-2.028185 0.839893,-3.933857 2.319237,-5.600692 z"
     style="fill:#b3b3b3;stroke-width:0.26472154" />
  <path
     id="rect201-2-9-3-3-0"
     d="m 17.376235,56.600991 c -0.964325,1.166332 -1.505107,2.472489 -1.505107,3.85431 0,4.96134 6.949086,8.955527 15.580814,8.955527 7.71426,0 14.08015,-3.191154 15.34722,-7.410831 l -0.81974,-0.150414 c -1.2426,3.63344 -7.25224,6.374498 -14.52748,6.374498 -8.181082,0 -14.767253,-3.464973 -14.767253,-7.76878 0,-1.32661 0.627562,-2.573082 1.732918,-3.663336 z"
     style="fill:#b3b3b3;stroke-width:0.18506442" />
</svg>
