<?xml version="1.0" encoding="UTF-8" standalone="no"?>
<svg
   id="svg8"
   version="1.1"
   viewBox="0 0 79.374998 79.375002"
   height="300"
   width="300"
   xmlns="http://www.w3.org/2000/svg"
   xmlns:svg="http://www.w3.org/2000/svg"
   xmlns:rdf="http://www.w3.org/1999/02/22-rdf-syntax-ns#"
   xmlns:cc="http://creativecommons.org/ns#"
   xmlns:dc="http://purl.org/dc/elements/1.1/">
  <defs
     id="defs2" />
  <metadata
     id="metadata5">
    <rdf:RDF>
      <cc:Work
         rdf:about="">
        <dc:format>image/svg+xml</dc:format>
        <dc:type
           rdf:resource="http://purl.org/dc/dcmitype/StillImage" />
      </cc:Work>
    </rdf:RDF>
  </metadata>
  <path
     style="fill:#b3b3b3;fill-opacity:1;stroke-width:0.100143"
     d="m 29.037712,44.169786 c -0.904221,0.683631 -1.50719,1.575319 -1.66884,2.614179 -0.446086,2.866811 2.629953,5.727182 6.897295,6.4137 4.267332,0.68652 8.062014,-1.068506 8.508099,-3.93532 0.101052,-0.649163 0.01999,-1.297903 -0.21318,-1.921258 -1.7791,0.766514 -4.057902,1.048491 -6.470881,0.660297 -3.104267,-0.499409 -5.671071,-1.97837 -7.052493,-3.831598 z"
     id="rect201-9-6-0-6-9-2-36" />
  <path
     style="fill:#b3b3b3;fill-opacity:1;stroke-width:0.14089"
     d="m 28.259605,37.062472 c -0.414635,0.792258 -0.641434,1.647307 -0.641434,2.540237 0,4.132153 4.835868,7.45896 10.842593,7.45896 5.447116,0 9.930806,-2.735442 10.719029,-6.326682 -2.274879,0.91751 -4.925734,1.445232 -7.763799,1.445232 -5.602129,0 -10.482514,-2.047598 -13.156389,-5.117747 z"
     id="rect201-9-6-8-9-7" />
  <path
     style="fill:#b3b3b3;fill-opacity:1;stroke-width:0.205457"
     d="m 53.419641,28.898563 c -4.827719,2.356686 -11.875187,2.714451 -19.32712,0.508378 -4.857732,-1.438081 -8.535086,-3.957972 -11.878982,-6.719654 -0.498832,5.506972 4.884785,11.927781 13.291076,14.416384 8.779565,2.599103 16.759279,0.121624 17.891595,-5.555178 0.172793,-0.866322 0.173549,-1.75564 0.02345,-2.64993 z"
     id="rect201-9-61-2-5" />
  <path
     style="fill:#b3b3b3;fill-opacity:1;stroke-width:0.0851407"
     d="m 26.294246,54.783476 c -0.7008,1.045729 -1.121324,2.390374 -1.121324,3.860989 0,3.348469 2.179165,6.04396 4.886112,6.04396 2.700462,0 4.875445,-2.682745 4.885864,-6.020045 -0.881298,0.62229 -1.902188,0.978957 -2.993608,0.978957 -2.601961,0 -4.808417,-2.018674 -5.657044,-4.863861 z"
     id="rect201-9-6-0-7-7-6-6" />
  <path
     style="fill:#b3b3b3;fill-opacity:1;stroke-width:0.105067"
     d="m 27.153756,49.371229 c -0.459551,0.681394 0.27071,-0.849443 0,0 -1.252757,3.930914 0.297038,7.938679 3.474851,8.985759 2.88176,0.949517 6.083124,-0.871132 7.588899,-4.150073 -1.481674,0.476278 -3.838431,0.516211 -5.339893,0.02148 -2.963769,-0.976543 -4.590124,-1.543867 -5.723857,-4.857176 z"
     id="rect201-9-6-8-9-1-2" />
  <path
     id="rect201-2-9-3-3"
     d="m 16.865139,20.190139 c -1.394831,1.959551 -2.177036,4.154019 -2.177036,6.47561 0,8.335542 10.051381,15.046158 22.536602,15.046158 11.158154,0 20.365983,-5.361449 22.19871,-12.450917 L 58.23772,29.008282 c -1.797333,6.104536 -10.489864,10.709773 -21.013015,10.709775 -11.833391,0 -21.359841,-5.821495 -21.359841,-13.052308 0,-2.228829 0.907727,-4.323024 2.506548,-6.154756 z"
     style="fill:#b3b3b3;stroke-width:0.288496;fill-opacity:1" />
  <path
     id="rect201-2-9-3-3-3"
     d="m 17.034612,4.1086894 c -1.650317,1.9595509 -2.575795,4.1540178 -2.575795,6.4756086 0,8.335542 11.892451,15.046158 26.664536,15.046158 13.201946,0 24.096333,-5.361449 26.264754,-12.450917 l -1.402875,-0.252708 c -2.126542,6.104536 -12.411247,10.709773 -24.861879,10.709775 -14.000862,0 -25.272231,-5.821495 -25.272231,-13.052308 0,-2.2288278 1.07399,-4.3230234 2.965662,-6.1547547 z"
     style="fill:#b3b3b3;stroke-width:0.313807" />
  <path
     id="rect201-2-9-3-3-6"
     d="m 16.536804,39.505936 c -1.19614,1.529368 -1.866922,3.24208 -1.866922,5.054008 0,6.505626 8.619579,11.743049 19.3263,11.743049 9.568694,0 17.464882,-4.18444 19.03654,-9.717546 l -1.016795,-0.19723 c -1.541305,4.764397 -8.9956,8.358638 -18.019745,8.358641 -10.147743,0 -18.317166,-4.543493 -18.317166,-10.186914 0,-1.73953 0.778423,-3.373984 2.149495,-4.803592 z"
     style="fill:#b3b3b3;stroke-width:0.236019;fill-opacity:1" />
  <path
     id="rect201-2-9-3-3-0"
     d="m 13.337073,55.333742 c -1.042208,1.281715 -1.626666,2.717087 -1.626666,4.235609 0,5.452154 7.510323,9.841477 16.839184,9.841477 8.337295,0 15.21732,-3.506848 16.586724,-8.143968 L 44.25037,61.101566 c -1.342958,3.992888 -7.837961,7.005113 -15.700779,7.005113 -8.841819,0 -15.959916,-3.807755 -15.959916,-8.537328 0,-1.457849 0.678246,-2.827632 1.872875,-4.025742 z"
     style="fill:#b4adad;fill-opacity:1;stroke-width:0.201685" />
  <rect
     style="fill:#ffffff;stroke:none;stroke-width:0.406146"
     id="rect934"
     width="47.656174"
     height="7.68472"
     x="75.163139"
     y="-23.613554" />
  <rect
     style="fill:#ffffff;stroke:none;stroke-width:0.79375"
     id="rect980"
     width="1.2863532"
     height="1.2979621"
     x="75.163139"
     y="-15.928833" />
</svg>
