<?xml version="1.0" encoding="UTF-8" standalone="no"?>
<svg
   viewBox="0 0 79.374 79.374"
   version="1.1"
   id="svg24"
   sodipodi:docname="partly-cloudy-day.svg"
   width="300"
   height="300"
   inkscape:version="1.1.2 (0a00cf5339, 2022-02-04)"
   xmlns:inkscape="http://www.inkscape.org/namespaces/inkscape"
   xmlns:sodipodi="http://sodipodi.sourceforge.net/DTD/sodipodi-0.dtd"
   xmlns="http://www.w3.org/2000/svg"
   xmlns:svg="http://www.w3.org/2000/svg">
  <sodipodi:namedview
     id="namedview26"
     pagecolor="#ffffff"
     bordercolor="#666666"
     borderopacity="1.0"
     inkscape:pageshadow="2"
     inkscape:pageopacity="0.0"
     inkscape:pagecheckerboard="0"
     showgrid="false"
     inkscape:zoom="1.1476675"
     inkscape:cx="116.32289"
     inkscape:cy="107.1739"
     inkscape:window-width="1557"
     inkscape:window-height="750"
     inkscape:window-x="595"
     inkscape:window-y="210"
     inkscape:window-maximized="0"
     inkscape:current-layer="svg24" />
  <defs
     id="defs16">
    <linearGradient
       id="a"
       x1="16.5"
       x2="21.5"
       y1="19.67"
       y2="28.33"
       gradientUnits="userSpaceOnUse"
       gradientTransform="translate(8.4644082,8.6348276)">
      <stop
         offset="0"
         stop-color="#fbbf24"
         id="stop2" />
      <stop
         offset=".45"
         stop-color="#fbbf24"
         id="stop4" />
      <stop
         offset="1"
         stop-color="#f59e0b"
         id="stop6" />
    </linearGradient>
    <linearGradient
       id="b"
       x1="22.559999"
       x2="39.200001"
       y1="21.959999"
       y2="50.799999"
       gradientUnits="userSpaceOnUse"
       gradientTransform="translate(8.4644082,8.6348276)">
      <stop
         offset="0"
         stop-color="#f3f7fe"
         id="stop9" />
      <stop
         offset=".45"
         stop-color="#f3f7fe"
         id="stop11" />
      <stop
         offset="1"
         stop-color="#deeafb"
         id="stop13" />
    </linearGradient>
  </defs>
  <circle
     cx="27.464407"
     cy="32.63483"
     r="5"
     fill="url(#a)"
     stroke="#f8af18"
     stroke-miterlimit="10"
     stroke-width="0.5"
     id="circle18"
     style="fill:url(#a)" />
  <path
     fill="none"
     stroke="#fbbf24"
     stroke-linecap="round"
     stroke-miterlimit="10"
     stroke-width="2"
     d="m 27.464408,24.304828 v -3.17 m 0,23 v -3.17 m 5.89,-14.22 2.24,-2.24 m -16.26,16.26 2.24,-2.24 m 0,-11.78 -2.24,-2.24 m 16.26,16.26 -2.24,-2.24 m -17.39,-5.89 h 3.17 m 19.83,0 h -3.17"
     id="path20">
  </path>
  <path
     fill="url(#b)"
     stroke="#e6effc"
     stroke-miterlimit="10"
     stroke-width="0.5"
     d="m 54.964408,40.134828 h -0.32 a 10.49,10.49 0 0 0 -19.11,-8 7,7 0 0 0 -10.57,6 7.21,7.21 0 0 0 0.1,1.14 7.5,7.5 0 0 0 1.4,14.86 4.19,4.19 0 0 0 0.5,0 v 0 h 28 a 7,7 0 0 0 0,-14 z"
     id="path22"
     style="fill:url(#b)" />
</svg>
