<?xml version="1.0" encoding="UTF-8" standalone="no"?>
<svg
   width="300"
   height="300"
   viewBox="0 0 79.374998 79.375002"
   version="1.1"
   id="svg8"
   xmlns:xlink="http://www.w3.org/1999/xlink"
   xmlns="http://www.w3.org/2000/svg"
   xmlns:svg="http://www.w3.org/2000/svg"
   xmlns:rdf="http://www.w3.org/1999/02/22-rdf-syntax-ns#"
   xmlns:cc="http://creativecommons.org/ns#"
   xmlns:dc="http://purl.org/dc/elements/1.1/">
  <defs
     id="defs2">
    <linearGradient
       xlink:href="#linearGradient840-7"
       id="linearGradient842-2"
       x1="71.640686"
       y1="50.062809"
       x2="43.170097"
       y2="29.449696"
       gradientUnits="userSpaceOnUse"
       gradientTransform="translate(0.03938176,15.986065)" />
    <linearGradient
       id="linearGradient840-7">
      <stop
         style="stop-color:#dfefff;stop-opacity:1"
         offset="0"
         id="stop836-0" />
      <stop
         style="stop-color:#ffffff;stop-opacity:1"
         offset="1"
         id="stop838-9" />
    </linearGradient>
    <linearGradient
       xlink:href="#linearGradient840-7"
       id="linearGradient8265"
       gradientUnits="userSpaceOnUse"
       gradientTransform="translate(0.56854832,14.133925)"
       x1="71.640686"
       y1="50.062809"
       x2="43.170097"
       y2="29.449696" />
  </defs>
  <metadata
     id="metadata5">
    <rdf:RDF>
      <cc:Work
         rdf:about="">
        <dc:format>image/svg+xml</dc:format>
        <dc:type
           rdf:resource="http://purl.org/dc/dcmitype/StillImage" />
      </cc:Work>
    </rdf:RDF>
  </metadata>
  <path
     id="path14-7-5-36-7"
     style="fill:url(#linearGradient8265);fill-opacity:1;stroke:#9f9696;stroke-width:0.79375;stroke-miterlimit:4;stroke-dasharray:none;stroke-opacity:1"
     d="m 45.5869,22.886458 a 17.249422,16.073324 0 0 0 -14.56604,7.483781 12.103772,12.103772 0 0 0 -2.62774,-0.289388 12.103772,12.103772 0 0 0 -12.103653,12.103654 12.103772,12.103772 0 0 0 0.016,0.431498 c -4.90563,1.305439 -8.5002587,5.760839 -8.5002587,11.088729 0,6.35891 5.1194587,11.47837 11.4783687,11.47837 H 61.65463 c 6.35891,0 11.47785,-5.11946 11.47785,-11.47837 0,-6.08815 -4.69341,-11.036199 -10.67376,-11.446848 A 17.249422,16.073324 0 0 0 62.83595,38.959896 17.249422,16.073324 0 0 0 45.58688,22.886458 Z" />
</svg>
