<?xml version="1.0" encoding="UTF-8" standalone="no"?>
<svg
   xmlns:dc="http://purl.org/dc/elements/1.1/"
   xmlns:cc="http://creativecommons.org/ns#"
   xmlns:rdf="http://www.w3.org/1999/02/22-rdf-syntax-ns#"
   xmlns:svg="http://www.w3.org/2000/svg"
   xmlns="http://www.w3.org/2000/svg"
   width="300"
   height="300"
   viewBox="0 0 79.374998 79.375002"
   version="1.1"
   id="svg8">
  <defs
     id="defs2" />
  <metadata
     id="metadata5">
    <rdf:RDF>
      <cc:Work
         rdf:about="">
        <dc:format>image/svg+xml</dc:format>
        <dc:type
           rdf:resource="http://purl.org/dc/dcmitype/StillImage" />
        <dc:title></dc:title>
      </cc:Work>
    </rdf:RDF>
  </metadata>
  <path
     id="rect12"
     d="m 13.602787,31.78256 c -6.3207413,0 -11.4091224,5.08889 -11.4091224,11.40963 0,5.96608 4.5339507,10.83147 10.3580234,11.359 -3.91e-4,-0.0415 -0.0031,-0.0824 -0.0031,-0.12402 0,-6.26122 4.43625,-11.44633 10.34924,-12.60182 a 18.838146,17.553726 0 0 1 -0.0832,-1.38182 18.838146,17.553726 0 0 1 2.467549,-8.66097 z m 45.570343,2.22105 a 18.838146,17.553726 0 0 1 1.317749,6.43992 18.838146,17.553726 0 0 1 -0.06305,1.13894 h 3.259233 C 63.251447,38.4759 61.577809,35.77732 59.173125,34.00361 Z"
     style="fill:#cccccc;stroke-width:0.17747766" />
  <path
     id="path14"
     d="M 28.124382,15.23266 A 16.733612,15.592683 0 0 0 11.390519,30.82551 16.733612,15.592683 0 0 0 18.48621,43.52964 c 1.349226,-0.84267 2.867669,-1.4399 4.494816,-1.73426 a 18.838146,17.553726 0 0 1 -0.07855,-1.29036 18.838146,17.553726 0 0 1 18.838128,-17.55345 18.838146,17.553726 0 0 1 0.827339,0.0388 16.733612,15.592683 0 0 0 -14.443562,-7.75767 z"
     style="fill:#cccccc;stroke-width:0.17747766" />
  <rect
     ry="11.760969"
     y="42.318611"
     x="14.977258"
     height="23.521938"
     width="63.509232"
     id="rect12-6-7"
     style="fill:#999999;stroke-width:0.18294837" />
  <ellipse
     ry="16.073324"
     rx="17.249422"
     cy="41.33197"
     cx="41.707321"
     id="path14-7-5"
     style="fill:#999999;stroke-width:0.18294837" />
  <path
     id="path35-7"
     d="M 62.287849,29.835793 A 10.583333,10.583333 0 0 0 49.971128,21.33213 10.583333,10.583333 0 0 0 45.043387,23.679337 18.334135,17.084078 79.621825 0 1 60.393818,38.002112 10.583333,10.583333 0 0 0 62.287849,29.835793 Z"
     style="fill:#ffff00;stroke-width:0.37041661" />
  <rect
     transform="rotate(79.621825)"
     ry="0.94494045"
     y="-46.255749"
     x="17.020802"
     height="1.8898809"
     width="9.8273811"
     id="rect37-2"
     style="fill:#ffff00;stroke-width:0.26458332" />
  <rect
     transform="rotate(169.62182)"
     ry="0.94494045"
     y="-41.513668"
     x="-68.858749"
     height="1.8898809"
     width="9.8273811"
     id="rect37-5-3"
     style="fill:#ffff00;stroke-width:0.26458332" />
  <rect
     transform="rotate(19.621825)"
     ry="0.94494045"
     y="11.533185"
     x="73.245216"
     height="1.8898809"
     width="9.8273811"
     id="rect37-3-2-2"
     style="fill:#ffff00;stroke-width:0.26458332" />
  <rect
     transform="rotate(109.62182)"
     ry="0.94494045"
     y="-60.469631"
     x="-11.06978"
     height="1.8898809"
     width="9.8273811"
     id="rect37-5-1-9"
     style="fill:#ffff00;stroke-width:0.26458332" />
  <rect
     transform="rotate(139.62182)"
     ry="0.94494045"
     y="-58.733894"
     x="-42.503845"
     height="1.8898809"
     width="9.8273811"
     id="rect37-9-6"
     style="fill:#ffff00;stroke-width:0.26458332" />
  <rect
     transform="rotate(-130.37817)"
     ry="0.94494045"
     y="18.011002"
     x="-44.06842"
     height="1.8898809"
     width="9.8273811"
     id="rect37-3-3-26-3"
     style="fill:#ffff00;stroke-width:0.26458332" />
</svg>
