<?xml version="1.0" encoding="UTF-8" standalone="no"?>
<svg
   viewBox="0 0 79.374 79.374"
   version="1.1"
   id="svg31"
   sodipodi:docname="803n-broken-clouds.svg"
   width="300"
   height="300"
   inkscape:version="1.1.2 (0a00cf5339, 2022-02-04)"
   xmlns:inkscape="http://www.inkscape.org/namespaces/inkscape"
   xmlns:sodipodi="http://sodipodi.sourceforge.net/DTD/sodipodi-0.dtd"
   xmlns:xlink="http://www.w3.org/1999/xlink"
   xmlns="http://www.w3.org/2000/svg"
   xmlns:svg="http://www.w3.org/2000/svg">
  <sodipodi:namedview
     id="namedview33"
     pagecolor="#ffffff"
     bordercolor="#666666"
     borderopacity="1.0"
     inkscape:pageshadow="2"
     inkscape:pageopacity="0.0"
     inkscape:pagecheckerboard="0"
     showgrid="false"
     width="300px"
     inkscape:zoom="0.81152344"
     inkscape:cx="-321.0012"
     inkscape:cy="-8.0096269"
     inkscape:window-width="1557"
     inkscape:window-height="750"
     inkscape:window-x="363"
     inkscape:window-y="96"
     inkscape:window-maximized="0"
     inkscape:current-layer="svg31" />
  <defs
     id="defs23">
    <linearGradient
       id="a"
       x1="13.58"
       y1="15.57"
       x2="24.15"
       y2="33.869999"
       gradientUnits="userSpaceOnUse"
       gradientTransform="translate(5.789956,9.2299736)">
      <stop
         offset="0"
         stop-color="#86c3db"
         id="stop2" />
      <stop
         offset="0.45"
         stop-color="#86c3db"
         id="stop4" />
      <stop
         offset="1"
         stop-color="#5eafcf"
         id="stop6" />
    </linearGradient>
    <linearGradient
       id="b"
       x1="40.759998"
       y1="23"
       x2="50.830002"
       y2="40.459999"
       gradientUnits="userSpaceOnUse"
       gradientTransform="translate(5.789956,9.2299736)">
      <stop
         offset="0"
         stop-color="#9ca3af"
         id="stop9" />
      <stop
         offset="0.45"
         stop-color="#9ca3af"
         id="stop11" />
      <stop
         offset="1"
         stop-color="#6b7280"
         id="stop13" />
    </linearGradient>
    <linearGradient
       id="c"
       x1="22.559999"
       y1="21.959999"
       x2="39.200001"
       y2="50.799999"
       gradientUnits="userSpaceOnUse"
       gradientTransform="translate(5.789956,9.2299736)">
      <stop
         offset="0"
         stop-color="#f3f7fe"
         id="stop16" />
      <stop
         offset="0.45"
         stop-color="#f3f7fe"
         id="stop18" />
      <stop
         offset="1"
         stop-color="#deeafb"
         id="stop20" />
    </linearGradient>
    <linearGradient
       inkscape:collect="always"
       xlink:href="#b"
       id="linearGradient841"
       x1="16.079218"
       y1="41.252052"
       x2="59.539951"
       y2="41.252052"
       gradientUnits="userSpaceOnUse" />
  </defs>
  <path
     d="m 35.119956,35.909974 a 10.61,10.61 0 0 1 -10.68,-10.54 10.5,10.5 0 0 1 0.35,-2.64 10.54,10.54 0 1 0 11.5,13.11 11.48,11.48 0 0 1 -1.17,0.07 z"
     stroke="#72b9d5"
     stroke-linecap="round"
     stroke-linejoin="round"
     stroke-width="0.5"
     fill="url(#a)"
     id="path25"
     style="fill:#ffeeaa;stroke:#f2b21d;stroke-opacity:0.48627451" />
  <path
     d="m 40.019956,42.679974 a 4.05,4.05 0 0 0 4.05,4 h 16.51 a 4.34,4.34 0 0 0 0.81,-8.61 3.52,3.52 0 0 0 0.06,-0.66 4.06,4.06 0 0 0 -6.13,-3.48 6.08,6.08 0 0 0 -11.25,3.19 6.34,6.34 0 0 0 0.18,1.46 h -0.18 a 4.05,4.05 0 0 0 -4.05,4.1 z"
     stroke="#848b98"
     stroke-miterlimit="10"
     stroke-width="0.5"
     fill="url(#b)"
     id="path27"
     style="fill:url(#b)" />
  <path
     d="m 52.289956,40.729974 h -0.32 a 10.49,10.49 0 0 0 -19.11,-8 7,7 0 0 0 -10.57,6 7.21,7.21 0 0 0 0.1,1.14 7.5,7.5 0 0 0 1.4,14.86 4.19,4.19 0 0 0 0.5,0 v 0 h 28 a 7,7 0 0 0 0,-14 z"
     stroke="#e6effc"
     stroke-miterlimit="10"
     stroke-width="0.5"
     fill="url(#c)"
     id="path29"
     style="fill:url(#c);stroke:url(#linearGradient841)" />
</svg>
