<?xml version="1.0" encoding="UTF-8" standalone="no"?>
<svg
   viewBox="0 0 79.374 79.374"
   version="1.1"
   id="svg22"
   sodipodi:docname="overcast.svg"
   width="300"
   height="300"
   inkscape:version="1.1.2 (0a00cf5339, 2022-02-04)"
   xmlns:inkscape="http://www.inkscape.org/namespaces/inkscape"
   xmlns:sodipodi="http://sodipodi.sourceforge.net/DTD/sodipodi-0.dtd"
   xmlns="http://www.w3.org/2000/svg"
   xmlns:svg="http://www.w3.org/2000/svg">
  <sodipodi:namedview
     id="namedview24"
     pagecolor="#ffffff"
     bordercolor="#666666"
     borderopacity="1.0"
     inkscape:pageshadow="2"
     inkscape:pageopacity="0.0"
     inkscape:pagecheckerboard="0"
     showgrid="false"
     inkscape:zoom="0.81152344"
     inkscape:cx="63.46089"
     inkscape:cy="38.199759"
     inkscape:window-width="1557"
     inkscape:window-height="750"
     inkscape:window-x="547"
     inkscape:window-y="9"
     inkscape:window-maximized="0"
     inkscape:current-layer="svg22" />
  <defs
     id="defs16">
    <linearGradient
       id="a"
       x1="40.759998"
       x2="50.830002"
       y1="23"
       y2="40.459999"
       gradientUnits="userSpaceOnUse"
       gradientTransform="translate(6.4986467,4.5617862)">
      <stop
         offset="0"
         stop-color="#9ca3af"
         id="stop2" />
      <stop
         offset=".45"
         stop-color="#9ca3af"
         id="stop4" />
      <stop
         offset="1"
         stop-color="#6b7280"
         id="stop6" />
    </linearGradient>
    <linearGradient
       id="b"
       x1="22.559999"
       x2="39.200001"
       y1="21.959999"
       y2="50.799999"
       gradientUnits="userSpaceOnUse"
       gradientTransform="translate(6.4986467,4.5617862)">
      <stop
         offset="0"
         stop-color="#f3f7fe"
         id="stop9" />
      <stop
         offset=".45"
         stop-color="#f3f7fe"
         id="stop11" />
      <stop
         offset="1"
         stop-color="#deeafb"
         id="stop13" />
    </linearGradient>
  </defs>
  <path
     fill="url(#a)"
     stroke="#848b98"
     stroke-miterlimit="10"
     stroke-width="0.5"
     d="m 40.728647,38.011786 a 4.05,4.05 0 0 0 4.05,4 h 16.51 a 4.34,4.34 0 0 0 0.81,-8.61 3.52,3.52 0 0 0 0.06,-0.66 4.06,4.06 0 0 0 -6.13,-3.48 6.08,6.08 0 0 0 -11.25,3.19 6.34,6.34 0 0 0 0.18,1.46 h -0.18 a 4.05,4.05 0 0 0 -4.05,4.1 z"
     id="path18"
     style="fill:url(#a)">
  </path>
  <path
     fill="url(#b)"
     stroke="#e6effc"
     stroke-miterlimit="10"
     stroke-width="0.5"
     d="m 52.998647,36.061786 h -0.32 a 10.49,10.49 0 0 0 -19.11,-8 7,7 0 0 0 -10.57,6 7.21,7.21 0 0 0 0.1,1.14 7.5,7.5 0 0 0 1.4,14.86 4.19,4.19 0 0 0 0.5,0 v 0 h 28 a 7,7 0 0 0 0,-14 z"
     id="path20"
     style="fill:url(#b)">
  </path>
</svg>
