<?xml version="1.0" encoding="UTF-8" standalone="no"?>
<!-- Created with Inkscape (http://www.inkscape.org/) -->

<svg
   width="100"
   height="100"
   viewBox="0 0 26.458333 26.458333"
   version="1.1"
   id="svg1"
   sodipodi:docname="budgie-screencast-symbolic.svg"
   inkscape:version="1.4.3 (fcd0343856, 2026-01-01)"
   xmlns:inkscape="http://www.inkscape.org/namespaces/inkscape"
   xmlns:sodipodi="http://sodipodi.sourceforge.net/DTD/sodipodi-0.dtd"
   xmlns="http://www.w3.org/2000/svg"
   xmlns:svg="http://www.w3.org/2000/svg">
  <sodipodi:namedview
     id="namedview1"
     pagecolor="#ffffff"
     bordercolor="#000000"
     borderopacity="0.25"
     inkscape:showpageshadow="2"
     inkscape:pageopacity="0.0"
     inkscape:pagecheckerboard="true"
     inkscape:deskcolor="#d1d1d1"
     inkscape:document-units="mm"
     inkscape:zoom="7.9824499"
     inkscape:cx="56.87477"
     inkscape:cy="50.611029"
     inkscape:window-width="1920"
     inkscape:window-height="1010"
     inkscape:window-x="0"
     inkscape:window-y="0"
     inkscape:window-maximized="1"
     inkscape:current-layer="layer1" />
  <defs
     id="defs1">
    <linearGradient
       id="swatch3"
       inkscape:swatch="solid">
      <stop
         style="stop-color:#000000;stop-opacity:1;"
         offset="0"
         id="stop3" />
    </linearGradient>
  </defs>
  <g
     inkscape:label="Layer 1"
     inkscape:groupmode="layer"
     id="layer1">
    <path
       id="rect1"
       style="fill:#000000;fill-opacity:1;stroke:#000000;stroke-width:1.34363;stroke-dasharray:none;stroke-opacity:1;paint-order:normal"
       d="m 4.8511854,3.8166153 c -1.7666587,0 -3.1887346,1.3649397 -3.1887346,3.0600295 V 19.639865 c 0,1.69509 1.4220759,3.06003 3.1887346,3.06003 H 16.79303 c 1.766658,0 3.188734,-1.36494 3.188734,-3.06003 V 6.8766448 c 0,-1.6950898 -1.422076,-3.0600295 -3.188734,-3.0600295 z M 10.822108,8.853545 a 4.4492094,4.283084 0 0 1 4.449327,4.283284 4.4492094,4.283084 0 0 1 -4.449327,4.283284 4.4492094,4.283084 0 0 1 -4.4493293,-4.283284 4.4492094,4.283084 0 0 1 4.4493293,-4.283284 z" />
    <path
       id="rect3"
       style="fill:#000000;fill-opacity:1;stroke:#000000;stroke-width:1.32455;stroke-opacity:1"
       d="m 21.712653,10.585711 3.903288,-3.4486821 0.03314,11.2486731 -3.966475,-3.446219 z"
       sodipodi:nodetypes="ccccc" />
  </g>
  <g
     inkscape:groupmode="layer"
     id="layer2"
     inkscape:label="Layer 2" />
</svg>
