<?xml version="1.0" encoding="UTF-8" standalone="no"?>
<svg
   xmlns:dc="http://purl.org/dc/elements/1.1/"
   xmlns:cc="http://creativecommons.org/ns#"
   xmlns:rdf="http://www.w3.org/1999/02/22-rdf-syntax-ns#"
   xmlns:svg="http://www.w3.org/2000/svg"
   xmlns="http://www.w3.org/2000/svg"
   xmlns:sodipodi="http://sodipodi.sourceforge.net/DTD/sodipodi-0.dtd"
   xmlns:inkscape="http://www.inkscape.org/namespaces/inkscape"
   id="svg8"
   version="1.1"
   viewBox="0 0 55.629155 55.82915"
   height="55.829151mm"
   width="55.629154mm"
   sodipodi:docname="budgiewprviews.svg"
   inkscape:version="0.92.4 (5da689c313, 2019-01-14)">
  <sodipodi:namedview
     pagecolor="#ffffff"
     bordercolor="#666666"
     borderopacity="1"
     objecttolerance="10"
     gridtolerance="10"
     guidetolerance="10"
     inkscape:pageopacity="0"
     inkscape:pageshadow="2"
     inkscape:window-width="1863"
     inkscape:window-height="1352"
     id="namedview12"
     showgrid="false"
     inkscape:zoom="2.236884"
     inkscape:cx="110.04467"
     inkscape:cy="233.30536"
     inkscape:window-x="1820"
     inkscape:window-y="312"
     inkscape:window-maximized="0"
     inkscape:current-layer="svg8" />
  <defs
     id="defs2" />
  <metadata
     id="metadata5">
    <rdf:RDF>
      <cc:Work
         rdf:about="">
        <dc:format>image/svg+xml</dc:format>
        <dc:type
           rdf:resource="http://purl.org/dc/dcmitype/StillImage" />
        <dc:title />
      </cc:Work>
    </rdf:RDF>
  </metadata>
  <rect
     style="fill:#f9f9f9;stroke-width:0.22844042"
     y="3.8723583"
     x="3.803201"
     height="48.202717"
     width="48.202717"
     id="rect13"
     ry="9.1710329" />
  <g
     id="g19"
     transform="translate(5.7402733,-5.1180213)">
    <g
       transform="matrix(0.71829453,0,0,0.71829453,2.7912464,12.923392)"
       id="g894"
       style="fill:#999999">
      <rect
         style="fill:#999999;fill-opacity:1;stroke:none;stroke-width:1.70203531;stroke-miterlimit:4;stroke-dasharray:none;stroke-opacity:1"
         id="rect817"
         width="16.695354"
         height="12.327653"
         x="0.52433681"
         y="14.444504"
         ry="2.6356177" />
      <rect
         style="fill:#999999;fill-opacity:1;stroke:none;stroke-width:1.70203531;stroke-miterlimit:4;stroke-dasharray:none;stroke-opacity:1"
         id="rect817-3"
         width="16.695354"
         height="12.327653"
         x="19.651232"
         y="14.444504"
         ry="2.6356175" />
      <rect
         style="fill:#999999;fill-opacity:1;stroke:none;stroke-width:1.70203531;stroke-miterlimit:4;stroke-dasharray:none;stroke-opacity:1"
         id="rect817-6"
         width="16.695354"
         height="12.327653"
         x="0.30503348"
         y="29.383724"
         ry="2.6356175" />
      <rect
         style="fill:#999999;fill-opacity:1;stroke:none;stroke-width:1.70203531;stroke-miterlimit:4;stroke-dasharray:none;stroke-opacity:1"
         id="rect817-3-7"
         width="16.695354"
         height="12.327653"
         x="19.431927"
         y="29.383724"
         ry="2.6356173" />
    </g>
    <path
       inkscape:connector-curvature="0"
       id="path869"
       d="m 22.644447,14.434113 a 18.657623,18.657623 0 0 0 -12.471206,4.845872 h 6.03813 a 15.270375,15.270375 0 0 1 6.436047,-1.458401 15.270375,15.270375 0 0 1 15.283706,15.252897 v 0.01745 A 15.270375,15.270375 0 0 1 22.664863,48.362271 15.270375,15.270375 0 0 1 16.192812,46.903127 H 10.149484 A 18.657623,18.657623 0 0 0 22.665605,51.74937 18.657623,18.657623 0 0 0 41.318222,33.091928 v -0.02116 A 18.657623,18.657623 0 0 0 22.644447,14.434113 Z"
       style="fill:#999999;fill-opacity:1;stroke:none;stroke-width:11.68279934;stroke-miterlimit:4;stroke-dasharray:none;stroke-opacity:1" />
  </g>
</svg>
