<?xml version="1.0" encoding="UTF-8" standalone="no"?>
<!-- Created with Inkscape (http://www.inkscape.org/) -->

<svg
   width="28mm"
   height="28mm"
   viewBox="0 0 28 28"
   version="1.1"
   id="svg5"
   xmlns="http://www.w3.org/2000/svg"
   xmlns:svg="http://www.w3.org/2000/svg">
  <defs
     id="defs2" />
  <g
     id="layer1"
     transform="translate(-81.745224,-44.20573)">
    <rect
       style="fill:#ffffff;stroke-width:0.264583"
       id="rect169"
       width="16.466198"
       height="18.272449"
       x="89.048813"
       y="50.252396" />
    <g
       id="g1150"
       style="fill:#005ba5;fill-opacity:1"
       transform="matrix(0.74274213,0.14352014,-0.14352014,0.74274213,60.262647,6.2665229)">
      <path
         id="path295"
         style="fill:#005ba5;fill-opacity:1;stroke-width:0.777687"
         d="m 176.35156,186.22266 a 35.930321,41.074453 11.600193 0 0 -12.94531,2.46679 35.930321,41.074453 11.600193 0 0 -10.70117,6.74219 l 10.42773,4.60547 a 35.930321,41.074453 11.600193 0 1 1.14258,-0.51563 35.930321,41.074453 11.600193 0 1 38.7793,11.21485 L 207.5,209.84375 a 35.930321,41.074453 11.600193 0 0 -31.14844,-23.62109 z"
         transform="scale(0.26458333)" />
      <path
         style="fill:#005ba5;fill-opacity:1"
         id="path652"
         d="m -233.00363,23.918489 -36.88466,-4.532079 -36.88466,-4.532078 22.36722,-29.677012 22.36723,-29.677014 14.51743,34.20909 z"
         transform="matrix(0.10772746,0.02185943,-0.0352266,0.10256849,81.599244,59.833231)" />
    </g>
    <rect
       style="fill:#cccccc;fill-opacity:1;stroke-width:0.264583"
       id="rect4312"
       width="10.061296"
       height="0.66105342"
       x="92.164085"
       y="58.03627"
       ry="0.33052671" />
    <rect
       style="fill:#cccccc;fill-opacity:1;stroke-width:0.264583"
       id="rect4312-6"
       width="10.061296"
       height="0.66105342"
       x="92.164085"
       y="60.883907"
       ry="0.33052671" />
    <rect
       style="fill:#cccccc;fill-opacity:1;stroke-width:0.264583"
       id="rect4312-7"
       width="10.061296"
       height="0.66105342"
       x="92.164085"
       y="63.731541"
       ry="0.33052671" />
  </g>
</svg>
