<?xml version="1.0" encoding="UTF-8" standalone="no"?>
<!-- Created with Inkscape (http://www.inkscape.org/) -->

<svg
   width="73.466904mm"
   height="44.386616mm"
   viewBox="0 0 73.466903 44.386616"
   version="1.1"
   id="svg5"
   xmlns="http://www.w3.org/2000/svg"
   xmlns:svg="http://www.w3.org/2000/svg">
  <defs
     id="defs2" />
  <path
     id="path1060"
     style="fill:#808080;stroke:none;stroke-width:0.499999;stroke-opacity:1"
     d="M 0.177317,14.547433 V 29.839005 A 7.6583195,7.6583195 0 0 0 7.484881,22.197095 7.6583195,7.6583195 0 0 0 0.177317,14.547433 Z" />
  <path
     id="path1060-3"
     style="fill:#808080;stroke:none;stroke-width:0.499999;stroke-opacity:1"
     d="M 73.34056,29.839005 V 14.547433 a 7.6583195,7.6583195 0 0 0 -7.30756,7.64191 7.6583195,7.6583195 0 0 0 7.30756,7.649662 z" />
  <path
     id="path1060-3-6"
     style="fill:#808080;stroke:none;stroke-width:0.499999;stroke-opacity:1"
     d="M 44.982971,0 H 29.691399 A 7.6583195,7.6583195 0 0 0 37.333309,7.307564 7.6583195,7.6583195 0 0 0 44.982971,0 Z" />
  <path
     id="path1060-3-7"
     style="fill:#808080;stroke:none;stroke-width:0.499999;stroke-opacity:1"
     d="M 28.0658,44.386616 H 43.357372 A 7.6583195,7.6583195 0 0 0 35.715462,37.079052 7.6583195,7.6583195 0 0 0 28.0658,44.386616 Z" />
  <path
     id="path1060-3-7-5"
     style="fill:#808080;stroke:none;stroke-width:0.499999;stroke-opacity:1"
     d="m 0.235269,37.079039 a 7.6583195,7.6583195 0 0 0 -0.23513,0.0088 v 7.298777 h 7.87704 a 7.6583195,7.6583195 0 0 0 -7.64191,-7.307564 z" />
  <path
     id="path1060-3-7-5-3"
     style="fill:#808080;stroke:none;stroke-width:0.499999;stroke-opacity:1"
     d="m 66.15912,44.151486 a 7.6583195,7.6583195 0 0 0 0.009,0.23513 h 7.29878 v -7.87704 a 7.6583195,7.6583195 0 0 0 -7.30756,7.64191 z" />
  <path
     id="path1060-3-7-5-5"
     style="fill:#808080;stroke:none;stroke-width:0.499999;stroke-opacity:1"
     d="m 73.23156,7.307577 a 7.6583195,7.6583195 0 0 0 0.23513,-0.0088 V 0 h -7.87704 a 7.6583195,7.6583195 0 0 0 7.64191,7.307564 z" />
  <path
     id="path1060-3-7-5-6"
     style="fill:#808080;stroke:none;stroke-width:0.499999;stroke-opacity:1"
     d="M 7.307716,0.23513 A 7.6583195,7.6583195 0 0 0 7.298916,0 H 1.39e-4 V 7.87704 A 7.6583195,7.6583195 0 0 0 7.307703,0.23513 Z" />
  <path
     id="rect2050-6-1"
     style="fill:#808080;stroke:none;stroke-width:1.2;stroke-miterlimit:4;stroke-dasharray:none;stroke-opacity:1"
     d="M 0.290421,0 C 0.129511,0 0,0.129512 0,0.290421 v 43.805594 c 0,0.160909 0.129511,0.290423 0.290421,0.290423 H 73.17641 c 0.16091,0 0.29042,-0.129514 0.29042,-0.290422 V 0.290421 C 73.46683,0.129512 73.33732,0 73.17641,0 Z M 1.08985,0.91157 h 70.58949 c 0.11047,0 0.20502,0.0643 0.25012,0.157097 h 0.57206 c 0.10506,0 0.18965,0.08459 0.18965,0.189653 v 41.511161 c 0,0.105064 -0.0846,0.189651 -0.18965,0.189651 h -0.54364 v 0.237196 c 0,0.1543 -0.12424,0.278535 -0.27854,0.278535 H 1.08985 c -0.1543,0 -0.27853,-0.124235 -0.27853,-0.278535 V 1.190108 c 0,-0.154299 0.12423,-0.278538 0.27853,-0.278538 z" />
</svg>
