<?xml version="1.0" encoding="UTF-8" standalone="no"?>
<!-- Created with Inkscape (http://www.inkscape.org/) -->

<svg
   width="73.466827mm"
   height="44.386436mm"
   viewBox="0 0 73.466826 44.386437"
   version="1.1"
   id="svg5"
   xmlns="http://www.w3.org/2000/svg"
   xmlns:svg="http://www.w3.org/2000/svg">
  <defs
     id="defs2" />
  <path
     id="path1060-1"
     style="fill:#808080;stroke:none;stroke-width:0.499999;stroke-opacity:1"
     d="M 0.17917,13.455316 V 28.746893 A 7.6583195,7.6583195 0 0 0 7.48674,21.104978 7.6583195,7.6583195 0 0 0 0.17917,13.455316 Z" />
  <path
     id="path1060-3-2"
     style="fill:#808080;stroke:none;stroke-width:0.499999;stroke-opacity:1"
     d="M 73.34242,28.782073 V 13.490496 a 7.6583195,7.6583195 0 0 0 -7.30756,7.64191 7.6583195,7.6583195 0 0 0 7.30756,7.649667 z" />
  <path
     id="path1060-3-6-7"
     style="fill:#808080;stroke:none;stroke-width:0.499999;stroke-opacity:1"
     d="M 44.3792,0.179167 H 29.08763 a 7.6583195,7.6583195 0 0 0 7.64191,7.307564 7.6583195,7.6583195 0 0 0 7.64966,-7.307564 z" />
  <path
     id="rect2050-6"
     style="fill:#808080;stroke:none;stroke-width:1.2;stroke-miterlimit:4;stroke-dasharray:none;stroke-opacity:1"
     d="M 0.29042,0 C 0.12951,0 0,0.129513 0,0.290422 v 43.805594 c 0,0.160909 0.12951,0.290422 0.29042,0.290422 h 72.88599 c 0.16091,0 0.29042,-0.129513 0.29042,-0.290422 V 0.290422 C 73.46683,0.129513 73.33732,0 73.17641,0 Z m 0.79943,0.911571 h 70.58949 c 0.11047,0 0.20502,0.0643 0.25012,0.157097 h 0.57206 c 0.10506,0 0.18965,0.08459 0.18965,0.189653 v 41.511161 c 0,0.105064 -0.0846,0.189651 -0.18965,0.189651 h -0.54364 v 0.237196 c 0,0.1543 -0.12424,0.278535 -0.27854,0.278535 H 1.08985 c -0.1543,0 -0.27853,-0.124235 -0.27853,-0.278535 V 1.190109 c 0,-0.1543 0.12423,-0.278538 0.27853,-0.278538 z" />
</svg>
