<?xml version="1.0" encoding="UTF-8" standalone="no"?>
<svg
   xmlns:dc="http://purl.org/dc/elements/1.1/"
   xmlns:cc="http://creativecommons.org/ns#"
   xmlns:rdf="http://www.w3.org/1999/02/22-rdf-syntax-ns#"
   xmlns:svg="http://www.w3.org/2000/svg"
   xmlns="http://www.w3.org/2000/svg"
   xmlns:sodipodi="http://sodipodi.sourceforge.net/DTD/sodipodi-0.dtd"
   xmlns:inkscape="http://www.inkscape.org/namespaces/inkscape"
   width="46.504898mm"
   height="46.504898mm"
   viewBox="0 0 46.504898 46.504898"
   version="1.1"
   id="svg8"
   inkscape:version="0.92.5 (2060ec1f9f, 2020-04-08)"
   sodipodi:docname="layouticon-symbolic.svg">
  <defs
     id="defs2" />
  <sodipodi:namedview
     id="base"
     pagecolor="#ffffff"
     bordercolor="#666666"
     borderopacity="1.0"
     inkscape:pageopacity="0.0"
     inkscape:pageshadow="2"
     inkscape:zoom="2.8"
     inkscape:cx="144.99678"
     inkscape:cy="51.576623"
     inkscape:document-units="mm"
     inkscape:current-layer="layer1"
     showgrid="false"
     inkscape:window-width="1920"
     inkscape:window-height="964"
     inkscape:window-x="0"
     inkscape:window-y="34"
     inkscape:window-maximized="1"
     fit-margin-top="0"
     fit-margin-left="0"
     fit-margin-right="0"
     fit-margin-bottom="0"
     inkscape:document-rotation="0"
     units="px" />
  <metadata
     id="metadata5">
    <rdf:RDF>
      <cc:Work
         rdf:about="">
        <dc:format>image/svg+xml</dc:format>
        <dc:type
           rdf:resource="http://purl.org/dc/dcmitype/StillImage" />
        <dc:title />
      </cc:Work>
    </rdf:RDF>
  </metadata>
  <g
     inkscape:label="Laag 1"
     inkscape:groupmode="layer"
     id="layer1"
     transform="translate(-39.015976,-72.407646)">
    <path
       style="opacity:1;fill:#b3b3b3;fill-opacity:1;stroke:none;stroke-width:0.16110399;stroke-miterlimit:4;stroke-dasharray:none;stroke-dashoffset:0;stroke-opacity:1"
       d="m 71.339097,116.67206 -0.07065,-11.37273 -19.085804,0.11858 -0.114853,-18.486886 -11.340691,0.07046 0.185508,29.859606 z"
       id="rect819"
       inkscape:connector-curvature="0" />
    <path
       style="opacity:1;fill:#b3b3b3;fill-opacity:1;stroke:none;stroke-width:0.16110399;stroke-miterlimit:4;stroke-dasharray:none;stroke-dashoffset:0;stroke-opacity:1"
       d="m 84.001344,73.771904 -30.426566,0.189136 0.185518,29.85967 30.426566,-0.18913 z m -13.352158,3.718119 a 5.2444194,2.2678572 35.184338 0 1 4.442108,1.686719 5.2444194,2.2678572 35.184338 0 1 2.979664,4.875671 5.2444194,2.2678572 35.184338 0 1 -1.68207,0.499711 l -4.776968,6.776331 a 6.9925593,3.0238096 35.184338 0 1 0.91829,3.616833 6.9925593,3.0238096 35.184338 0 1 -6.987171,-1.240751 L 60.96244,100.2013 60.035882,99.548107 64.61648,93.05083 a 6.9925593,3.0238096 35.184338 0 1 -3.516581,-6.163965 6.9925593,3.0238096 35.184338 0 1 3.715536,-0.350366 l 4.775936,-6.774263 a 5.2444194,2.2678572 35.184338 0 1 -0.09302,-1.753382 5.2444194,2.2678572 35.184338 0 1 1.150835,-0.518831 z"
       id="rect819-89"
       inkscape:connector-curvature="0" />
  </g>
</svg>
