<?xml version="1.0" encoding="UTF-8" standalone="no"?>
<svg
   xmlns:dc="http://purl.org/dc/elements/1.1/"
   xmlns:cc="http://creativecommons.org/ns#"
   xmlns:rdf="http://www.w3.org/1999/02/22-rdf-syntax-ns#"
   xmlns:svg="http://www.w3.org/2000/svg"
   xmlns="http://www.w3.org/2000/svg"
   width="55.711514mm"
   height="56.293732mm"
   viewBox="0 0 55.711514 56.293731"
   version="1.1"
   id="svg8">
  <defs
     id="defs2" />
  <metadata
     id="metadata5">
    <rdf:RDF>
      <cc:Work
         rdf:about="">
        <dc:format>image/svg+xml</dc:format>
        <dc:type
           rdf:resource="http://purl.org/dc/dcmitype/StillImage" />
        <dc:title></dc:title>
      </cc:Work>
    </rdf:RDF>
  </metadata>
  <g
     transform="translate(0.67467252,-0.28936346)"
     id="g894">
    <rect
       style="fill:#d3dae3;fill-opacity:1;stroke:none;stroke-width:1.70203531;stroke-miterlimit:4;stroke-dasharray:none;stroke-opacity:1"
       id="rect817"
       width="16.695354"
       height="12.327653"
       x="0.52433681"
       y="14.444504"
       ry="2.6356177" />
    <rect
       style="fill:#d3dae3;fill-opacity:1;stroke:none;stroke-width:1.70203531;stroke-miterlimit:4;stroke-dasharray:none;stroke-opacity:1"
       id="rect817-3"
       width="16.695354"
       height="12.327653"
       x="19.651232"
       y="14.444504"
       ry="2.6356175" />
    <rect
       style="fill:#d3dae3;fill-opacity:1;stroke:none;stroke-width:1.70203531;stroke-miterlimit:4;stroke-dasharray:none;stroke-opacity:1"
       id="rect817-6"
       width="16.695354"
       height="12.327653"
       x="0.30503348"
       y="29.383724"
       ry="2.6356175" />
    <rect
       style="fill:#d3dae3;fill-opacity:1;stroke:none;stroke-width:1.70203531;stroke-miterlimit:4;stroke-dasharray:none;stroke-opacity:1"
       id="rect817-3-7"
       width="16.695354"
       height="12.327653"
       x="19.431927"
       y="29.383724"
       ry="2.6356173" />
  </g>
  <path
     id="path869"
     transform="scale(0.26458333)"
     d="M 107.01367 6.8554688 A 98.172822 98.172822 0 0 0 41.392578 32.353516 L 73.164062 32.353516 A 80.349776 80.349776 0 0 1 107.0293 24.679688 A 80.349776 80.349776 0 0 1 187.44922 104.9375 L 187.44922 105.0293 A 80.349776 80.349776 0 0 1 107.12109 185.37891 A 80.349776 80.349776 0 0 1 73.066406 177.70117 L 41.267578 177.70117 A 98.172822 98.172822 0 0 0 107.125 203.20117 A 98.172822 98.172822 0 0 0 205.27148 105.0293 L 205.27148 104.91797 A 98.172822 98.172822 0 0 0 107.01367 6.8554688 z "
     style="fill:#d3dae3;fill-opacity:1;stroke:none;stroke-width:61.47264481;stroke-miterlimit:4;stroke-dasharray:none;stroke-opacity:1" />
</svg>
