<?xml version="1.0" encoding="UTF-8" standalone="no"?>
<svg
   xmlns:dc="http://purl.org/dc/elements/1.1/"
   xmlns:cc="http://creativecommons.org/ns#"
   xmlns:rdf="http://www.w3.org/1999/02/22-rdf-syntax-ns#"
   xmlns:svg="http://www.w3.org/2000/svg"
   xmlns="http://www.w3.org/2000/svg"
   xmlns:sodipodi="http://sodipodi.sourceforge.net/DTD/sodipodi-0.dtd"
   xmlns:inkscape="http://www.inkscape.org/namespaces/inkscape"
   width="300"
   height="300"
   viewBox="0 0 79.374998 79.375002"
   version="1.1"
   id="svg8"
   sodipodi:docname="budgie-wt-qmark.svg"
   inkscape:version="0.92.3 (2405546, 2018-03-11)">
  <sodipodi:namedview
     pagecolor="#ffffff"
     bordercolor="#666666"
     borderopacity="1"
     objecttolerance="10"
     gridtolerance="10"
     guidetolerance="10"
     inkscape:pageopacity="0"
     inkscape:pageshadow="2"
     inkscape:window-width="1632"
     inkscape:window-height="980"
     id="namedview13"
     showgrid="false"
     inkscape:zoom="0.78666667"
     inkscape:cx="-80.720338"
     inkscape:cy="150"
     inkscape:window-x="48"
     inkscape:window-y="0"
     inkscape:window-maximized="1"
     inkscape:current-layer="svg8" />
  <defs
     id="defs2" />
  <metadata
     id="metadata5">
    <rdf:RDF>
      <cc:Work
         rdf:about="">
        <dc:format>image/svg+xml</dc:format>
        <dc:type
           rdf:resource="http://purl.org/dc/dcmitype/StillImage" />
        <dc:title />
      </cc:Work>
    </rdf:RDF>
  </metadata>
  <g
     style="fill:#cccccc"
     id="layer1"
     transform="translate(0,-217.62498)">
    <g
       style="fill:#cccccc"
       id="g343"
       transform="translate(-97.289927,194.59941)">
      <rect
         ry="11.409281"
         y="60.742477"
         x="107.72322"
         height="22.818562"
         width="61.610119"
         id="rect12"
         style="fill:#cccccc;stroke-width:0.17747767" />
      <ellipse
         ry="15.592684"
         rx="16.733612"
         cy="59.785362"
         cx="133.65398"
         id="path14"
         style="fill:#cccccc;stroke-width:0.17747767" />
    </g>
  </g>
  <g
     aria-label="?"
     transform="matrix(0.26458333,0,0,0.26458333,69.284958,52.56688)"
     style="font-style:normal;font-weight:normal;font-size:40px;line-height:1.25;font-family:sans-serif;letter-spacing:0px;word-spacing:0px;fill:#ffffff;fill-opacity:1;stroke:none"
     id="flowRoot834">
    <path
       d="m -129.12891,-17.222656 h 9.51563 v 11.9062498 h -9.51563 z m 9.23438,-6.890625 h -8.95313 v -7.21875 q 0,-4.734375 1.3125,-7.78125 1.3125,-3.046875 5.53125,-7.078125 l 4.21875,-4.171875 q 2.67188,-2.484375 3.84375,-4.6875 1.21875,-2.203125 1.21875,-4.5 0,-4.171875 -3.09375,-6.75 -3.04687,-2.578125 -8.10937,-2.578125 -3.70313,0 -7.92188,1.640625 -4.17187,1.640625 -8.71875,4.78125 v -8.8125 q 4.40625,-2.671875 8.90625,-3.984375 4.54688,-1.3125 9.375,-1.3125 8.625,0 13.82813,4.546875 5.25,4.546875 5.25,12 0,3.5625 -1.6875,6.796875 -1.6875,3.1875 -5.90625,7.21875 l -4.125,4.03125 q -2.20313,2.203125 -3.14063,3.46875 -0.89062,1.21875 -1.26562,2.390625 -0.28125,0.984375 -0.42188,2.390625 -0.14062,1.40625 -0.14062,3.84375 z"
       style="font-size:96px;fill:#ffffff;fill-opacity:1"
       id="path820" />
  </g>
</svg>
