<?xml version="1.0" encoding="UTF-8" standalone="no"?>
<!-- Created with Inkscape (http://www.inkscape.org/) -->

<svg
   xmlns:dc="http://purl.org/dc/elements/1.1/"
   xmlns:cc="http://creativecommons.org/ns#"
   xmlns:rdf="http://www.w3.org/1999/02/22-rdf-syntax-ns#"
   xmlns:svg="http://www.w3.org/2000/svg"
   xmlns="http://www.w3.org/2000/svg"
   xmlns:sodipodi="http://sodipodi.sourceforge.net/DTD/sodipodi-0.dtd"
   xmlns:inkscape="http://www.inkscape.org/namespaces/inkscape"
   width="58.131615mm"
   height="58.03997mm"
   viewBox="0 0 58.131615 58.03997"
   version="1.1"
   id="svg8"
   inkscape:version="0.92.2 (5c3e80d, 2017-08-06)"
   sodipodi:docname="bshowtime-panel.svg">
  <defs
     id="defs2" />
  <sodipodi:namedview
     id="base"
     pagecolor="#ffffff"
     bordercolor="#666666"
     borderopacity="1.0"
     inkscape:pageopacity="0.0"
     inkscape:pageshadow="2"
     inkscape:zoom="1.4"
     inkscape:cx="75.643291"
     inkscape:cy="63.358541"
     inkscape:document-units="mm"
     inkscape:current-layer="layer1"
     showgrid="false"
     inkscape:window-width="1628"
     inkscape:window-height="988"
     inkscape:window-x="52"
     inkscape:window-y="34"
     inkscape:window-maximized="1"
     fit-margin-top="0"
     fit-margin-left="0"
     fit-margin-right="0"
     fit-margin-bottom="0" />
  <metadata
     id="metadata5">
    <rdf:RDF>
      <cc:Work
         rdf:about="">
        <dc:format>image/svg+xml</dc:format>
        <dc:type
           rdf:resource="http://purl.org/dc/dcmitype/StillImage" />
        <dc:title></dc:title>
      </cc:Work>
    </rdf:RDF>
  </metadata>
  <g
     inkscape:label="Layer 1"
     inkscape:groupmode="layer"
     id="layer1"
     transform="translate(-127.13451,-23.460917)">
    <path
       style="fill:#ffffff;fill-opacity:1;stroke:none;stroke-width:9.22348976;stroke-miterlimit:4;stroke-dasharray:none;stroke-opacity:1"
       d="m 157.97643,23.460917 v 20.084562 a 9.4494047,9.4494047 0 0 1 7.10396,9.14156 9.4494047,9.4494047 0 0 1 -0.16226,1.704806 l 18.04334,9.3462 A 29.065627,29.065627 0 0 0 185.2621,52.919068 29.065627,29.065627 0 0 0 180.91612,37.140186 29.065627,29.065627 0 0 0 157.97643,23.460917 Z m -4.48551,0.04961 a 29.065627,29.065627 0 0 0 -26.3524,28.44219 29.065627,29.065627 0 0 0 28.57758,29.544449 29.065627,29.065627 0 0 0 24.86774,-13.272055 l -17.89503,-9.269204 a 9.4494047,9.4494047 0 0 1 -7.05797,3.180168 9.4494047,9.4494047 0 0 1 -9.44904,-9.449036 9.4494047,9.4494047 0 0 1 7.30912,-9.192201 z"
       id="path915"
       inkscape:connector-curvature="0" />
  </g>
</svg>
