<?xml version="1.0" encoding="UTF-8" standalone="no"?>
<svg
   xmlns:dc="http://purl.org/dc/elements/1.1/"
   xmlns:cc="http://creativecommons.org/ns#"
   xmlns:rdf="http://www.w3.org/1999/02/22-rdf-syntax-ns#"
   xmlns:svg="http://www.w3.org/2000/svg"
   xmlns="http://www.w3.org/2000/svg"
   xmlns:sodipodi="http://sodipodi.sourceforge.net/DTD/sodipodi-0.dtd"
   xmlns:inkscape="http://www.inkscape.org/namespaces/inkscape"
   height="100px"
   version="1.1"
   width="100px"
   id="svg6"
   sodipodi:docname="budgie-clockworks-settings-symbolic.svg"
   inkscape:version="0.92.2 (5c3e80d, 2017-08-06)">
  <metadata
     id="metadata10">
    <rdf:RDF>
      <cc:Work
         rdf:about="">
        <dc:format>image/svg+xml</dc:format>
        <dc:type
           rdf:resource="http://purl.org/dc/dcmitype/StillImage" />
        <dc:title />
      </cc:Work>
    </rdf:RDF>
  </metadata>
  <sodipodi:namedview
     pagecolor="#ffffff"
     bordercolor="#666666"
     borderopacity="1"
     objecttolerance="10"
     gridtolerance="10"
     guidetolerance="10"
     inkscape:pageopacity="0"
     inkscape:pageshadow="2"
     inkscape:window-width="1920"
     inkscape:window-height="911"
     id="namedview8"
     showgrid="false"
     inkscape:zoom="1.668772"
     inkscape:cx="6.809024"
     inkscape:cy="79.273742"
     inkscape:window-x="0"
     inkscape:window-y="34"
     inkscape:window-maximized="1"
     inkscape:current-layer="svg6" />
  <defs
     id="defs2" />
  <rect
     style="fill:#000000;fill-opacity:1;stroke:none;stroke-width:3.47000003;stroke-miterlimit:4;stroke-dasharray:none;stroke-opacity:1"
     id="rect869"
     width="127.54237"
     height="124.15254"
     x="-175.77867"
     y="-101.99908"
     ry="0.55477703" />
  <circle
     id="circle4"
     r="43.610168"
     cy="50"
     cx="50"
     style="fill:none;stroke:#d3dae3;stroke-width:12.00000019;stroke-opacity:1;stroke-miterlimit:4;stroke-dasharray:none" />
  <path
     style="fill:#ffffff;fill-opacity:1;stroke:none;stroke-width:1.38455844px;stroke-linecap:butt;stroke-linejoin:miter;stroke-opacity:1"
     d="m 158.27249,131.73935 10.6249,9.05127 -14.92921,6.88965"
     id="path850"
     inkscape:connector-curvature="0"
     inkscape:transform-center-x="-0.4796737"
     inkscape:transform-center-y="0.7307179" />
  <path
     style="fill:#d3dae3;fill-opacity:1;stroke:none;stroke-width:12;stroke-miterlimit:4;stroke-dasharray:none;stroke-opacity:1"
     id="path871"
     sodipodi:type="arc"
     sodipodi:cx="34.745762"
     sodipodi:cy="39.40678"
     sodipodi:rx="16.949152"
     sodipodi:ry="16.949152"
     sodipodi:start="0"
     sodipodi:end="6.2831286"
     d="M 51.694914,39.40678 A 16.949152,16.949152 0 0 1 34.746002,56.355932 16.949152,16.949152 0 0 1 17.79661,39.407261 16.949152,16.949152 0 0 1 34.745041,22.457628 16.949152,16.949152 0 0 1 51.694914,39.405819 l -16.949152,9.61e-4 z" />
  <path
     style="fill:#d3dae3;fill-opacity:1;stroke:#d3dae3;stroke-width:0.59924304;stroke-opacity:1"
     d="M 40.531537,98.607928 C 23.291826,95.015124 8.9084486,82.46438 3.2843317,66.106508 -4.9593451,42.129592 6.2036465,15.912599 29.247875,5.1294825 35.962972,1.9872784 41.707939,0.79575479 50.074371,0.81000359 64.72687,0.83495787 76.069516,5.7445878 86.141707,16.421645 c 4.89225,5.18604 8.251595,10.833489 10.812298,18.176733 1.890288,5.420707 1.95403,5.915681 1.956313,15.191167 0.0018,8.381666 -0.174278,10.153305 -1.401684,14.082212 -2.999744,9.60212 -8.901833,18.439547 -16.395589,24.549788 -4.317114,3.520074 -12.881478,7.944914 -18.154949,9.379892 -4.189978,1.140143 -18.377404,1.650345 -22.426559,0.806491 z M 60.261503,86.304953 C 76.997396,81.349345 88.765019,64.869718 87.6198,47.991816 86.762894,35.362997 79.928749,24.095385 69.186095,17.599733 54.732637,8.8603093 35.578504,11.271735 23.498647,23.351591 9.0410503,37.809188 8.5559181,60.664057 22.394303,75.377894 c 5.98497,6.363596 11.700043,9.652229 20.18953,11.617693 4.412776,1.021631 13.032319,0.68488 17.67767,-0.690634 z"
     id="path10"
     inkscape:connector-curvature="0" />
  <path
     style="fill:#d3dae3;fill-opacity:1;stroke:#d3dae3;stroke-width:0.59924304;stroke-opacity:1"
     d="M 28.732541,55.112523 C 22.509615,52.905549 18.03954,46.267658 18.103083,39.328181 18.235097,24.91109 34.81561,17.368642 45.568871,26.83404 c 3.781968,3.329022 5.690421,7.419204 5.698132,12.212193 0.01162,7.223013 -2.909986,12.10842 -9.087133,15.195176 -4.199302,2.098416 -9.092899,2.415422 -13.447329,0.871114 z"
     id="path12"
     inkscape:connector-curvature="0" />
</svg>
