<?xml version="1.0" encoding="UTF-8" standalone="no"?>
<svg
   xmlns:dc="http://purl.org/dc/elements/1.1/"
   xmlns:cc="http://creativecommons.org/ns#"
   xmlns:rdf="http://www.w3.org/1999/02/22-rdf-syntax-ns#"
   xmlns:svg="http://www.w3.org/2000/svg"
   xmlns="http://www.w3.org/2000/svg"
   id="svg8"
   version="1.1"
   viewBox="0 0 43.030445 43.030445"
   height="43.030445mm"
   width="43.030445mm">
  <defs
     id="defs2" />
  <metadata
     id="metadata5">
    <rdf:RDF>
      <cc:Work
         rdf:about="">
        <dc:format>image/svg+xml</dc:format>
        <dc:type
           rdf:resource="http://purl.org/dc/dcmitype/StillImage" />
        <dc:title></dc:title>
      </cc:Work>
    </rdf:RDF>
  </metadata>
  <g
     transform="translate(-47.841008,-34.808728)"
     id="layer1">
    <path
       id="path3713"
       transform="scale(0.26458333)"
       d="m 262.13477,131.56055 a 81.317283,81.317283 0 0 0 -81.31836,81.3164 81.317283,81.317283 0 0 0 81.31836,81.31836 81.317283,81.317283 0 0 0 81.3164,-81.31836 81.317283,81.317283 0 0 0 -81.3164,-81.3164 z m 0,16.66797 a 64.649762,64.649762 0 0 1 64.65039,64.64843 64.649762,64.649762 0 0 1 -64.65039,64.65039 64.649762,64.649762 0 0 1 -64.65039,-64.65039 64.649762,64.649762 0 0 1 64.65039,-64.64843 z"
       style="fill:#b3b3b3;stroke-width:0.99999994" />
    <circle
       style="fill:#b3b3b3;stroke-width:0.08474934"
       r="5.4790249"
       cy="48.572975"
       cx="61.605621"
       id="path3715-3" />
  </g>
</svg>
