<?xml version="1.0" encoding="UTF-8" standalone="no"?>
<svg
   xmlns:dc="http://purl.org/dc/elements/1.1/"
   xmlns:cc="http://creativecommons.org/ns#"
   xmlns:rdf="http://www.w3.org/1999/02/22-rdf-syntax-ns#"
   xmlns:svg="http://www.w3.org/2000/svg"
   xmlns="http://www.w3.org/2000/svg"
   xmlns:sodipodi="http://sodipodi.sourceforge.net/DTD/sodipodi-0.dtd"
   xmlns:inkscape="http://www.inkscape.org/namespaces/inkscape"
   height="100px"
   version="1.1"
   width="100px"
   id="svg6"
   sodipodi:docname="budgie-hotcorners-symbolic.svg"
   inkscape:version="0.92.2 (5c3e80d, 2017-08-06)">
  <metadata
     id="metadata10">
    <rdf:RDF>
      <cc:Work
         rdf:about="">
        <dc:format>image/svg+xml</dc:format>
        <dc:type
           rdf:resource="http://purl.org/dc/dcmitype/StillImage" />
        <dc:title></dc:title>
      </cc:Work>
    </rdf:RDF>
  </metadata>
  <sodipodi:namedview
     pagecolor="#ffffff"
     bordercolor="#666666"
     borderopacity="1"
     objecttolerance="10"
     gridtolerance="10"
     guidetolerance="10"
     inkscape:pageopacity="0"
     inkscape:pageshadow="2"
     inkscape:window-width="1630"
     inkscape:window-height="988"
     id="namedview8"
     showgrid="false"
     inkscape:zoom="2.36"
     inkscape:cx="44.495516"
     inkscape:cy="6.436663"
     inkscape:window-x="50"
     inkscape:window-y="34"
     inkscape:window-maximized="1"
     inkscape:current-layer="svg6" />
  <defs
     id="defs2" />
  <path
     style="fill:#ffffff;fill-opacity:1;stroke:none;stroke-width:1.38455844px;stroke-linecap:butt;stroke-linejoin:miter;stroke-opacity:1"
     d="m 158.27249,131.73935 10.6249,9.05127 -14.92921,6.88965"
     id="path850"
     inkscape:connector-curvature="0"
     inkscape:transform-center-x="-0.4796737"
     inkscape:transform-center-y="0.7307179" />
  <path
     style="fill:#d3dae3;fill-opacity:1;stroke:#d3dae3;stroke-width:0.22987966;stroke-miterlimit:4;stroke-dasharray:none;stroke-opacity:0.78431373"
     d="M 21.004525,0.149411 A 20.511135,20.511135 0 0 0 0.51038536,20.672849 20.511135,20.511135 0 0 0 21.027963,41.170895 20.511135,20.511135 0 0 0 41.533823,20.66113 V 20.63769 A 20.511135,20.511135 0 0 0 21.004525,0.149411 Z m 0.0078,9.072266 a 11.437922,11.437922 0 0 1 11.447266,11.425781 v 0.01367 A 11.437922,11.437922 0 0 1 21.024044,32.098628 11.437922,11.437922 0 0 1 9.5845914,20.666987 11.437922,11.437922 0 0 1 21.012325,9.221675 Z"
     id="path876"
     inkscape:connector-curvature="0" />
  <path
     style="fill:#d3dae3;fill-opacity:1;stroke:#d3dae3;stroke-width:0.22987966;stroke-miterlimit:4;stroke-dasharray:none;stroke-opacity:0.78431373"
     d="M 21.004525,58.740472 A 20.511135,20.511135 0 0 0 0.51038532,79.26391 20.511135,20.511135 0 0 0 21.027963,99.761956 20.511135,20.511135 0 0 0 41.533823,79.252191 v -0.02344 A 20.511135,20.511135 0 0 0 21.004525,58.740472 Z m 0.0078,9.072266 a 11.437922,11.437922 0 0 1 11.447266,11.425781 v 0.01367 A 11.437922,11.437922 0 0 1 21.024044,90.689689 11.437922,11.437922 0 0 1 9.5845917,79.258048 11.437922,11.437922 0 0 1 21.012325,67.812736 Z"
     id="path876-3"
     inkscape:connector-curvature="0" />
  <path
     style="fill:#d3dae3;fill-opacity:1;stroke:#d3dae3;stroke-width:0.22987966;stroke-miterlimit:4;stroke-dasharray:none;stroke-opacity:0.78431373"
     d="M 79.007598,0.14941006 A 20.511135,20.511135 0 0 0 58.513458,20.672848 20.511135,20.511135 0 0 0 79.031036,41.170896 20.511135,20.511135 0 0 0 99.536896,20.661129 v -0.02344 A 20.511135,20.511135 0 0 0 79.007598,0.14941006 Z m 0.0078,9.07226604 A 11.437922,11.437922 0 0 1 90.462664,20.647457 v 0.01367 A 11.437922,11.437922 0 0 1 79.027117,32.098626 11.437922,11.437922 0 0 1 67.587664,20.666986 11.437922,11.437922 0 0 1 79.015398,9.2216741 Z"
     id="path876-8"
     inkscape:connector-curvature="0" />
  <path
     style="fill:#d3dae3;fill-opacity:1;stroke:#d3dae3;stroke-width:0.22987966;stroke-miterlimit:4;stroke-dasharray:none;stroke-opacity:0.78431373"
     d="M 79.0076,58.740471 A 20.511135,20.511135 0 0 0 58.51346,79.263909 20.511135,20.511135 0 0 0 79.031038,99.761955 20.511135,20.511135 0 0 0 99.536895,79.25219 V 79.22875 A 20.511135,20.511135 0 0 0 79.0076,58.740471 Z m 0.0078,9.072266 a 11.437922,11.437922 0 0 1 11.447266,11.425781 v 0.01367 A 11.437922,11.437922 0 0 1 79.027119,90.689688 11.437922,11.437922 0 0 1 67.587666,79.258047 11.437922,11.437922 0 0 1 79.0154,67.812735 Z"
     id="path876-0"
     inkscape:connector-curvature="0" />
  <rect
     style="fill:#d3dae3;fill-opacity:1;stroke:#d3dae3;stroke-width:0.204;stroke-miterlimit:4;stroke-dasharray:none;stroke-opacity:0.78431373"
     id="rect908"
     width="9.2882671"
     height="27.714991"
     x="16.377968"
     y="35.880997" />
  <rect
     style="fill:#d3dae3;fill-opacity:1;stroke:#d3dae3;stroke-width:0.204;stroke-miterlimit:4;stroke-dasharray:none;stroke-opacity:0.78431373"
     id="rect908-9"
     width="9.2882671"
     height="27.714991"
     x="74.381042"
     y="36.555145" />
  <rect
     style="fill:#d3dae3;fill-opacity:1;stroke:#d3dae3;stroke-width:0.204;stroke-miterlimit:4;stroke-dasharray:none;stroke-opacity:0.78431373"
     id="rect908-7"
     width="9.2882671"
     height="27.714991"
     x="-25.304283"
     y="35.729866"
     transform="rotate(-90)" />
  <rect
     style="fill:#d3dae3;fill-opacity:1;stroke:#d3dae3;stroke-width:0.204;stroke-miterlimit:4;stroke-dasharray:none;stroke-opacity:0.78431373"
     id="rect908-7-3"
     width="9.2882671"
     height="27.714991"
     x="-83.89534"
     y="36.778542"
     transform="rotate(-90)" />
</svg>
