<?xml version="1.0"?>
<svg xmlns="http://www.w3.org/2000/svg" viewBox="0 0 16.56 16.56" fill="#ffffff" width="16" height="16">
    <path d="M14.09 5.91L16.48 8.3L14.09 10.69L14.09 14.06L10.72 14.06L8.33 16.46L5.93 14.06L2.56 14.06L2.56 10.69L0.17 8.3L2.56 5.91L2.56 2.53L5.95 2.53L8.33 0.15L10.71 2.53L14.09 2.53L14.09 2.53L14.09 5.91ZM4.71 5.67L4.08 6.88L3.86 8.28L4.08 9.68L4.71 10.89L5.67 11.85L6.88 12.48L8.28 12.7L9.68 12.48L10.89 11.85L11.85 10.89L12.48 9.68L12.7 8.28L12.48 6.88L11.85 5.67L10.89 4.71L9.68 4.08L8.28 3.86L6.88 4.08L5.67 4.71L5.67 4.71L4.71 5.67Z" fill="#ffffff"/>
</svg>