<?xml version="1.0" encoding="UTF-8" standalone="no"?>
<svg
   xmlns:dc="http://purl.org/dc/elements/1.1/"
   xmlns:cc="http://creativecommons.org/ns#"
   xmlns:rdf="http://www.w3.org/1999/02/22-rdf-syntax-ns#"
   xmlns:svg="http://www.w3.org/2000/svg"
   xmlns="http://www.w3.org/2000/svg"
   id="svg8"
   version="1.1"
   viewBox="0 0 53.721175 53.721176"
   height="53.721176mm"
   width="53.721176mm">
  <defs
     id="defs2" />
  <metadata
     id="metadata5">
    <rdf:RDF>
      <cc:Work
         rdf:about="">
        <dc:format>image/svg+xml</dc:format>
        <dc:type
           rdf:resource="http://purl.org/dc/dcmitype/StillImage" />
        <dc:title></dc:title>
      </cc:Work>
    </rdf:RDF>
  </metadata>
  <path
     id="rect866"
     transform="scale(0.26458333)"
     d="M 36.419922 2.5800781 C 18.626298 2.5800781 4.3007812 16.905595 4.3007812 34.699219 L 4.3007812 165.33008 C 4.3007812 183.1237 18.626298 197.44922 36.419922 197.44922 L 167.05078 197.44922 C 184.84441 197.44922 199.16992 183.1237 199.16992 165.33008 L 199.16992 34.699219 C 199.16992 16.905595 184.84441 2.5800781 167.05078 2.5800781 L 36.419922 2.5800781 z M 141.50586 42.263672 C 155.54232 42.263672 166.38064 47.086372 174.01953 56.730469 C 181.65842 66.326822 185.47852 80.005209 185.47852 97.765625 C 185.47852 115.4783 181.65842 129.15668 174.01953 138.80078 C 166.38064 148.39713 155.54232 153.19531 141.50586 153.19531 C 127.42166 153.19531 116.56076 148.39713 108.92188 138.80078 C 101.28299 129.15668 97.462891 115.4783 97.462891 97.765625 C 97.462891 80.005209 101.28299 66.326822 108.92188 56.730469 C 116.56076 47.086372 127.42166 42.263672 141.50586 42.263672 z M 39.859375 44.197266 L 66.070312 44.197266 L 66.070312 132.06836 L 90.419922 132.06836 L 90.419922 151.11914 L 15.654297 151.11914 L 15.654297 132.06836 L 40.001953 132.06836 L 40.001953 62.960938 L 15.009766 68.117188 L 15.009766 49.353516 L 39.859375 44.197266 z M 141.50586 61.099609 C 135.58572 61.099609 131.36046 63.843533 128.83008 69.333984 C 126.2997 74.776692 125.03516 84.182726 125.03516 97.550781 C 125.03516 111.06207 126.2997 120.58681 128.83008 126.125 C 131.36046 131.66319 135.58572 134.43164 141.50586 134.43164 C 147.37825 134.43164 151.58095 131.66319 154.11133 126.125 C 156.64171 120.58681 157.90625 111.06207 157.90625 97.550781 C 157.90625 84.182726 156.64171 74.776692 154.11133 69.333984 C 151.62869 63.843533 147.426 61.099609 141.50586 61.099609 z "
     style="fill:#d3dae3;fill-opacity:1;stroke:none;stroke-width:68.05899811;stroke-miterlimit:4;stroke-dasharray:none;stroke-opacity:1" />
</svg>
