<?xml version="1.0" encoding="UTF-8" standalone="no"?>
<svg
   xmlns:dc="http://purl.org/dc/elements/1.1/"
   xmlns:cc="http://creativecommons.org/ns#"
   xmlns:rdf="http://www.w3.org/1999/02/22-rdf-syntax-ns#"
   xmlns:svg="http://www.w3.org/2000/svg"
   xmlns="http://www.w3.org/2000/svg"
   id="svg8"
   version="1.1"
   viewBox="0 0 53.721175 53.721176"
   height="53.721176mm"
   width="53.721176mm">
  <defs
     id="defs2" />
  <metadata
     id="metadata5">
    <rdf:RDF>
      <cc:Work
         rdf:about="">
        <dc:format>image/svg+xml</dc:format>
        <dc:type
           rdf:resource="http://purl.org/dc/dcmitype/StillImage" />
        <dc:title></dc:title>
      </cc:Work>
    </rdf:RDF>
  </metadata>
  <path
     id="rect866"
     transform="scale(0.26458333)"
     d="M 36.419922 2.5800781 C 18.626298 2.5800781 4.3007812 16.905595 4.3007812 34.699219 L 4.3007812 165.33008 C 4.3007812 183.1237 18.626298 197.44922 36.419922 197.44922 L 167.05078 197.44922 C 184.84441 197.44922 199.16992 183.1237 199.16992 165.33008 L 199.16992 34.699219 C 199.16992 16.905595 184.84441 2.5800781 167.05078 2.5800781 L 36.419922 2.5800781 z M 138.57031 42.263672 C 151.36545 42.263672 161.29536 45.081163 168.36133 50.714844 C 175.47504 56.348524 179.0332 64.201606 179.0332 74.275391 C 179.0332 80.100043 177.5293 85.542752 174.52148 90.603516 C 171.51367 95.616536 165.18707 102.34831 155.54297 110.79883 L 132.69727 130.85156 L 179.74805 130.85156 L 179.74805 151.11914 L 102.04688 151.11914 L 102.04688 130.85156 L 141.07617 96.404297 C 144.56141 93.253255 147.13954 90.173828 148.81055 87.166016 C 150.48155 84.158203 151.31836 81.031684 151.31836 77.785156 C 151.31836 72.772136 149.62218 68.737196 146.23242 65.681641 C 142.89041 62.626085 138.42773 61.099609 132.8418 61.099609 C 128.54492 61.099609 123.84093 62.030599 118.73242 63.892578 C 113.62392 65.706814 108.15864 68.428169 102.33398 72.056641 L 102.33398 48.566406 C 108.54058 46.513455 114.67491 44.962457 120.73828 43.912109 C 126.80165 42.814019 132.74566 42.263672 138.57031 42.263672 z M 39.859375 44.197266 L 66.070312 44.197266 L 66.070312 132.06836 L 90.419922 132.06836 L 90.419922 151.11914 L 15.654297 151.11914 L 15.654297 132.06836 L 40.001953 132.06836 L 40.001953 62.960938 L 15.009766 68.117188 L 15.009766 49.353516 L 39.859375 44.197266 z "
     style="fill:#d3dae3;fill-opacity:1;stroke:none;stroke-width:68.05899811;stroke-miterlimit:4;stroke-dasharray:none;stroke-opacity:1" />
</svg>
