<?xml version="1.0" encoding="UTF-8" standalone="no"?>
<svg
   xmlns:dc="http://purl.org/dc/elements/1.1/"
   xmlns:cc="http://creativecommons.org/ns#"
   xmlns:rdf="http://www.w3.org/1999/02/22-rdf-syntax-ns#"
   xmlns:svg="http://www.w3.org/2000/svg"
   xmlns="http://www.w3.org/2000/svg"
   id="svg8"
   version="1.1"
   viewBox="0 0 53.721175 53.721176"
   height="53.721176mm"
   width="53.721176mm">
  <defs
     id="defs2" />
  <metadata
     id="metadata5">
    <rdf:RDF>
      <cc:Work
         rdf:about="">
        <dc:format>image/svg+xml</dc:format>
        <dc:type
           rdf:resource="http://purl.org/dc/dcmitype/StillImage" />
        <dc:title></dc:title>
      </cc:Work>
    </rdf:RDF>
  </metadata>
  <path
     id="rect866"
     transform="scale(0.26458333)"
     d="M 36.419922 2.5800781 C 18.626298 2.5800781 4.3007812 16.905595 4.3007812 34.699219 L 4.3007812 165.33008 C 4.3007812 183.1237 18.626298 197.44922 36.419922 197.44922 L 167.05078 197.44922 C 184.84441 197.44922 199.16992 183.1237 199.16992 165.33008 L 199.16992 34.699219 C 199.16992 16.905595 184.84441 2.5800781 167.05078 2.5800781 L 36.419922 2.5800781 z M 136.7793 42.263672 C 150.67253 42.263672 161.05664 44.555339 167.93164 49.138672 C 174.85438 53.674262 178.31641 60.526693 178.31641 69.693359 C 178.31641 75.947699 176.66927 81.079427 173.375 85.089844 C 170.08073 89.052517 165.21094 91.845486 158.76562 93.46875 C 165.97483 95.330729 171.44206 98.577908 175.16602 103.20898 C 178.93772 107.79232 180.82227 113.64019 180.82227 120.75391 C 180.82227 131.35286 176.76476 139.42079 168.64844 144.95898 C 160.53212 150.44944 148.69119 153.19531 133.12695 153.19531 C 127.6365 153.19531 122.12218 152.7411 116.58398 151.83398 C 111.09353 150.97461 105.65082 149.66298 100.25586 147.89648 L 100.25586 126.62695 C 105.41211 129.20508 110.52127 131.16124 115.58203 132.49805 C 120.69054 133.78711 125.70356 134.43164 130.62109 134.43164 C 137.92578 134.43164 143.51172 133.1671 147.37891 130.63672 C 151.29384 128.10634 153.25195 124.47852 153.25195 119.75195 C 153.25195 114.88216 151.24674 111.2053 147.23633 108.72266 C 143.27365 106.19227 137.40126 104.92773 129.61914 104.92773 L 118.58984 104.92773 L 118.58984 87.166016 L 130.19141 87.166016 C 137.11415 87.166016 142.2704 86.091797 145.66016 83.943359 C 149.04991 81.747179 150.74414 78.430338 150.74414 73.990234 C 150.74414 69.884332 149.09701 66.708767 145.80273 64.464844 C 142.50846 62.22092 137.85352 61.099609 131.83789 61.099609 C 127.39779 61.099609 122.91059 61.600912 118.375 62.603516 C 113.83941 63.60612 109.32769 65.085504 104.83984 67.042969 L 104.83984 46.847656 C 110.28255 45.319879 115.67817 44.174045 121.02539 43.410156 C 126.37261 42.646267 131.62305 42.263672 136.7793 42.263672 z M 39.859375 44.197266 L 66.070312 44.197266 L 66.070312 132.06836 L 90.419922 132.06836 L 90.419922 151.11914 L 15.654297 151.11914 L 15.654297 132.06836 L 40.001953 132.06836 L 40.001953 62.960938 L 15.009766 68.117188 L 15.009766 49.353516 L 39.859375 44.197266 z "
     style="fill:#d3dae3;fill-opacity:1;stroke:none;stroke-width:68.05899811;stroke-miterlimit:4;stroke-dasharray:none;stroke-opacity:1" />
</svg>
