<?xml version="1.0" encoding="UTF-8" standalone="no"?>
<svg
   xmlns:dc="http://purl.org/dc/elements/1.1/"
   xmlns:cc="http://creativecommons.org/ns#"
   xmlns:rdf="http://www.w3.org/1999/02/22-rdf-syntax-ns#"
   xmlns:svg="http://www.w3.org/2000/svg"
   xmlns="http://www.w3.org/2000/svg"
   id="svg8"
   version="1.1"
   viewBox="0 0 53.721175 53.721176"
   height="53.721176mm"
   width="53.721176mm">
  <defs
     id="defs2" />
  <metadata
     id="metadata5">
    <rdf:RDF>
      <cc:Work
         rdf:about="">
        <dc:format>image/svg+xml</dc:format>
        <dc:type
           rdf:resource="http://purl.org/dc/dcmitype/StillImage" />
        <dc:title></dc:title>
      </cc:Work>
    </rdf:RDF>
  </metadata>
  <path
     id="rect866"
     transform="scale(0.26458333)"
     d="M 36.419922 2.5800781 C 18.626298 2.5800781 4.3007812 16.905595 4.3007812 34.699219 L 4.3007812 165.33008 C 4.3007812 183.1237 18.626298 197.44922 36.419922 197.44922 L 167.05078 197.44922 C 184.84441 197.44922 199.16992 183.1237 199.16992 165.33008 L 199.16992 34.699219 C 199.16992 16.905595 184.84441 2.5800781 167.05078 2.5800781 L 36.419922 2.5800781 z M 39.859375 44.197266 L 66.070312 44.197266 L 66.070312 132.06836 L 90.419922 132.06836 L 90.419922 151.11914 L 15.654297 151.11914 L 15.654297 132.06836 L 40.001953 132.06836 L 40.001953 62.960938 L 15.009766 68.117188 L 15.009766 49.353516 L 39.859375 44.197266 z M 105.98633 44.197266 L 174.52148 44.197266 L 174.52148 64.464844 L 127.9707 64.464844 L 127.9707 81.007812 C 130.0714 80.434896 132.17274 80.005208 134.27344 79.71875 C 136.42187 79.384549 138.64193 79.216797 140.93359 79.216797 C 153.96745 79.216797 164.1122 82.488499 171.36914 89.029297 C 178.62608 95.522352 182.25586 104.59288 182.25586 116.24219 C 182.25586 127.79601 178.29253 136.84397 170.36719 143.38477 C 162.48958 149.92556 151.53255 153.19531 137.49609 153.19531 C 131.43273 153.19531 125.4171 152.59787 119.44922 151.4043 C 113.52908 150.25846 107.63216 148.49262 101.75977 146.10547 L 101.75977 124.40625 C 107.58442 127.74826 113.09874 130.25477 118.30273 131.92578 C 123.55447 133.59679 128.49588 134.43164 133.12695 134.43164 C 139.81098 134.43164 145.06337 132.80903 148.88281 129.5625 C 152.75 126.26823 154.68359 121.82812 154.68359 116.24219 C 154.68359 110.60851 152.75 106.1684 148.88281 102.92188 C 145.06337 99.675347 139.81098 98.052734 133.12695 98.052734 C 129.16428 98.052734 124.93902 98.576606 120.45117 99.626953 C 115.96332 100.62956 111.14258 102.20508 105.98633 104.35352 L 105.98633 44.197266 z "
     style="fill:#d3dae3;fill-opacity:1;stroke:none;stroke-width:68.05899811;stroke-miterlimit:4;stroke-dasharray:none;stroke-opacity:1" />
</svg>
