<?xml version="1.0" encoding="UTF-8" standalone="no"?>
<svg
   xmlns:dc="http://purl.org/dc/elements/1.1/"
   xmlns:cc="http://creativecommons.org/ns#"
   xmlns:rdf="http://www.w3.org/1999/02/22-rdf-syntax-ns#"
   xmlns:svg="http://www.w3.org/2000/svg"
   xmlns="http://www.w3.org/2000/svg"
   id="svg8"
   version="1.1"
   viewBox="0 0 53.721175 53.721176"
   height="53.721176mm"
   width="53.721176mm">
  <defs
     id="defs2" />
  <metadata
     id="metadata5">
    <rdf:RDF>
      <cc:Work
         rdf:about="">
        <dc:format>image/svg+xml</dc:format>
        <dc:type
           rdf:resource="http://purl.org/dc/dcmitype/StillImage" />
        <dc:title></dc:title>
      </cc:Work>
    </rdf:RDF>
  </metadata>
  <path
     id="rect866"
     transform="scale(0.26458333)"
     d="M 36.419922 2.5800781 C 18.626298 2.5800781 4.3007812 16.905595 4.3007812 34.699219 L 4.3007812 165.33008 C 4.3007812 183.1237 18.626298 197.44922 36.419922 197.44922 L 167.05078 197.44922 C 184.84441 197.44922 199.16992 183.1237 199.16992 165.33008 L 199.16992 34.699219 C 199.16992 16.905595 184.84441 2.5800781 167.05078 2.5800781 L 36.419922 2.5800781 z M 149.52734 42.408203 C 154.44488 42.408203 159.21853 42.788846 163.84961 43.552734 C 168.48069 44.316623 173.06402 45.462457 177.59961 46.990234 L 177.59961 66.755859 C 173.06402 64.607422 168.79167 63.031901 164.78125 62.029297 C 160.77083 60.97895 156.85655 60.455078 153.03711 60.455078 C 144.8253 60.455078 138.42708 62.746745 133.84375 67.330078 C 129.26042 71.865668 126.58615 78.620009 125.82227 87.595703 C 128.97331 85.256294 132.38824 83.514974 136.06445 82.369141 C 139.74067 81.175564 143.75109 80.578125 148.0957 80.578125 C 159.02886 80.578125 167.83746 83.776259 174.52148 90.173828 C 181.25325 96.571397 184.61914 104.9503 184.61914 115.31055 C 184.61914 126.76888 180.87066 135.96007 173.375 142.88281 C 165.87934 149.75781 155.82878 153.19531 143.22461 153.19531 C 129.33138 153.19531 118.56662 148.51584 110.92773 139.1582 C 103.33659 129.75282 99.541016 116.43251 99.541016 99.197266 C 99.541016 81.532336 103.98112 67.663628 112.86133 57.589844 C 121.78928 47.468316 134.01085 42.408203 149.52734 42.408203 z M 39.859375 44.197266 L 66.070312 44.197266 L 66.070312 132.06836 L 90.419922 132.06836 L 90.419922 151.11914 L 15.654297 151.11914 L 15.654297 132.06836 L 40.001953 132.06836 L 40.001953 62.960938 L 15.009766 68.117188 L 15.009766 49.353516 L 39.859375 44.197266 z M 143.51172 98.337891 C 138.68967 98.337891 135.06185 99.913412 132.62695 103.06445 C 130.2398 106.16775 129.04492 110.84722 129.04492 117.10156 C 129.04492 123.3559 130.2398 128.05794 132.62695 131.20898 C 135.06185 134.31228 138.68967 135.86523 143.51172 135.86523 C 148.38151 135.86523 152.00933 134.31228 154.39648 131.20898 C 156.83138 128.05794 158.04883 123.3559 158.04883 117.10156 C 158.04883 110.84722 156.83138 106.16775 154.39648 103.06445 C 152.00933 99.913412 148.38151 98.337891 143.51172 98.337891 z "
     style="fill:#d3dae3;fill-opacity:1;stroke:none;stroke-width:68.05899811;stroke-miterlimit:4;stroke-dasharray:none;stroke-opacity:1" />
</svg>
