<?xml version="1.0" encoding="UTF-8" standalone="no"?>
<svg
   xmlns:dc="http://purl.org/dc/elements/1.1/"
   xmlns:cc="http://creativecommons.org/ns#"
   xmlns:rdf="http://www.w3.org/1999/02/22-rdf-syntax-ns#"
   xmlns:svg="http://www.w3.org/2000/svg"
   xmlns="http://www.w3.org/2000/svg"
   id="svg8"
   version="1.1"
   viewBox="0 0 53.721175 53.721176"
   height="53.721176mm"
   width="53.721176mm">
  <defs
     id="defs2" />
  <metadata
     id="metadata5">
    <rdf:RDF>
      <cc:Work
         rdf:about="">
        <dc:format>image/svg+xml</dc:format>
        <dc:type
           rdf:resource="http://purl.org/dc/dcmitype/StillImage" />
        <dc:title></dc:title>
      </cc:Work>
    </rdf:RDF>
  </metadata>
  <path
     id="rect866"
     transform="scale(0.26458333)"
     d="M 36.419922 2.5800781 C 18.626298 2.5800781 4.3007812 16.905595 4.3007812 34.699219 L 4.3007812 165.33008 C 4.3007812 183.1237 18.626298 197.44922 36.419922 197.44922 L 167.05078 197.44922 C 184.84441 197.44922 199.16992 183.1237 199.16992 165.33008 L 199.16992 34.699219 C 199.16992 16.905595 184.84441 2.5800781 167.05078 2.5800781 L 36.419922 2.5800781 z M 141.50586 42.263672 C 154.44423 42.263672 164.27995 44.626953 171.01172 49.353516 C 177.74349 54.032335 181.10937 60.907336 181.10938 69.978516 C 181.10938 76.041883 179.43772 81.10395 176.0957 85.162109 C 172.80143 89.220269 167.90907 92.228082 161.41602 94.185547 C 168.67296 96.190755 174.13824 99.460504 177.81445 103.99609 C 181.53841 108.48394 183.40039 114.16602 183.40039 121.04102 C 183.40039 131.63997 179.86871 139.66081 172.80273 145.10352 C 165.78451 150.49848 155.35134 153.19531 141.50586 153.19531 C 127.61263 153.19531 117.10981 150.49848 109.99609 145.10352 C 102.93012 139.66081 99.396484 131.63997 99.396484 121.04102 C 99.396484 114.16602 101.23589 108.48394 104.91211 103.99609 C 108.63607 99.460504 114.12587 96.190755 121.38281 94.185547 C 114.88976 92.228082 109.99544 89.220269 106.70117 85.162109 C 103.4069 81.10395 101.75977 76.041883 101.75977 69.978516 C 101.75977 60.955079 105.12565 54.080078 111.85742 49.353516 C 118.58919 44.626953 128.47201 42.263672 141.50586 42.263672 z M 39.859375 44.197266 L 66.070312 44.197266 L 66.070312 132.06836 L 90.419922 132.06836 L 90.419922 151.11914 L 15.654297 151.11914 L 15.654297 132.06836 L 40.001953 132.06836 L 40.001953 62.960938 L 15.009766 68.117188 L 15.009766 49.353516 L 39.859375 44.197266 z M 141.50586 59.595703 C 137.1135 59.595703 133.72504 60.741537 131.33789 63.033203 C 128.99848 65.32487 127.82812 68.570096 127.82812 72.771484 C 127.82812 77.020616 128.99848 80.292318 131.33789 82.583984 C 133.72504 84.875651 137.1135 86.021484 141.50586 86.021484 C 145.80273 86.021484 149.12153 84.875651 151.46094 82.583984 C 153.80035 80.292318 154.9707 77.020616 154.9707 72.771484 C 154.9707 68.522353 153.80035 65.277127 151.46094 63.033203 C 149.12153 60.741537 145.80273 59.595703 141.50586 59.595703 z M 141.50586 103.2793 C 136.34961 103.2793 132.38824 104.68902 129.61914 107.50586 C 126.85004 110.3227 125.46484 114.35569 125.46484 119.60742 C 125.46484 124.85916 126.85004 128.8941 129.61914 131.71094 C 132.38824 134.48003 136.34961 135.86523 141.50586 135.86523 C 146.61437 135.86523 150.5306 134.48003 153.25195 131.71094 C 155.97331 128.8941 157.33398 124.85916 157.33398 119.60742 C 157.33398 114.30794 155.97331 110.27496 153.25195 107.50586 C 150.5306 104.68902 146.61437 103.2793 141.50586 103.2793 z "
     style="fill:#d3dae3;fill-opacity:1;stroke:none;stroke-width:68.05899811;stroke-miterlimit:4;stroke-dasharray:none;stroke-opacity:1" />
</svg>
