<?xml version="1.0" encoding="UTF-8" standalone="no"?>
<svg
   xmlns:dc="http://purl.org/dc/elements/1.1/"
   xmlns:cc="http://creativecommons.org/ns#"
   xmlns:rdf="http://www.w3.org/1999/02/22-rdf-syntax-ns#"
   xmlns:svg="http://www.w3.org/2000/svg"
   xmlns="http://www.w3.org/2000/svg"
   id="svg8"
   version="1.1"
   viewBox="0 0 53.721175 53.721176"
   height="53.721176mm"
   width="53.721176mm">
  <defs
     id="defs2" />
  <metadata
     id="metadata5">
    <rdf:RDF>
      <cc:Work
         rdf:about="">
        <dc:format>image/svg+xml</dc:format>
        <dc:type
           rdf:resource="http://purl.org/dc/dcmitype/StillImage" />
        <dc:title></dc:title>
      </cc:Work>
    </rdf:RDF>
  </metadata>
  <path
     id="rect866"
     transform="scale(0.26458333)"
     d="M 36.419922 2.5800781 C 18.626298 2.5800781 4.3007812 16.905595 4.3007812 34.699219 L 4.3007812 165.33008 C 4.3007812 183.1237 18.626298 197.44922 36.419922 197.44922 L 167.05078 197.44922 C 184.84441 197.44922 199.16992 183.1237 199.16992 165.33008 L 199.16992 34.699219 C 199.16992 16.905595 184.84441 2.5800781 167.05078 2.5800781 L 36.419922 2.5800781 z M 139.28711 42.408203 C 153.22808 42.408203 164.01736 47.110244 171.65625 56.515625 C 179.29514 65.921006 183.11523 79.216798 183.11523 96.404297 C 183.11523 114.06923 178.65061 127.96246 169.72266 138.08398 C 160.79471 148.15777 148.54861 153.19531 132.98438 153.19531 C 127.97135 153.19531 123.17318 152.81272 118.58984 152.04883 C 114.00651 151.33268 109.51931 150.23589 105.12695 148.75586 L 105.12695 128.99023 C 109.51931 131.04319 113.72005 132.59418 117.73047 133.64453 C 121.74089 134.64714 125.70421 135.14844 129.61914 135.14844 C 137.83095 135.14844 144.22721 132.88129 148.81055 128.3457 C 153.39388 123.76237 156.09266 116.98155 156.9043 108.00586 C 153.65777 110.39301 150.19575 112.18338 146.51953 113.37695 C 142.84332 114.57053 138.85742 115.16797 134.56055 115.16797 C 123.62739 115.16797 114.79427 111.9924 108.0625 105.64258 C 101.37847 99.245009 98.037109 90.843532 98.037109 80.435547 C 98.037109 68.929471 101.76107 59.713758 109.20898 52.791016 C 116.70464 45.868273 126.73069 42.408203 139.28711 42.408203 z M 39.859375 44.197266 L 66.070312 44.197266 L 66.070312 132.06836 L 90.419922 132.06836 L 90.419922 151.11914 L 15.654297 151.11914 L 15.654297 132.06836 L 40.001953 132.06836 L 40.001953 62.960938 L 15.009766 68.117188 L 15.009766 49.353516 L 39.859375 44.197266 z M 139.14258 59.738281 C 134.32053 59.738281 130.69271 61.313802 128.25781 64.464844 C 125.82292 67.615885 124.60547 72.295356 124.60547 78.501953 C 124.60547 84.756293 125.82292 89.458333 128.25781 92.609375 C 130.69271 95.712673 134.32053 97.263672 139.14258 97.263672 C 143.96463 97.263672 147.5944 95.712673 150.0293 92.609375 C 152.46419 89.458333 153.68164 84.756293 153.68164 78.501953 C 153.68164 72.295356 152.46419 67.615885 150.0293 64.464844 C 147.5944 61.313802 143.96463 59.738281 139.14258 59.738281 z "
     style="fill:#d3dae3;fill-opacity:1;stroke:none;stroke-width:68.05899811;stroke-miterlimit:4;stroke-dasharray:none;stroke-opacity:1" />
</svg>
