<?xml version="1.0" encoding="UTF-8" standalone="no"?>
<svg
   xmlns:dc="http://purl.org/dc/elements/1.1/"
   xmlns:cc="http://creativecommons.org/ns#"
   xmlns:rdf="http://www.w3.org/1999/02/22-rdf-syntax-ns#"
   xmlns:svg="http://www.w3.org/2000/svg"
   xmlns="http://www.w3.org/2000/svg"
   id="svg8"
   version="1.1"
   viewBox="0 0 53.721175 53.721176"
   height="53.721176mm"
   width="53.721176mm">
  <defs
     id="defs2" />
  <metadata
     id="metadata5">
    <rdf:RDF>
      <cc:Work
         rdf:about="">
        <dc:format>image/svg+xml</dc:format>
        <dc:type
           rdf:resource="http://purl.org/dc/dcmitype/StillImage" />
        <dc:title></dc:title>
      </cc:Work>
    </rdf:RDF>
  </metadata>
  <path
     id="rect866"
     transform="scale(0.26458333)"
     d="M 36.419922 2.5800781 C 18.626298 2.5800781 4.3007812 16.905595 4.3007812 34.699219 L 4.3007812 165.33008 C 4.3007812 183.1237 18.626298 197.44922 36.419922 197.44922 L 167.05078 197.44922 C 184.84441 197.44922 199.16992 183.1237 199.16992 165.33008 L 199.16992 34.699219 C 199.16992 16.905595 184.84441 2.5800781 167.05078 2.5800781 L 36.419922 2.5800781 z M 97.375 42.263672 C 110.17014 42.263672 120.10004 45.081163 127.16602 50.714844 C 134.27973 56.348524 137.83594 64.201606 137.83594 74.275391 C 137.83594 80.100043 136.33203 85.542752 133.32422 90.603516 C 130.31641 95.616536 123.99175 102.34831 114.34766 110.79883 L 91.501953 130.85156 L 138.55273 130.85156 L 138.55273 151.11914 L 60.851562 151.11914 L 60.851562 130.85156 L 99.880859 96.404297 C 103.3661 93.253255 105.94423 90.173828 107.61523 87.166016 C 109.28624 84.158203 110.12109 81.031684 110.12109 77.785156 C 110.12109 72.772136 108.42687 68.737196 105.03711 65.681641 C 101.6951 62.626085 97.230468 61.099609 91.644531 61.099609 C 87.347656 61.099609 82.645616 62.030599 77.537109 63.892578 C 72.428603 65.706814 66.963324 68.428169 61.138672 72.056641 L 61.138672 48.566406 C 67.345269 46.513455 73.479601 44.962457 79.542969 43.912109 C 85.606337 42.814019 91.550348 42.263672 97.375 42.263672 z "
     style="fill:#d3dae3;fill-opacity:1;stroke:none;stroke-width:68.05899811;stroke-miterlimit:4;stroke-dasharray:none;stroke-opacity:1" />
</svg>
