<?xml version="1.0" encoding="UTF-8" standalone="no"?>
<svg
   xmlns:dc="http://purl.org/dc/elements/1.1/"
   xmlns:cc="http://creativecommons.org/ns#"
   xmlns:rdf="http://www.w3.org/1999/02/22-rdf-syntax-ns#"
   xmlns:svg="http://www.w3.org/2000/svg"
   xmlns="http://www.w3.org/2000/svg"
   id="svg8"
   version="1.1"
   viewBox="0 0 53.721175 53.721176"
   height="53.721176mm"
   width="53.721176mm">
  <defs
     id="defs2" />
  <metadata
     id="metadata5">
    <rdf:RDF>
      <cc:Work
         rdf:about="">
        <dc:format>image/svg+xml</dc:format>
        <dc:type
           rdf:resource="http://purl.org/dc/dcmitype/StillImage" />
        <dc:title></dc:title>
      </cc:Work>
    </rdf:RDF>
  </metadata>
  <path
     id="rect866"
     transform="scale(0.26458333)"
     d="M 36.419922 2.5800781 C 18.626298 2.5800781 4.3007812 16.905595 4.3007812 34.699219 L 4.3007812 165.33008 C 4.3007812 183.1237 18.626298 197.44922 36.419922 197.44922 L 167.05078 197.44922 C 184.84441 197.44922 199.16992 183.1237 199.16992 165.33008 L 199.16992 34.699219 C 199.16992 16.905595 184.84441 2.5800781 167.05078 2.5800781 L 36.419922 2.5800781 z M 52.927734 42.263672 C 65.722873 42.263672 75.654731 45.081163 82.720703 50.714844 C 89.834418 56.348524 93.390625 64.201606 93.390625 74.275391 C 93.390625 80.100043 91.886719 85.542752 88.878906 90.603516 C 85.871094 95.616536 79.544487 102.34831 69.900391 110.79883 L 47.056641 130.85156 L 94.107422 130.85156 L 94.107422 151.11914 L 16.404297 151.11914 L 16.404297 130.85156 L 55.435547 96.404297 C 58.92079 93.253255 61.498915 90.173828 63.169922 87.166016 C 64.840929 84.158203 65.675781 81.031684 65.675781 77.785156 C 65.675781 72.772136 63.981554 68.737196 60.591797 65.681641 C 57.249783 62.626085 52.785156 61.099609 47.199219 61.099609 C 42.902344 61.099609 38.200304 62.030599 33.091797 63.892578 C 27.98329 65.706814 22.516059 68.428169 16.691406 72.056641 L 16.691406 48.566406 C 22.898003 46.513455 29.032335 44.962457 35.095703 43.912109 C 41.159071 42.814019 47.103082 42.263672 52.927734 42.263672 z M 144.9082 42.263672 C 157.70334 42.263672 167.63325 45.081163 174.69922 50.714844 C 181.81293 56.348524 185.36914 64.201606 185.36914 74.275391 C 185.36914 80.100043 183.86523 85.542752 180.85742 90.603516 C 177.84961 95.616536 171.52496 102.34831 161.88086 110.79883 L 139.03516 130.85156 L 186.08594 130.85156 L 186.08594 151.11914 L 108.38477 151.11914 L 108.38477 130.85156 L 147.41406 96.404297 C 150.89931 93.253255 153.47743 90.173828 155.14844 87.166016 C 156.81944 84.158203 157.6543 81.031684 157.6543 77.785156 C 157.6543 72.772136 155.96007 68.737196 152.57031 65.681641 C 149.2283 62.626085 144.76367 61.099609 139.17773 61.099609 C 134.88086 61.099609 130.17882 62.030599 125.07031 63.892578 C 119.96181 65.706814 114.49457 68.428169 108.66992 72.056641 L 108.66992 48.566406 C 114.87652 46.513455 121.0128 44.962457 127.07617 43.912109 C 133.13954 42.814019 139.08355 42.263672 144.9082 42.263672 z "
     style="fill:#d3dae3;fill-opacity:1;stroke:none;stroke-width:68.05899811;stroke-miterlimit:4;stroke-dasharray:none;stroke-opacity:1" />
</svg>
