<?xml version="1.0" encoding="UTF-8" standalone="no"?>
<svg
   xmlns:dc="http://purl.org/dc/elements/1.1/"
   xmlns:cc="http://creativecommons.org/ns#"
   xmlns:rdf="http://www.w3.org/1999/02/22-rdf-syntax-ns#"
   xmlns:svg="http://www.w3.org/2000/svg"
   xmlns="http://www.w3.org/2000/svg"
   id="svg8"
   version="1.1"
   viewBox="0 0 53.721175 53.721176"
   height="53.721176mm"
   width="53.721176mm">
  <defs
     id="defs2" />
  <metadata
     id="metadata5">
    <rdf:RDF>
      <cc:Work
         rdf:about="">
        <dc:format>image/svg+xml</dc:format>
        <dc:type
           rdf:resource="http://purl.org/dc/dcmitype/StillImage" />
        <dc:title></dc:title>
      </cc:Work>
    </rdf:RDF>
  </metadata>
  <path
     id="rect866"
     transform="scale(0.26458333)"
     d="M 36.419922 2.5800781 C 18.626298 2.5800781 4.3007812 16.905595 4.3007812 34.699219 L 4.3007812 165.33008 C 4.3007812 183.1237 18.626298 197.44922 36.419922 197.44922 L 167.05078 197.44922 C 184.84441 197.44922 199.16992 183.1237 199.16992 165.33008 L 199.16992 34.699219 C 199.16992 16.905595 184.84441 2.5800781 167.05078 2.5800781 L 36.419922 2.5800781 z M 52.927734 42.263672 C 65.722873 42.263672 75.654731 45.081163 82.720703 50.714844 C 89.834418 56.348524 93.390625 64.201606 93.390625 74.275391 C 93.390625 80.100043 91.886719 85.542752 88.878906 90.603516 C 85.871094 95.616536 79.544487 102.34831 69.900391 110.79883 L 47.056641 130.85156 L 94.107422 130.85156 L 94.107422 151.11914 L 16.404297 151.11914 L 16.404297 130.85156 L 55.435547 96.404297 C 58.92079 93.253255 61.498915 90.173828 63.169922 87.166016 C 64.840929 84.158203 65.675781 81.031684 65.675781 77.785156 C 65.675781 72.772136 63.981554 68.737196 60.591797 65.681641 C 57.249783 62.626085 52.785156 61.099609 47.199219 61.099609 C 42.902344 61.099609 38.200304 62.030599 33.091797 63.892578 C 27.98329 65.706814 22.516059 68.428169 16.691406 72.056641 L 16.691406 48.566406 C 22.898003 46.513455 29.032335 44.962457 35.095703 43.912109 C 41.159071 42.814019 47.103082 42.263672 52.927734 42.263672 z M 143.11719 42.263672 C 157.01042 42.263672 167.39453 44.555339 174.26953 49.138672 C 181.19227 53.674262 184.6543 60.526693 184.6543 69.693359 C 184.6543 75.947699 183.00716 81.079427 179.71289 85.089844 C 176.41862 89.052517 171.54883 91.845486 165.10352 93.46875 C 172.31272 95.330729 177.77799 98.577908 181.50195 103.20898 C 185.27365 107.79232 187.16016 113.64019 187.16016 120.75391 C 187.16016 131.35286 183.10265 139.42079 174.98633 144.95898 C 166.87001 150.44944 155.02908 153.19531 139.46484 153.19531 C 133.97439 153.19531 128.46007 152.7411 122.92188 151.83398 C 117.43142 150.97461 111.98872 149.66298 106.59375 147.89648 L 106.59375 126.62695 C 111.75 129.20508 116.85916 131.16124 121.91992 132.49805 C 127.02843 133.78711 132.04145 134.43164 136.95898 134.43164 C 144.26367 134.43164 149.84961 133.1671 153.7168 130.63672 C 157.63173 128.10634 159.58789 124.47852 159.58789 119.75195 C 159.58789 114.88216 157.58268 111.2053 153.57227 108.72266 C 149.60959 106.19227 143.7372 104.92773 135.95508 104.92773 L 124.92773 104.92773 L 124.92773 87.166016 L 136.5293 87.166016 C 143.45204 87.166016 148.60829 86.091797 151.99805 83.943359 C 155.3878 81.747179 157.08203 78.430338 157.08203 73.990234 C 157.08203 69.884332 155.4349 66.708767 152.14062 64.464844 C 148.84635 62.22092 144.19141 61.099609 138.17578 61.099609 C 133.73568 61.099609 129.24848 61.600912 124.71289 62.603516 C 120.1773 63.60612 115.66558 65.085504 111.17773 67.042969 L 111.17773 46.847656 C 116.62044 45.319879 122.01411 44.174045 127.36133 43.410156 C 132.70855 42.646267 137.96094 42.263672 143.11719 42.263672 z "
     style="fill:#d3dae3;fill-opacity:1;stroke:none;stroke-width:68.05899811;stroke-miterlimit:4;stroke-dasharray:none;stroke-opacity:1" />
</svg>
