<?xml version="1.0" encoding="UTF-8" standalone="no"?>
<svg
   xmlns:dc="http://purl.org/dc/elements/1.1/"
   xmlns:cc="http://creativecommons.org/ns#"
   xmlns:rdf="http://www.w3.org/1999/02/22-rdf-syntax-ns#"
   xmlns:svg="http://www.w3.org/2000/svg"
   xmlns="http://www.w3.org/2000/svg"
   id="svg8"
   version="1.1"
   viewBox="0 0 53.721175 53.721176"
   height="53.721176mm"
   width="53.721176mm">
  <defs
     id="defs2" />
  <metadata
     id="metadata5">
    <rdf:RDF>
      <cc:Work
         rdf:about="">
        <dc:format>image/svg+xml</dc:format>
        <dc:type
           rdf:resource="http://purl.org/dc/dcmitype/StillImage" />
        <dc:title></dc:title>
      </cc:Work>
    </rdf:RDF>
  </metadata>
  <path
     id="rect866"
     transform="scale(0.26458333)"
     d="M 36.419922 2.5800781 C 18.626298 2.5800781 4.3007812 16.905595 4.3007812 34.699219 L 4.3007812 165.33008 C 4.3007812 183.1237 18.626298 197.44922 36.419922 197.44922 L 167.05078 197.44922 C 184.84441 197.44922 199.16992 183.1237 199.16992 165.33008 L 199.16992 34.699219 C 199.16992 16.905595 184.84441 2.5800781 167.05078 2.5800781 L 36.419922 2.5800781 z M 95.583984 42.263672 C 109.47721 42.263672 119.86133 44.555339 126.73633 49.138672 C 133.65907 53.674262 137.12109 60.526693 137.12109 69.693359 C 137.12109 75.947699 135.47396 81.079427 132.17969 85.089844 C 128.88542 89.052517 124.01562 91.845486 117.57031 93.46875 C 124.77951 95.330729 130.24479 98.577908 133.96875 103.20898 C 137.74045 107.79232 139.62695 113.64019 139.62695 120.75391 C 139.62695 131.35286 135.56944 139.42079 127.45312 144.95898 C 119.33681 150.44944 107.49588 153.19531 91.931641 153.19531 C 86.441189 153.19531 80.926866 152.7411 75.388672 151.83398 C 69.898221 150.97461 64.455512 149.66298 59.060547 147.89648 L 59.060547 126.62695 C 64.216797 129.20508 69.325955 131.16124 74.386719 132.49805 C 79.495225 133.78711 84.508247 134.43164 89.425781 134.43164 C 96.730468 134.43164 102.31641 133.1671 106.18359 130.63672 C 110.09852 128.10634 112.05469 124.47852 112.05469 119.75195 C 112.05469 114.88216 110.04948 111.2053 106.03906 108.72266 C 102.07639 106.19227 96.205946 104.92773 88.423828 104.92773 L 77.394531 104.92773 L 77.394531 87.166016 L 88.996094 87.166016 C 95.918836 87.166016 101.07509 86.091797 104.46484 83.943359 C 107.8546 81.747179 109.54883 78.430338 109.54883 73.990234 C 109.54883 69.884332 107.90169 66.708767 104.60742 64.464844 C 101.31315 62.22092 96.658203 61.099609 90.642578 61.099609 C 86.202474 61.099609 81.715278 61.600912 77.179688 62.603516 C 72.644097 63.60612 68.132378 65.085504 63.644531 67.042969 L 63.644531 46.847656 C 69.087239 45.319879 74.482856 44.174045 79.830078 43.410156 C 85.1773 42.646267 90.427735 42.263672 95.583984 42.263672 z "
     style="fill:#d3dae3;fill-opacity:1;stroke:none;stroke-width:68.05899811;stroke-miterlimit:4;stroke-dasharray:none;stroke-opacity:1" />
</svg>
