<?xml version="1.0" encoding="UTF-8" standalone="no"?>
<svg
   xmlns:dc="http://purl.org/dc/elements/1.1/"
   xmlns:cc="http://creativecommons.org/ns#"
   xmlns:rdf="http://www.w3.org/1999/02/22-rdf-syntax-ns#"
   xmlns:svg="http://www.w3.org/2000/svg"
   xmlns="http://www.w3.org/2000/svg"
   id="svg8"
   version="1.1"
   viewBox="0 0 53.721175 53.721176"
   height="53.721176mm"
   width="53.721176mm">
  <defs
     id="defs2" />
  <metadata
     id="metadata5">
    <rdf:RDF>
      <cc:Work
         rdf:about="">
        <dc:format>image/svg+xml</dc:format>
        <dc:type
           rdf:resource="http://purl.org/dc/dcmitype/StillImage" />
        <dc:title></dc:title>
      </cc:Work>
    </rdf:RDF>
  </metadata>
  <path
     id="rect866"
     transform="scale(0.26458333)"
     d="M 36.419922 2.5800781 C 18.626298 2.5800781 4.3007812 16.905595 4.3007812 34.699219 L 4.3007812 165.33008 C 4.3007812 183.1237 18.626298 197.44922 36.419922 197.44922 L 167.05078 197.44922 C 184.84441 197.44922 199.16992 183.1237 199.16992 165.33008 L 199.16992 34.699219 C 199.16992 16.905595 184.84441 2.5800781 167.05078 2.5800781 L 36.419922 2.5800781 z M 64.791016 44.197266 L 133.32422 44.197266 L 133.32422 64.464844 L 86.775391 64.464844 L 86.775391 81.007812 C 88.876085 80.434896 90.977431 80.005208 93.078125 79.71875 C 95.226562 79.384549 97.446615 79.216797 99.738281 79.216797 C 112.77213 79.216797 122.91688 82.488499 130.17383 89.029297 C 137.43077 95.522352 141.05859 104.59288 141.05859 116.24219 C 141.05859 127.79601 137.09722 136.84397 129.17188 143.38477 C 121.29427 149.92556 110.33724 153.19531 96.300781 153.19531 C 90.237413 153.19531 84.221788 152.59787 78.253906 151.4043 C 72.333768 150.25846 66.436849 148.49262 60.564453 146.10547 L 60.564453 124.40625 C 66.389106 127.74826 71.903429 130.25477 77.107422 131.92578 C 82.359158 133.59679 87.300564 134.43164 91.931641 134.43164 C 98.615668 134.43164 103.86806 132.80903 107.6875 129.5625 C 111.55469 126.26823 113.48828 121.82812 113.48828 116.24219 C 113.48828 110.60851 111.55469 106.1684 107.6875 102.92188 C 103.86806 99.675347 98.615668 98.052734 91.931641 98.052734 C 87.968967 98.052734 83.743706 98.576606 79.255859 99.626953 C 74.768012 100.62956 69.947265 102.20508 64.791016 104.35352 L 64.791016 44.197266 z "
     style="fill:#d3dae3;fill-opacity:1;stroke:none;stroke-width:68.05899811;stroke-miterlimit:4;stroke-dasharray:none;stroke-opacity:1" />
</svg>
