<?xml version="1.0" encoding="UTF-8" standalone="no"?>
<svg
   xmlns:dc="http://purl.org/dc/elements/1.1/"
   xmlns:cc="http://creativecommons.org/ns#"
   xmlns:rdf="http://www.w3.org/1999/02/22-rdf-syntax-ns#"
   xmlns:svg="http://www.w3.org/2000/svg"
   xmlns="http://www.w3.org/2000/svg"
   id="svg8"
   version="1.1"
   viewBox="0 0 53.721175 53.721176"
   height="53.721176mm"
   width="53.721176mm">
  <defs
     id="defs2" />
  <metadata
     id="metadata5">
    <rdf:RDF>
      <cc:Work
         rdf:about="">
        <dc:format>image/svg+xml</dc:format>
        <dc:type
           rdf:resource="http://purl.org/dc/dcmitype/StillImage" />
        <dc:title></dc:title>
      </cc:Work>
    </rdf:RDF>
  </metadata>
  <path
     id="rect866"
     transform="scale(0.26458333)"
     d="M 36.419922 2.5800781 C 18.626298 2.5800781 4.3007812 16.905595 4.3007812 34.699219 L 4.3007812 165.33008 C 4.3007812 183.1237 18.626298 197.44922 36.419922 197.44922 L 167.05078 197.44922 C 184.84441 197.44922 199.16992 183.1237 199.16992 165.33008 L 199.16992 34.699219 C 199.16992 16.905595 184.84441 2.5800781 167.05078 2.5800781 L 36.419922 2.5800781 z M 108.33203 42.408203 C 113.24957 42.408203 118.02322 42.788846 122.6543 43.552734 C 127.28537 44.316623 131.86871 45.462457 136.4043 46.990234 L 136.4043 66.755859 C 131.86871 64.607422 127.59635 63.031901 123.58594 62.029297 C 119.57552 60.97895 115.65929 60.455078 111.83984 60.455078 C 103.62804 60.455078 97.231771 62.746745 92.648438 67.330078 C 88.065104 71.865668 85.390842 78.620009 84.626953 87.595703 C 87.777995 85.256294 91.190972 83.514974 94.867188 82.369141 C 98.543403 81.175564 102.55382 80.578125 106.89844 80.578125 C 117.8316 80.578125 126.64019 83.776259 133.32422 90.173828 C 140.05599 96.571397 143.42187 104.9503 143.42188 115.31055 C 143.42188 126.76888 139.67535 135.96007 132.17969 142.88281 C 124.68403 149.75781 114.63346 153.19531 102.0293 153.19531 C 88.136068 153.19531 77.37131 148.51584 69.732422 139.1582 C 62.141276 129.75282 58.345703 116.43251 58.345703 99.197266 C 58.345703 81.532336 62.785808 67.663628 71.666016 57.589844 C 80.593967 47.468316 92.815539 42.408203 108.33203 42.408203 z M 102.31641 98.337891 C 97.494358 98.337891 93.864583 99.913412 91.429688 103.06445 C 89.042535 106.16775 87.849609 110.84722 87.849609 117.10156 C 87.849609 123.3559 89.042535 128.05794 91.429688 131.20898 C 93.864583 134.31228 97.494358 135.86523 102.31641 135.86523 C 107.1862 135.86523 110.81402 134.31228 113.20117 131.20898 C 115.63607 128.05794 116.85352 123.3559 116.85352 117.10156 C 116.85352 110.84722 115.63607 106.16775 113.20117 103.06445 C 110.81402 99.913412 107.1862 98.337891 102.31641 98.337891 z "
     style="fill:#d3dae3;fill-opacity:1;stroke:none;stroke-width:68.05899811;stroke-miterlimit:4;stroke-dasharray:none;stroke-opacity:1" />
</svg>
