<?xml version="1.0" encoding="UTF-8" standalone="no"?>
<svg
   xmlns:dc="http://purl.org/dc/elements/1.1/"
   xmlns:cc="http://creativecommons.org/ns#"
   xmlns:rdf="http://www.w3.org/1999/02/22-rdf-syntax-ns#"
   xmlns:svg="http://www.w3.org/2000/svg"
   xmlns="http://www.w3.org/2000/svg"
   id="svg8"
   version="1.1"
   viewBox="0 0 53.721175 53.721176"
   height="53.721176mm"
   width="53.721176mm">
  <defs
     id="defs2" />
  <metadata
     id="metadata5">
    <rdf:RDF>
      <cc:Work
         rdf:about="">
        <dc:format>image/svg+xml</dc:format>
        <dc:type
           rdf:resource="http://purl.org/dc/dcmitype/StillImage" />
        <dc:title></dc:title>
      </cc:Work>
    </rdf:RDF>
  </metadata>
  <path
     id="rect866"
     transform="scale(0.26458333)"
     d="M 36.419922 2.5800781 C 18.626298 2.5800781 4.3007812 16.905595 4.3007812 34.699219 L 4.3007812 165.33008 C 4.3007812 183.1237 18.626298 197.44922 36.419922 197.44922 L 167.05078 197.44922 C 184.84441 197.44922 199.16992 183.1237 199.16992 165.33008 L 199.16992 34.699219 C 199.16992 16.905595 184.84441 2.5800781 167.05078 2.5800781 L 36.419922 2.5800781 z M 100.31055 42.263672 C 113.24891 42.263672 123.08464 44.626953 129.81641 49.353516 C 136.54818 54.032335 139.91406 60.907336 139.91406 69.978516 C 139.91406 76.041883 138.2424 81.10395 134.90039 85.162109 C 131.60612 89.220269 126.71181 92.228082 120.21875 94.185547 C 127.47569 96.190755 132.94293 99.460504 136.61914 103.99609 C 140.3431 108.48394 142.20508 114.16602 142.20508 121.04102 C 142.20508 131.63997 138.67144 139.66081 131.60547 145.10352 C 124.58724 150.49848 114.15603 153.19531 100.31055 153.19531 C 86.417318 153.19531 75.914496 150.49848 68.800781 145.10352 C 61.734809 139.66081 58.201172 131.63997 58.201172 121.04102 C 58.201172 114.16602 60.040582 108.48394 63.716797 103.99609 C 67.440755 99.460504 72.930556 96.190755 80.1875 94.185547 C 73.694445 92.228082 68.80013 89.220269 65.505859 85.162109 C 62.211589 81.10395 60.564453 76.041883 60.564453 69.978516 C 60.564453 60.955079 63.930339 54.080078 70.662109 49.353516 C 77.39388 44.626953 87.276693 42.263672 100.31055 42.263672 z M 100.31055 59.595703 C 95.918186 59.595703 92.527778 60.741537 90.140625 63.033203 C 87.801215 65.32487 86.632812 68.570096 86.632812 72.771484 C 86.632812 77.020616 87.801215 80.292318 90.140625 82.583984 C 92.527778 84.875651 95.918186 86.021484 100.31055 86.021484 C 104.60742 86.021484 107.92622 84.875651 110.26562 82.583984 C 112.60503 80.292318 113.77344 77.020616 113.77344 72.771484 C 113.77344 68.522353 112.60503 65.277127 110.26562 63.033203 C 107.92622 60.741537 104.60742 59.595703 100.31055 59.595703 z M 100.31055 103.2793 C 95.154297 103.2793 91.192925 104.68902 88.423828 107.50586 C 85.654731 110.3227 84.269531 114.35569 84.269531 119.60742 C 84.269531 124.85916 85.654731 128.8941 88.423828 131.71094 C 91.192925 134.48003 95.154297 135.86523 100.31055 135.86523 C 105.41905 135.86523 109.33333 134.48003 112.05469 131.71094 C 114.77604 128.8941 116.13672 124.85916 116.13672 119.60742 C 116.13672 114.30794 114.77604 110.27496 112.05469 107.50586 C 109.33333 104.68902 105.41905 103.2793 100.31055 103.2793 z "
     style="fill:#d3dae3;fill-opacity:1;stroke:none;stroke-width:68.05899811;stroke-miterlimit:4;stroke-dasharray:none;stroke-opacity:1" />
</svg>
