<?xml version="1.0" encoding="UTF-8" standalone="no"?>
<svg
   xmlns:dc="http://purl.org/dc/elements/1.1/"
   xmlns:cc="http://creativecommons.org/ns#"
   xmlns:rdf="http://www.w3.org/1999/02/22-rdf-syntax-ns#"
   xmlns:svg="http://www.w3.org/2000/svg"
   xmlns="http://www.w3.org/2000/svg"
   id="svg8"
   version="1.1"
   viewBox="0 0 53.721175 53.721176"
   height="53.721176mm"
   width="53.721176mm">
  <defs
     id="defs2" />
  <metadata
     id="metadata5">
    <rdf:RDF>
      <cc:Work
         rdf:about="">
        <dc:format>image/svg+xml</dc:format>
        <dc:type
           rdf:resource="http://purl.org/dc/dcmitype/StillImage" />
        <dc:title></dc:title>
      </cc:Work>
    </rdf:RDF>
  </metadata>
  <path
     id="rect866"
     transform="scale(0.26458333)"
     d="M 36.419922 2.5800781 C 18.626298 2.5800781 4.3007812 16.905595 4.3007812 34.699219 L 4.3007812 165.33008 C 4.3007812 183.1237 18.626298 197.44922 36.419922 197.44922 L 167.05078 197.44922 C 184.84441 197.44922 199.16992 183.1237 199.16992 165.33008 L 199.16992 34.699219 C 199.16992 16.905595 184.84441 2.5800781 167.05078 2.5800781 L 36.419922 2.5800781 z M 98.089844 42.408203 C 112.03082 42.408203 122.82205 47.110244 130.46094 56.515625 C 138.09983 65.921006 141.91797 79.216798 141.91797 96.404297 C 141.91797 114.06923 137.45529 127.96246 128.52734 138.08398 C 119.59939 148.15777 107.3533 153.19531 91.789062 153.19531 C 86.776042 153.19531 81.977864 152.81272 77.394531 152.04883 C 72.811198 151.33268 68.324002 150.23589 63.931641 148.75586 L 63.931641 128.99023 C 68.324002 131.04319 72.52474 132.59418 76.535156 133.64453 C 80.545573 134.64714 84.508898 135.14844 88.423828 135.14844 C 96.635633 135.14844 103.0319 132.88129 107.61523 128.3457 C 112.19857 123.76237 114.8954 116.98155 115.70703 108.00586 C 112.4605 110.39301 109.00043 112.18338 105.32422 113.37695 C 101.648 114.57053 97.660156 115.16797 93.363281 115.16797 C 82.430122 115.16797 73.598958 111.9924 66.867188 105.64258 C 60.18316 99.245009 56.841797 90.843532 56.841797 80.435547 C 56.841797 68.929471 60.565756 59.713758 68.013672 52.791016 C 75.509331 45.868273 85.533421 42.408203 98.089844 42.408203 z M 97.947266 59.738281 C 93.125217 59.738281 89.497396 61.313802 87.0625 64.464844 C 84.627604 67.615885 83.410156 72.295356 83.410156 78.501953 C 83.410156 84.756293 84.627604 89.458333 87.0625 92.609375 C 89.497396 95.712673 93.125217 97.263672 97.947266 97.263672 C 102.76931 97.263672 106.39714 95.712673 108.83203 92.609375 C 111.26693 89.458333 112.48438 84.756293 112.48438 78.501953 C 112.48437 72.295356 111.26693 67.615885 108.83203 64.464844 C 106.39714 61.313802 102.76931 59.738281 97.947266 59.738281 z "
     style="fill:#d3dae3;fill-opacity:1;stroke:none;stroke-width:68.05899811;stroke-miterlimit:4;stroke-dasharray:none;stroke-opacity:1" />
</svg>
