<?xml version="1.0" encoding="UTF-8" standalone="no"?>
<svg
   xmlns:dc="http://purl.org/dc/elements/1.1/"
   xmlns:cc="http://creativecommons.org/ns#"
   xmlns:rdf="http://www.w3.org/1999/02/22-rdf-syntax-ns#"
   xmlns:svg="http://www.w3.org/2000/svg"
   xmlns="http://www.w3.org/2000/svg"
   width="44mm"
   height="44mm"
   viewBox="0 0 44 44"
   version="1.1"
   id="svg8">
  <defs
     id="defs2" />
  <metadata
     id="metadata5">
    <rdf:RDF>
      <cc:Work
         rdf:about="">
        <dc:format>image/svg+xml</dc:format>
        <dc:type
           rdf:resource="http://purl.org/dc/dcmitype/StillImage" />
        <dc:title></dc:title>
      </cc:Work>
    </rdf:RDF>
  </metadata>
  <rect
     ry="9.0714283"
     style="fill:#800080;stroke:none;stroke-width:0.26458332;stroke-opacity:1"
     y="1.7640417"
     x="1.5875002"
     height="40.82143"
     width="40.82143"
     id="rect3713" />
  <rect
     transform="rotate(-16.710609)"
     y="13.612215"
     x="0.477139"
     height="13.157658"
     width="13.157658"
     id="rect4646"
     style="fill:#f9f9f9;stroke:none;stroke-width:0.26458332;stroke-opacity:1" />
  <rect
     transform="rotate(-16.710609)"
     y="13.612215"
     x="15.75147"
     height="13.157658"
     width="13.157658"
     id="rect4646-9"
     style="display:inline;fill:#f2f2f2;stroke:none;stroke-width:0.26458332;stroke-opacity:1" />
  <rect
     transform="rotate(-16.710609)"
     y="28.35737"
     x="0.477139"
     height="13.157658"
     width="13.157658"
     id="rect4646-1"
     style="display:inline;fill:#ececec;stroke:none;stroke-width:0.26458332;stroke-opacity:1" />
  <rect
     transform="rotate(-16.710609)"
     y="28.35737"
     x="15.75147"
     height="13.157658"
     width="13.157658"
     id="rect4646-9-2"
     style="display:inline;fill:#f2f2f2;stroke:none;stroke-width:0.26458332;stroke-opacity:1" />
  <path
     id="path4687"
     d="m 20.2947,15.095732 a 7.2812885,7.2812885 0 0 0 -3.881167,2.420626 l 2.689079,1.597487 a 4.2190312,4.2190312 0 0 1 1.908446,-1.041264 4.2190312,4.2190312 0 0 1 5.088954,3.11521 4.2190312,4.2190312 0 0 1 -3.114709,5.088837 4.2190312,4.2190312 0 0 1 -5.088833,-3.114713 4.2190312,4.2190312 0 0 1 0.123395,-2.378466 l -2.663022,-1.581965 a 7.2812885,7.2812885 0 0 0 -0.437724,4.676909 7.2812885,7.2812885 0 0 0 8.782661,5.375575 7.2812885,7.2812885 0 0 0 5.375584,-8.782655 7.2812885,7.2812885 0 0 0 -8.782664,-5.375581 z"
     style="fill:#800080;stroke:none;stroke-width:0.26458332;stroke-opacity:1" />
</svg>
